<svg id="svg" xmlns="http://www.w3.org/2000/svg" xmlns:xlink="http://www.w3.org/1999/xlink" width="400" height="402.4539877300613" viewBox="0, 0, 400,402.4539877300613"><g id="svgg"><path id="path0" d="M235.583 36.810 C 228.968 43.425,229.405 48.607,236.865 52.006 C 245.203 55.804,260.984 51.950,262.152 45.830 C 264.423 33.934,245.039 27.353,235.583 36.810 M132.378 43.790 C 123.249 51.182,127.516 56.875,141.501 55.964 C 154.619 55.109,157.129 51.608,149.847 44.325 C 143.601 38.079,139.582 37.956,132.378 43.790 M219.610 61.506 C 218.174 71.947,216.863 74.323,211.405 76.376 C 202.293 79.803,187.018 95.105,181.086 106.748 C 178.335 112.147,175.780 116.912,175.408 117.337 C 175.036 117.762,168.270 119.621,160.372 121.467 C 152.474 123.312,144.080 125.567,141.718 126.478 C 133.707 129.565,135.554 94.589,143.684 89.263 C 162.554 76.898,161.839 58.896,142.476 58.896 C 134.458 58.896,127.215 57.791,126.380 56.442 C 122.102 49.520,115.337 54.062,115.337 63.856 C 115.337 70.216,113.194 76.978,109.310 82.875 C 101.649 94.506,95.369 118.170,96.067 132.780 C 96.494 141.718,95.283 145.780,90.287 152.163 L 83.967 160.238 74.987 154.688 C 61.062 146.082,56.747 138.164,63.431 133.482 C 66.591 131.268,69.308 125.967,70.227 120.224 C 71.068 114.961,73.832 108.777,76.369 106.481 C 78.906 104.185,80.982 101.374,80.982 100.233 C 80.982 96.818,74.445 97.889,71.166 101.840 C 66.797 107.104,53.423 106.420,47.191 100.613 C 40.770 94.631,34.356 94.237,34.356 99.826 C 34.356 102.092,33.071 107.500,31.500 111.844 C 28.113 121.210,32.152 133.939,39.222 136.183 C 42.368 137.181,43.883 140.919,44.735 149.778 C 45.401 156.713,49.384 168.844,53.946 177.831 C 61.471 192.657,61.806 194.366,59.212 204.668 C 53.622 226.867,57.112 254.423,66.332 260.880 C 70.912 264.088,70.723 264.496,62.019 270.155 C 45.228 281.072,41.877 296.825,55.901 298.920 C 60.292 299.576,60.796 300.895,59.564 308.491 C 57.803 319.340,62.848 323.926,76.543 323.926 C 84.803 323.926,85.890 324.619,85.890 329.886 C 85.890 338.272,92.155 343.558,102.093 343.558 C 107.940 343.558,111.077 344.896,112.168 347.853 C 115.922 358.028,124.623 358.299,135.686 348.585 L 143.936 341.342 155.572 347.233 C 161.973 350.473,172.041 353.849,177.947 354.734 C 187.786 356.210,188.747 356.990,189.434 364.062 C 190.159 371.522,190.583 371.786,202.135 371.998 C 210.557 372.152,214.760 373.420,216.368 376.292 C 220.252 383.233,235.610 381.553,245.491 373.106 C 250.711 368.644,256.844 365.805,261.394 365.744 C 265.467 365.689,272.862 362.883,277.828 359.509 C 282.793 356.135,289.636 353.374,293.033 353.374 C 299.326 353.374,311.656 339.015,311.656 331.685 C 311.656 329.831,314.818 324.290,318.682 319.372 C 327.830 307.728,332.575 298.252,336.060 284.663 C 340.683 266.638,340.133 267.270,347.742 271.239 C 351.515 273.206,355.982 274.823,357.669 274.832 C 362.759 274.857,361.233 277.826,350.307 289.159 C 337.800 302.131,345.244 299.040,360.470 284.939 C 372.628 273.680,371.748 268.395,357.486 267.013 L 349.693 266.258 350.486 252.502 C 351.269 238.933,348.596 232.763,340.810 230.168 C 339.251 229.648,337.008 222.152,335.826 213.509 C 331.203 179.704,311.060 150.343,288.319 144.260 C 274.122 140.463,274.440 137.728,290.184 128.253 C 313.235 114.380,323.407 112.405,336.616 119.236 C 351.107 126.729,370.552 117.493,370.552 103.117 C 370.552 99.200,371.656 95.313,373.006 94.479 C 379.162 90.674,374.240 88.920,360.822 90.136 C 346.445 91.440,331.288 87.848,331.288 83.138 C 331.288 81.952,329.632 80.982,327.607 80.982 C 323.509 80.982,322.578 87.221,326.330 89.539 C 327.850 90.479,327.661 92.743,325.818 95.695 C 323.660 99.150,322.080 99.682,319.742 97.742 C 308.818 88.676,250.850 101.141,238.870 115.132 C 233.638 121.243,218.405 122.377,218.405 116.656 C 218.405 114.683,220.673 107.006,223.445 99.597 L 228.485 86.127 242.463 85.395 C 257.425 84.611,261.613 80.293,266.371 60.746 L 268.012 54.008 253.113 55.565 C 241.493 56.780,236.863 56.237,232.077 53.101 C 222.845 47.052,221.471 47.979,219.610 61.506 M247.391 68.358 C 250.352 72.069,250.894 72.010,254.139 67.629 C 257.607 62.949,257.669 62.955,257.669 67.942 C 257.669 75.477,251.544 79.389,242.559 77.592 C 233.071 75.694,228.221 71.902,228.221 66.382 C 228.221 60.948,242.666 62.437,247.391 68.358 M135.996 67.747 C 138.131 68.566,139.912 71.051,139.955 73.269 C 140.022 76.704,140.563 76.601,143.611 72.572 C 145.579 69.971,147.929 68.584,148.835 69.489 C 156.323 76.978,136.233 83.024,128.379 75.646 C 119.557 67.358,123.723 63.038,135.996 67.747 M344.785 68.210 C 339.965 69.109,333.742 75.152,333.742 78.934 C 333.742 87.531,366.082 91.063,367.679 82.639 C 369.377 73.690,357.053 65.923,344.785 68.210 M48.038 85.685 C 39.301 95.339,54.387 107.028,67.734 100.946 C 75.871 97.239,77.571 91.612,72.310 85.798 C 66.639 79.532,53.661 79.471,48.038 85.685 M343.887 98.548 C 349.105 100.111,353.374 102.872,353.374 104.683 C 353.374 109.515,356.651 108.697,360.226 102.972 C 363.547 97.655,368.746 98.523,366.629 104.041 C 361.617 117.101,331.288 112.740,331.288 98.959 C 331.288 94.994,331.953 94.972,343.887 98.548 M50.636 112.308 C 52.167 113.299,53.983 116.319,54.671 119.018 C 55.862 123.691,56.006 123.662,57.695 118.405 C 59.530 112.690,62.526 111.285,64.852 115.049 C 69.659 122.827,48.953 133.861,42.209 127.117 C 34.055 118.963,41.288 106.253,50.636 112.308 M283.771 150.883 C 296.209 154.577,315.053 170.132,313.359 175.307 C 310.278 184.714,282.209 193.671,282.209 185.247 C 282.209 182.293,284.209 181.857,292.025 183.107 C 305.374 185.241,304.979 180.175,291.513 176.549 C 285.508 174.933,276.153 169.244,269.162 162.958 C 262.549 157.012,255.666 152.147,253.867 152.147 C 252.068 152.147,249.914 151.043,249.080 149.693 C 246.748 145.921,269.714 146.708,283.771 150.883 M253.310 161.245 C 270.766 170.719,271.156 174.233,254.753 174.233 C 242.601 174.233,210.356 181.464,206.843 184.977 C 203.008 188.812,209.532 188.961,226.634 185.428 C 251.374 180.318,277.301 180.240,277.301 185.276 C 277.301 188.227,273.530 188.967,258.282 189.006 C 224.836 189.091,185.612 196.861,176.833 205.139 C 171.351 210.308,175.846 212.281,186.580 209.416 C 195.777 206.961,196.319 207.119,196.319 212.245 C 196.319 221.198,201.402 233.801,208.885 243.405 L 215.936 252.455 206.128 257.968 C 193.408 265.117,193.330 269.109,206.037 262.627 C 218.057 256.494,219.336 256.494,231.975 262.612 C 237.720 265.393,247.721 267.681,254.836 267.841 C 269.286 268.166,269.178 268.030,262.453 277.474 C 254.776 288.255,241.794 291.196,225.456 285.855 C 164.875 266.048,149.014 216.624,189.234 172.989 C 209.929 150.539,227.610 147.298,253.310 161.245 M179.464 168.313 C 141.295 211.676,152.104 268.013,202.576 288.768 C 216.675 294.566,216.380 296.933,201.557 296.933 C 174.296 296.933,136.007 269.208,128.739 244.207 C 120.072 214.395,140.342 173.946,169.325 163.216 C 190.691 155.306,190.845 155.384,179.464 168.313 M323.828 197.805 C 336.610 239.189,320.875 273.765,283.963 285.401 C 264.537 291.524,260.246 291.141,267.057 283.891 C 269.992 280.767,272.393 276.475,272.393 274.354 C 272.393 271.630,275.819 269.989,284.049 268.770 C 297.680 266.751,319.018 258.135,319.018 254.650 C 319.018 253.243,317.226 253.050,314.724 254.187 C 312.362 255.261,298.834 256.594,284.663 257.151 C 249.389 258.536,221.182 251.975,238.618 246.441 C 245.454 244.272,263.041 232.775,261.651 231.385 C 261.087 230.821,252.870 234.265,243.391 239.039 L 226.157 247.718 218.901 239.454 C 209.993 229.308,201.913 209.375,205.326 205.963 C 208.951 202.338,234.394 198.796,256.442 198.847 L 276.074 198.893 254.467 211.378 C 224.778 228.533,229.401 229.350,260.815 212.500 C 291.266 196.166,292.025 196.059,292.025 208.120 C 292.025 218.503,297.107 227.465,301.468 224.770 C 303.023 223.809,304.294 218.119,304.294 212.125 C 304.294 201.795,304.657 201.227,311.247 201.227 C 315.072 201.227,318.927 200.500,319.815 199.612 C 322.608 196.819,316.220 191.411,310.129 191.411 C 303.199 191.411,302.729 189.459,308.589 185.011 C 316.231 179.210,318.733 181.311,323.828 197.805 M347.269 240.539 C 349.294 243.816,343.882 260.123,340.769 260.123 C 339.444 260.123,339.150 258.845,340.116 257.283 C 341.081 255.721,341.732 250.752,341.562 246.240 C 341.263 238.286,344.115 235.436,347.269 240.539 M181.595 314.110 C 181.595 315.460,179.387 316.564,176.687 316.564 C 173.988 316.564,171.779 315.460,171.779 314.110 C 171.779 312.761,173.988 311.656,176.687 311.656 C 179.387 311.656,181.595 312.761,181.595 314.110 " stroke="none" fill="#000000" fill-rule="evenodd"></path></g></svg>