<svg id="svg" xmlns="http://www.w3.org/2000/svg" xmlns:xlink="http://www.w3.org/1999/xlink" width="400" height="391.8367346938776" viewBox="0, 0, 400,391.8367346938776"><g id="svgg"><path id="path0" d="M254.424 36.396 C 251.129 38.806,248.762 44.867,247.782 53.403 L 246.259 66.667 217.687 68.525 C 191.312 70.240,162.423 76.013,158.222 80.408 C 157.254 81.420,163.197 81.191,171.429 79.900 C 220.905 72.136,295.538 80.535,308.972 95.380 C 335.083 124.233,216.381 137.271,128.468 115.206 C 123.434 113.943,122.076 114.471,123.077 117.303 C 123.813 119.385,122.242 125.422,119.587 130.719 C 63.642 242.335,97.478 322.911,200.000 322.209 C 237.942 321.949,289.332 313.690,318.519 303.162 C 339.814 295.480,342.853 295.961,337.400 306.150 C 325.820 327.787,185.210 345.195,159.276 328.202 C 153.225 324.237,152.788 324.421,149.523 332.304 C 144.988 343.253,134.728 350.123,129.451 345.744 C 126.492 343.288,124.364 343.314,120.292 345.857 C 92.392 363.281,72.088 274.254,82.993 182.313 C 85.212 163.605,87.038 147.993,87.051 147.619 C 87.064 147.245,89.524 146.939,92.517 146.939 C 107.882 146.939,113.846 124.815,100.492 117.355 C 84.587 108.470,65.555 124.108,74.117 139.026 C 78.618 146.869,77.700 157.810,66.429 230.612 C 65.410 237.193,63.664 239.456,59.606 239.456 C 35.844 239.456,18.268 271.372,32.425 288.814 C 37.024 294.481,39.845 295.215,56.368 295.044 L 75.098 294.850 79.874 316.100 C 82.855 329.360,87.159 340.331,91.322 345.279 C 94.991 349.639,97.290 355.040,96.430 357.281 C 94.617 362.005,99.471 366.063,102.013 361.949 C 105.755 355.895,112.205 358.982,110.447 365.986 C 108.176 375.034,115.289 375.219,121.156 366.265 C 123.605 362.527,129.239 359.026,134.348 358.068 C 139.252 357.148,146.200 353.660,149.789 350.316 C 155.944 344.582,158.706 344.230,198.565 344.090 C 221.803 344.009,245.296 342.971,250.771 341.783 C 260.314 339.713,260.919 340.031,265.388 349.448 C 271.367 362.047,272.673 362.705,282.030 357.825 C 286.301 355.598,291.633 353.756,293.878 353.732 C 296.122 353.708,303.469 349.324,310.204 343.989 C 339.067 321.126,352.742 301.148,345.500 292.423 C 342.819 289.192,342.827 285.074,345.540 272.291 C 348.563 258.044,348.243 252.137,342.724 220.232 C 337.193 188.265,336.902 182.844,340.120 171.714 C 342.112 164.822,343.611 156.059,343.451 152.240 C 343.232 147.001,345.032 144.590,350.781 142.420 C 369.054 135.522,362.075 110.198,342.417 112.073 C 332.145 113.053,331.632 112.749,332.846 106.401 C 334.494 97.778,330.112 88.265,322.065 82.992 C 318.573 80.704,313.222 73.942,310.173 67.966 C 295.437 39.082,270.254 24.821,254.424 36.396 M283.579 51.435 C 288.495 55.778,294.805 63.254,297.602 68.047 L 302.686 76.762 296.241 74.620 C 292.696 73.441,282.449 71.077,273.469 69.366 C 257.988 66.417,257.171 65.867,257.688 58.740 C 258.891 42.144,269.633 39.113,283.579 51.435 M63.889 59.924 C 41.720 66.956,28.695 80.164,28.695 95.614 C 28.695 112.837,45.040 124.201,61.002 118.076 C 68.042 115.375,65.900 111.565,57.340 111.565 C 39.529 111.565,33.667 93.680,47.082 80.265 C 70.180 57.167,128.382 55.846,138.776 78.185 C 143.567 88.482,146.939 89.594,146.939 80.878 C 146.939 57.375,105.159 46.834,63.889 59.924 M76.871 89.923 C 63.370 95.256,72.936 103.462,93.527 104.212 C 110.727 104.838,114.422 100.187,98.730 97.665 L 88.435 96.010 99.184 95.624 C 105.480 95.398,108.861 94.255,107.347 92.865 C 103.296 89.146,83.642 87.249,76.871 89.923 M329.011 133.079 C 335.990 157.230,333.682 173.310,319.796 197.282 C 306.304 220.574,303.037 220.709,299.271 198.132 C 297.445 187.187,292.994 167.967,289.379 155.421 C 285.765 142.876,283.156 132.402,283.581 132.147 C 284.006 131.891,289.252 129.547,295.238 126.938 C 301.224 124.328,309.184 119.829,312.925 116.940 C 322.459 109.576,322.123 109.239,329.011 133.079 M355.102 124.717 C 355.102 129.638,349.776 128.740,348.720 123.640 C 348.132 120.803,349.152 119.559,351.441 120.322 C 353.454 120.993,355.102 122.971,355.102 124.717 M97.959 127.891 C 97.959 130.884,96.807 133.333,95.399 133.333 C 91.746 133.333,89.172 128.381,91.156 125.170 C 94.000 120.569,97.959 122.152,97.959 127.891 M194.558 136.731 L 227.211 140.358 227.211 159.295 C 227.211 177.259,214.514 220.408,209.228 220.408 C 203.554 220.408,186.264 179.429,183.684 159.864 C 182.746 152.755,180.853 146.939,179.477 146.939 C 178.100 146.939,177.683 152.140,178.550 158.503 C 180.179 170.462,168.740 194.874,151.607 216.002 L 145.251 223.841 130.868 198.315 C 114.904 169.984,114.792 167.975,127.516 138.289 L 132.960 125.589 147.433 129.346 C 155.392 131.413,176.599 134.736,194.558 136.731 M276.571 137.424 C 277.980 141.098,271.707 174.052,262.586 210.884 L 259.217 224.490 255.966 216.327 C 254.177 211.837,248.624 198.980,243.624 187.755 C 238.624 176.531,233.689 160.918,232.658 153.061 L 230.782 138.776 242.602 138.454 C 249.103 138.276,258.095 137.197,262.585 136.054 C 274.684 132.976,274.871 132.994,276.571 137.424 M288.269 191.643 C 290.104 202.400,290.710 217.741,289.679 227.363 C 288.480 238.564,288.882 244.853,290.875 246.085 C 292.563 247.128,293.878 246.124,293.878 243.792 C 293.878 241.510,302.409 231.112,312.836 220.685 L 331.795 201.726 333.409 210.387 C 348.312 290.319,340.019 299.449,243.778 309.070 C 162.758 317.169,136.128 310.193,113.828 275.031 C 103.995 259.526,102.666 187.963,112.270 191.165 C 116.276 192.500,141.528 239.397,144.125 250.323 L 146.392 259.864 146.677 248.980 C 146.868 241.679,149.694 234.064,155.260 225.850 C 159.824 219.116,166.574 207.789,170.260 200.680 C 173.946 193.571,177.614 187.755,178.411 187.755 C 180.787 187.755,214.962 259.473,214.964 264.465 C 214.965 266.996,215.884 269.634,217.007 270.328 C 218.129 271.022,219.136 262.216,219.243 250.761 C 219.380 236.173,221.486 223.817,226.272 209.524 L 233.105 189.116 242.085 208.163 C 247.024 218.639,253.935 233.946,257.441 242.177 C 263.057 255.360,263.825 256.170,263.888 248.980 C 263.928 244.490,267.630 226.298,272.116 208.553 C 276.602 190.809,280.309 173.666,280.355 170.458 C 280.505 159.900,284.828 171.475,288.269 191.643 M66.281 260.544 C 69.738 281.462,69.128 282.993,57.337 282.993 C 38.517 282.993,33.355 272.718,45.140 258.712 C 55.329 246.603,64.102 247.363,66.281 260.544 M312.925 330.612 C 311.062 332.857,307.738 334.694,305.538 334.694 C 303.338 334.694,298.379 337.179,294.517 340.217 C 289.640 344.054,286.912 344.796,285.584 342.647 C 284.487 340.871,281.211 340.335,277.891 341.389 C 274.505 342.463,272.109 342.041,272.109 340.371 C 272.109 338.802,275.476 336.770,279.592 335.855 C 283.707 334.940,292.585 332.595,299.320 330.644 C 315.778 325.877,316.857 325.874,312.925 330.612 " stroke="none" fill="#000000" fill-rule="evenodd"></path></g></svg>