<svg id="svg" xmlns="http://www.w3.org/2000/svg" xmlns:xlink="http://www.w3.org/1999/xlink" width="400" height="301.79640718562877" viewBox="0, 0, 400,301.79640718562877"><g id="svgg"><path id="path0" d="M30.041 26.805 C 30.964 31.009,36.376 44.482,42.068 56.745 C 47.760 69.008,51.587 79.042,50.573 79.042 C 49.559 79.042,48.520 87.527,48.265 97.898 C 47.687 121.381,43.058 139.970,32.299 162.011 C 21.978 183.155,21.558 181.000,36.871 185.452 C 53.925 190.409,64.671 202.083,64.671 215.652 C 64.671 226.850,64.274 226.771,82.635 219.207 C 101.670 211.366,101.844 211.406,106.168 224.540 C 109.761 235.454,109.711 236.119,104.903 241.236 C 100.783 245.621,100.430 247.210,102.910 250.199 C 104.569 252.197,105.327 255.391,104.595 257.298 C 102.006 264.043,119.305 271.576,129.591 268.181 C 139.998 264.747,144.605 266.777,142.792 274.000 C 138.747 290.119,153.211 293.176,207.293 287.632 C 264.635 281.755,306.587 251.218,306.587 215.356 C 306.587 203.031,326.597 180.826,349.680 167.537 C 366.499 157.854,367.081 156.433,355.090 154.331 C 342.157 152.063,335.845 147.297,330.092 135.457 L 325.026 125.028 330.177 118.478 C 337.053 109.737,336.841 96.894,329.341 68.031 C 326.048 55.356,323.353 42.408,323.353 39.259 C 323.353 29.082,310.962 33.673,295.844 49.451 L 285.049 60.718 253.303 45.053 C 219.246 28.249,215.340 27.806,228.627 42.257 C 238.235 52.707,251.005 75.542,248.591 77.956 C 247.715 78.832,241.812 77.549,235.475 75.104 C 221.711 69.794,183.158 69.179,163.754 73.960 C 151.779 76.911,151.033 76.777,135.011 68.777 C 125.965 64.260,106.707 57.107,92.216 52.881 C 63.572 44.528,50.554 38.007,39.672 26.561 C 30.699 17.123,27.930 17.194,30.041 26.805 M65.822 101.796 C 72.019 112.335,80.762 125.451,85.251 130.942 C 92.931 140.337,96.091 150.898,91.222 150.898 C 85.284 150.898,60.150 107.374,53.876 86.228 C 51.402 77.889,52.952 79.909,65.822 101.796 M259.833 148.783 C 264.510 152.889,270.727 159.626,273.650 163.753 L 278.963 171.257 272.500 167.066 C 263.834 161.446,263.473 161.607,263.473 171.116 C 263.473 175.649,262.427 180.005,261.148 180.795 C 258.317 182.544,255.230 171.480,257.152 166.472 C 257.911 164.493,257.509 162.874,256.258 162.874 C 254.135 162.874,252.659 167.183,250.991 178.245 C 249.736 186.573,245.003 184.848,243.566 175.540 C 242.796 170.550,241.401 163.873,240.466 160.703 C 239.264 156.626,239.578 155.441,241.539 156.653 C 243.282 157.730,244.311 156.608,244.311 153.631 C 244.311 139.872,248.274 138.634,259.833 148.783 M310.331 147.200 C 314.836 154.075,313.287 158.135,306.806 156.440 C 299.878 154.628,297.652 141.317,304.278 141.317 C 305.487 141.317,308.211 143.965,310.331 147.200 M194.012 148.503 C 200.699 155.190,198.210 170.060,190.404 170.060 C 178.340 170.060,170.835 158.394,177.472 149.957 C 183.363 142.468,187.604 142.095,194.012 148.503 M298.976 188.104 C 300.055 201.075,297.741 210.955,291.981 217.964 L 287.060 223.952 288.766 216.766 C 289.705 212.814,290.659 203.114,290.888 195.210 C 291.407 177.236,291.557 176.630,295.210 177.830 C 296.856 178.371,298.551 182.994,298.976 188.104 M200.464 201.796 C 196.405 241.587,195.055 244.419,188.254 227.422 C 184.636 218.380,181.990 192.763,184.507 191.142 C 187.838 188.996,200.177 182.443,201.240 182.255 C 201.922 182.134,201.573 190.928,200.464 201.796 M242.100 217.780 C 252.389 228.069,251.589 234.807,240.120 234.453 C 235.047 234.296,233.222 233.673,235.928 233.023 C 247.298 230.288,244.998 220.381,231.633 214.531 C 224.825 211.551,224.585 211.147,229.526 210.974 C 232.686 210.863,238.130 213.809,242.100 217.780 M270.110 254.341 C 269.588 255.906,267.881 257.613,266.316 258.134 C 264.565 258.718,264.030 257.623,264.925 255.290 C 266.596 250.936,271.547 250.030,270.110 254.341 M221.421 266.401 C 226.861 274.169,226.135 275.449,216.287 275.449 C 209.395 275.449,208.064 274.810,210.299 272.575 C 211.880 270.994,213.174 267.760,213.174 265.389 C 213.174 259.511,216.916 259.970,221.421 266.401 " stroke="none" fill="#000000" fill-rule="evenodd"></path></g></svg>