<svg id="svg" xmlns="http://www.w3.org/2000/svg" xmlns:xlink="http://www.w3.org/1999/xlink" width="400" height="380.95238095238096" viewBox="0, 0, 400,380.95238095238096"><g id="svgg"><path id="path0" d="M44.381 27.420 C 15.750 45.760,16.107 108.782,44.904 119.730 C 53.676 123.065,57.761 143.811,55.572 173.906 C 53.907 196.799,54.045 197.530,62.261 209.524 C 66.874 216.259,70.672 223.257,70.699 225.075 C 70.956 242.239,119.407 262.388,119.770 245.482 C 119.920 238.461,124.492 236.706,132.184 240.718 C 150.725 250.387,171.124 233.984,171.601 209.022 C 172.017 187.252,177.289 214.396,177.326 238.504 C 177.387 277.009,166.464 298.735,157.011 278.912 C 151.440 267.230,146.268 266.918,135.569 277.618 L 127.339 285.848 116.574 276.124 C 102.060 263.011,84.540 269.004,80.247 288.550 C 79.330 292.727,76.909 296.785,74.868 297.568 C 70.472 299.255,69.598 351.945,73.835 359.864 C 76.602 365.037,91.034 366.506,93.878 361.905 C 96.419 357.792,100.680 358.644,100.680 363.265 C 100.680 370.627,112.420 367.616,122.644 357.633 C 132.532 347.977,132.755 347.914,159.493 347.106 C 174.289 346.660,195.578 344.026,206.803 341.254 C 232.753 334.846,232.116 334.808,234.002 342.857 C 236.302 352.667,245.594 353.093,252.962 343.726 C 258.344 336.883,259.192 336.601,261.574 340.857 C 267.998 352.336,280.260 341.779,288.102 318.018 C 289.885 312.615,296.432 304.226,303.430 298.376 C 310.841 292.181,315.646 285.899,315.646 282.404 C 315.646 279.236,314.758 277.532,313.673 278.617 C 312.587 279.703,310.342 276.540,308.683 271.588 C 307.024 266.636,302.948 261.215,299.626 259.540 C 296.304 257.866,291.155 253.886,288.184 250.697 C 280.912 242.892,272.613 243.396,263.422 252.202 L 255.798 259.507 263.235 242.679 C 270.125 227.090,271.317 225.850,279.416 225.850 C 285.662 225.850,290.385 223.469,295.951 217.513 C 302.941 210.035,304.460 209.503,310.711 212.351 C 332.367 222.218,350.442 170.235,331.156 153.551 C 327.575 150.453,323.760 144.331,322.677 139.946 C 321.595 135.561,317.578 124.958,313.750 116.384 C 307.616 102.643,307.135 99.441,309.693 89.366 C 316.133 63.993,274.317 47.406,252.887 66.833 C 247.642 71.588,241.118 72.289,186.799 73.939 C 153.651 74.945,122.857 76.551,118.367 77.507 C 110.448 79.194,109.844 78.573,98.128 56.706 C 79.148 21.280,65.541 13.866,44.381 27.420 M74.433 62.147 C 81.162 69.581,78.785 83.790,70.055 88.319 C 63.678 91.627,62.933 91.435,61.504 86.107 C 56.169 66.224,64.370 51.027,74.433 62.147 M295.016 77.842 C 299.356 79.508,301.186 89.796,297.143 89.796 C 293.752 89.796,288.435 83.649,288.435 79.728 C 288.435 75.712,289.025 75.543,295.016 77.842 M303.722 125.806 C 312.496 143.230,313.467 149.660,307.322 149.660 C 305.914 149.660,304.762 147.976,304.762 145.918 C 304.762 143.860,300.416 132.640,295.104 120.984 C 283.242 94.954,290.124 98.805,303.722 125.806 M232.560 123.595 C 278.722 142.883,269.666 266.444,221.088 280.123 C 210.559 283.088,209.875 280.726,218.828 272.315 C 236.977 255.265,246.673 181.357,233.987 156.765 C 229.516 148.098,224.095 147.912,225.181 156.463 C 230.619 199.299,223.613 246.466,209.509 261.967 C 200.374 272.008,198.869 268.533,206.604 255.258 C 226.682 220.801,226.323 148.298,205.965 125.850 L 200.412 119.728 211.858 119.728 C 218.153 119.728,227.469 121.468,232.560 123.595 M110.204 160.544 C 108.888 162.674,107.322 162.832,105.508 161.018 C 104.012 159.522,103.676 156.859,104.762 155.102 C 106.078 152.972,107.644 152.814,109.458 154.628 C 110.954 156.124,111.290 158.787,110.204 160.544 M299.320 196.430 C 299.320 198.208,296.565 203.699,293.197 208.633 C 281.437 225.861,273.040 222.377,274.517 200.880 C 274.984 194.069,299.320 189.703,299.320 196.430 M326.531 195.724 C 326.531 200.350,318.267 206.593,314.207 205.035 C 306.395 202.038,309.501 193.197,318.367 193.197 C 322.857 193.197,326.531 194.334,326.531 195.724 M165.986 205.711 C 165.986 228.366,142.087 243.028,131.498 226.869 C 125.354 217.491,128.336 213.486,146.061 207.310 C 165.795 200.435,165.986 200.419,165.986 205.711 M117.102 232.365 C 112.218 247.164,95.809 247.600,85.723 233.200 C 79.507 224.326,80.549 223.133,94.558 223.088 C 101.667 223.065,109.309 221.891,111.542 220.480 C 118.072 216.351,120.602 221.760,117.102 232.365 M310.330 231.068 C 288.790 239.801,293.430 245.934,315.646 238.095 C 328.241 233.652,351.020 232.563,351.020 236.405 C 351.020 239.391,339.267 243.954,325.850 246.176 C 309.803 248.833,313.109 254.120,329.596 252.167 C 351.794 249.538,362.835 238.754,353.197 229.116 C 348.399 224.317,324.270 225.416,310.330 231.068 M27.345 244.764 C 17.495 254.614,39.707 266.684,53.490 258.971 C 57.362 256.804,55.794 255.913,45.351 254.348 C 30.079 252.057,29.652 246.660,44.645 245.401 C 50.859 244.879,59.083 246.635,65.658 249.888 C 71.763 252.909,76.019 253.874,75.445 252.106 C 71.890 241.173,36.359 235.750,27.345 244.764 M281.821 256.087 C 284.001 259.614,278.326 263.844,271.333 263.904 C 267.316 263.938,266.979 263.004,269.388 258.503 C 272.576 252.546,278.876 251.321,281.821 256.087 M322.902 260.317 C 319.615 263.605,320.977 266.528,330.929 277.543 C 344.987 293.104,355.553 291.488,347.066 275.075 C 340.802 262.963,328.047 255.173,322.902 260.317 M337.946 271.257 C 342.144 275.279,345.578 279.565,345.578 280.781 C 345.578 285.636,340.407 282.501,333.518 273.469 C 324.891 262.159,327.231 260.991,337.946 271.257 M67.030 273.831 C 62.740 276.155,60.057 276.719,61.068 275.083 C 64.619 269.338,55.135 272.185,47.667 279.106 C 42.291 284.088,40.957 286.944,43.036 289.023 C 47.094 293.081,59.906 287.448,69.577 277.353 C 78.240 268.312,77.952 267.914,67.030 273.831 M299.320 278.885 C 299.320 287.070,297.534 289.693,286.395 297.865 C 272.486 308.069,263.608 310.974,274.830 301.649 C 290.207 288.871,296.257 273.025,283.976 277.695 C 273.280 281.761,272.751 278.456,283.357 273.828 C 297.371 267.714,299.320 268.331,299.320 278.885 M115.334 286.908 C 124.097 298.397,121.563 300.516,101.988 298.070 C 86.464 296.131,85.199 293.390,94.713 282.313 C 100.908 275.100,107.438 276.554,115.334 286.908 M151.762 286.803 C 155.464 294.929,153.869 296.599,142.404 296.599 C 131.903 296.599,131.186 294.488,138.882 286.227 C 145.946 278.645,148.088 278.741,151.762 286.803 " stroke="none" fill="#000000" fill-rule="evenodd"></path></g></svg>