<svg id="svg" xmlns="http://www.w3.org/2000/svg" xmlns:xlink="http://www.w3.org/1999/xlink" width="400" height="317.15976331360946" viewBox="0, 0, 400,317.15976331360946"><g id="svgg"><path id="path0" d="M309.135 25.317 C 291.882 37.471,290.576 38.011,291.984 32.400 C 293.655 25.740,289.590 21.111,287.304 27.069 C 285.390 32.056,281.677 31.770,281.572 26.627 C 281.504 23.352,280.371 23.847,276.157 28.994 C 268.988 37.751,267.456 37.217,267.456 25.961 C 267.456 14.739,263.107 11.854,254.596 17.430 C 250.295 20.248,248.573 20.460,247.663 18.282 C 246.829 16.287,245.270 16.856,242.659 20.107 C 239.402 24.162,238.550 24.329,236.629 21.290 C 234.656 18.169,234.388 18.178,234.356 21.367 C 234.284 28.577,225.786 33.357,221.487 28.607 C 216.167 22.728,210.792 23.465,209.075 30.309 L 207.606 36.160 204.879 29.489 L 202.153 22.818 196.724 32.019 L 191.295 41.221 187.110 35.673 C 184.464 32.165,182.338 31.076,181.328 32.711 C 180.449 34.133,178.156 34.692,176.231 33.954 C 174.307 33.215,169.092 35.388,164.643 38.782 C 160.193 42.175,154.986 44.351,153.072 43.617 C 151.158 42.882,148.917 43.372,148.093 44.706 C 147.268 46.039,145.030 46.531,143.119 45.797 C 141.208 45.064,139.645 45.757,139.645 47.337 C 139.645 48.919,138.049 49.598,136.095 48.848 C 133.729 47.940,132.544 48.944,132.544 51.857 C 132.544 54.261,130.355 57.689,127.680 59.475 C 123.192 62.471,121.354 66.840,120.891 75.621 C 120.147 89.725,115.013 69.176,114.089 48.396 C 112.759 18.491,108.966 19.781,108.912 50.156 C 108.892 61.495,107.796 71.394,106.470 72.213 C 105.147 73.031,104.678 74.691,105.427 75.903 C 108.320 80.585,102.144 77.823,98.445 72.781 L 94.538 67.456 97.056 72.781 C 100.818 80.735,97.212 79.259,86.000 68.256 C 70.300 52.847,66.405 58.368,76.881 81.182 C 94.267 119.045,99.785 152.283,90.172 161.240 C 86.639 164.531,85.190 168.282,85.675 172.883 C 86.069 176.617,85.325 179.752,84.024 179.850 C 80.685 180.102,79.576 167.998,82.655 164.919 C 87.185 160.389,85.383 153.689,77.954 147.438 C 70.878 141.483,70.740 140.974,72.292 126.481 C 73.877 111.685,73.855 111.614,66.645 107.885 C 55.133 101.932,53.017 103.092,40.028 122.485 C 33.270 132.574,25.117 143.971,21.908 147.812 C 14.554 156.616,18.400 158.877,37.318 156.873 C 53.438 155.165,56.870 158.237,66.375 182.884 C 75.513 206.580,78.935 211.806,87.689 215.432 C 96.020 218.883,96.590 221.929,89.401 224.588 C 83.660 226.712,94.166 234.320,102.841 234.320 C 104.858 234.320,106.509 235.534,106.509 237.018 C 106.509 238.873,110.575 239.296,119.527 238.372 C 133.964 236.882,136.247 239.814,128.860 250.361 C 123.195 258.448,92.937 256.902,68.047 247.253 C 61.841 244.847,62.823 249.629,72.781 270.320 L 81.657 288.761 103.986 287.220 C 138.170 284.860,152.607 281.473,152.924 275.740 C 153.700 261.706,166.420 246.070,169.739 255.069 C 172.392 262.262,186.982 266.520,186.982 260.102 C 186.982 258.655,188.706 258.143,190.833 258.959 C 196.384 261.089,201.183 256.115,201.183 248.231 C 201.183 244.485,202.249 241.420,203.550 241.420 C 204.852 241.420,205.917 242.508,205.917 243.838 C 205.917 247.076,228.556 269.822,231.779 269.822 C 235.590 269.822,234.837 277.162,230.537 281.913 C 224.677 288.389,228.608 291.124,243.773 291.124 C 280.095 291.124,297.948 265.429,273.373 248.521 C 267.515 244.490,262.722 240.056,262.722 238.667 C 262.722 235.783,287.339 238.144,293.927 241.660 C 304.382 247.239,331.361 240.192,331.361 231.881 C 331.361 225.616,339.087 220.301,351.587 217.965 C 368.635 214.780,375.383 205.274,368.038 194.788 C 363.869 188.836,372.936 179.334,382.115 180.034 C 391.669 180.763,391.395 179.720,378.617 166.682 C 358.078 145.725,349.006 142.759,327.497 149.969 C 305.829 157.233,302.685 166.592,318.340 177.228 C 339.839 191.835,309.469 222.425,285.572 210.233 L 276.390 205.549 282.574 199.095 C 285.975 195.545,288.757 191.634,288.756 190.403 C 288.756 189.172,292.178 181.492,296.361 173.334 C 302.944 160.498,303.621 157.586,301.395 151.688 C 299.906 147.743,299.678 143.524,300.855 141.668 C 304.338 136.171,303.165 125.660,297.922 115.382 L 292.885 105.508 300.288 99.327 C 309.829 91.363,309.951 87.240,300.592 89.112 C 292.196 90.792,291.979 89.641,297.030 70.248 C 301.752 52.119,308.417 39.545,319.920 27.067 C 334.372 11.388,329.931 10.667,309.135 25.317 M291.938 58.683 C 291.187 61.555,289.779 63.905,288.810 63.905 C 287.840 63.905,287.412 66.834,287.858 70.414 C 288.652 76.782,288.629 76.795,286.816 71.006 C 285.580 67.061,286.172 62.970,288.591 58.733 C 292.805 51.350,293.860 51.334,291.938 58.683 M292.140 123.348 C 291.029 125.147,289.905 124.958,288.498 122.738 C 286.913 120.236,286.455 120.442,286.427 123.669 C 286.407 125.947,285.251 127.811,283.859 127.811 C 282.467 127.811,281.693 125.414,282.140 122.485 C 282.587 119.556,284.259 117.426,285.855 117.751 C 287.451 118.077,288.790 117.012,288.829 115.385 C 288.869 113.751,289.986 114.289,291.324 116.587 C 292.657 118.875,293.024 121.918,292.140 123.348 M203.509 124.852 C 203.487 125.828,200.028 129.032,195.823 131.972 C 187.360 137.889,183.967 135.066,190.656 127.674 C 194.691 123.216,203.592 121.262,203.509 124.852 M295.858 132.544 C 295.858 140.297,288.163 142.943,285.535 136.095 C 284.697 133.911,285.539 132.544,287.723 132.544 C 289.675 132.544,291.886 130.947,292.635 128.994 C 294.737 123.517,295.858 124.753,295.858 132.544 M215.385 131.722 C 215.385 133.223,204.006 144.379,202.474 144.379 C 201.764 144.379,201.450 143.580,201.775 142.604 C 202.101 141.627,201.302 140.562,200.000 140.237 C 198.698 139.911,197.617 140.444,197.597 141.420 C 197.577 142.396,196.711 144.534,195.672 146.171 C 191.486 152.763,201.357 151.681,209.940 144.606 C 222.193 134.506,227.314 138.034,220.064 151.581 C 214.629 161.737,194.083 162.366,194.083 152.376 C 194.083 150.581,192.751 149.096,191.124 149.076 C 188.855 149.048,188.884 148.584,191.249 147.084 C 192.945 146.008,194.010 143.715,193.616 141.988 C 193.222 140.261,195.386 137.553,198.424 135.971 C 201.463 134.388,205.054 131.987,206.405 130.637 C 208.634 128.407,215.385 129.223,215.385 131.722 M259.619 148.136 C 266.035 154.083,266.094 154.358,261.655 157.604 C 253.900 163.275,248.176 161.960,249.945 154.913 C 251.353 149.302,250.983 148.974,244.665 150.233 C 238.924 151.378,238.658 151.238,242.953 149.333 C 245.749 148.092,248.741 145.938,249.602 144.545 C 251.755 141.061,252.129 141.195,259.619 148.136 " stroke="none" fill="#000000" fill-rule="evenodd"></path></g></svg>