<svg id="svg" xmlns="http://www.w3.org/2000/svg" xmlns:xlink="http://www.w3.org/1999/xlink" width="400" height="377.6223776223776" viewBox="0, 0, 400,377.6223776223776"><g id="svgg"><path id="path0" d="M105.291 22.540 C 70.384 29.358,67.060 36.049,79.598 74.266 C 81.254 79.316,80.306 80.000,71.648 80.000 C 66.241 80.000,59.452 82.140,56.562 84.755 C 53.672 87.371,47.557 89.510,42.972 89.510 C 25.890 89.510,23.291 94.560,28.723 117.193 C 38.807 159.208,39.911 160.129,65.560 147.906 C 81.424 140.347,90.765 140.779,88.146 148.951 C 87.037 152.413,85.494 159.336,84.717 164.336 C 83.572 171.703,82.019 173.427,76.524 173.427 C 63.156 173.427,22.378 197.635,22.378 205.572 C 22.378 211.404,27.208 213.312,41.256 213.030 L 53.945 212.776 47.952 219.155 C 36.258 231.603,43.146 240.240,60.740 235.194 C 68.641 232.928,69.698 233.310,70.467 238.704 C 71.112 243.237,73.573 244.972,80.272 245.621 C 88.029 246.372,90.527 248.833,99.112 264.184 C 115.014 292.620,147.164 318.244,173.563 323.524 C 179.247 324.661,183.717 328.610,188.475 336.699 C 204.048 363.176,210.448 364.084,217.926 340.877 C 221.129 330.937,221.758 330.572,245.567 324.856 C 258.967 321.639,279.714 314.064,291.673 308.023 C 310.815 298.352,314.386 297.404,321.519 300.097 C 332.022 304.061,337.938 299.593,336.391 288.864 C 334.489 275.678,352.039 261.015,364.973 264.984 C 374.578 267.932,374.825 267.816,374.825 260.366 C 374.825 248.525,363.493 239.439,351.525 241.684 L 341.898 243.490 340.636 223.144 C 339.140 199.025,338.854 199.694,348.096 205.750 C 365.214 216.966,359.705 196.587,340.517 177.717 L 326.200 163.636 326.037 141.259 L 325.874 118.881 314.062 117.483 C 292.141 114.887,315.055 100.699,341.169 100.699 C 373.631 100.699,352.052 83.480,317.305 81.656 L 293.947 80.430 300.820 71.419 C 313.115 55.299,309.808 52.582,288.630 61.404 C 281.422 64.407,269.860 68.258,262.937 69.962 C 256.014 71.666,248.147 73.700,245.455 74.481 C 241.913 75.509,240.559 74.302,240.559 70.119 C 240.559 62.882,239.244 62.900,228.889 70.273 C 212.560 81.900,201.862 82.049,197.127 70.715 L 193.011 60.866 175.527 62.723 C 141.872 66.298,141.317 66.254,140.982 59.977 C 140.587 52.560,134.072 24.696,131.808 20.739 C 130.587 18.605,122.692 19.142,105.291 22.540 M129.780 29.623 C 132.082 35.622,131.220 36.705,108.839 55.968 C 84.794 76.663,85.298 76.691,81.095 54.420 C 76.981 32.613,75.631 34.421,99.565 29.666 C 125.636 24.486,127.807 24.483,129.780 29.623 M133.465 65.667 C 131.327 67.242,130.033 69.876,130.588 71.520 C 131.820 75.171,115.731 97.902,111.915 97.902 C 110.410 97.902,105.272 94.411,100.497 90.145 L 91.816 82.388 107.114 71.851 C 115.528 66.057,124.710 58.776,127.519 55.672 C 132.625 50.030,132.625 50.030,134.988 56.416 C 136.635 60.868,136.173 63.670,133.465 65.667 M192.909 72.543 C 196.899 80.000,196.593 81.119,190.561 81.119 C 187.678 81.119,180.218 82.919,173.983 85.118 L 162.648 89.118 159.646 80.505 C 155.849 69.613,155.586 70.523,162.937 69.107 C 179.359 65.944,190.031 67.167,192.909 72.543 M149.858 85.654 C 151.385 93.289,150.621 94.604,142.762 97.859 C 130.087 103.109,127.876 98.547,136.260 84.442 C 143.893 71.602,147.105 71.888,149.858 85.654 M84.128 91.175 C 87.858 95.167,94.527 100.315,98.948 102.615 L 106.987 106.796 93.476 120.513 C 78.501 135.718,78.719 135.757,69.044 116.084 C 57.906 93.435,57.391 89.859,64.841 86.872 C 74.772 82.890,76.814 83.346,84.128 91.175 M51.710 106.178 C 54.244 113.807,59.442 124.654,63.262 130.282 C 67.081 135.911,69.830 140.793,69.369 141.132 C 67.049 142.838,43.984 151.170,43.531 150.467 C 43.241 150.018,40.847 140.210,38.209 128.671 C 35.572 117.133,32.702 104.975,31.832 101.654 C 30.694 97.310,31.697 95.242,35.405 94.286 C 45.842 91.595,47.193 92.580,51.710 106.178 M267.333 128.783 C 253.264 135.802,250.842 135.756,261.538 128.671 C 266.154 125.615,271.818 123.156,274.126 123.207 C 276.434 123.258,273.377 125.767,267.333 128.783 M234.452 138.945 C 233.162 149.835,226.573 150.795,226.573 140.093 C 226.573 134.129,227.925 131.469,230.955 131.469 C 234.060 131.469,235.079 133.646,234.452 138.945 M322.238 143.217 C 319.627 145.828,318.881 145.082,318.881 139.860 C 318.881 134.639,319.627 133.893,322.238 136.503 C 324.848 139.114,324.848 140.606,322.238 143.217 M112.097 153.327 C 134.778 183.150,168.949 198.601,212.227 198.601 L 239.978 198.601 261.248 221.211 C 284.409 245.832,290.986 260.266,270.394 241.286 C 258.465 230.290,245.000 224.001,231.084 222.924 C 227.197 222.624,222.339 220.084,220.290 217.281 C 214.269 209.046,201.962 214.263,184.303 232.539 L 168.607 248.784 163.400 237.237 C 153.688 215.700,144.210 205.705,122.864 194.488 C 97.377 181.094,89.510 173.519,89.510 162.365 C 89.510 152.192,91.033 151.806,98.291 160.140 L 103.773 166.434 99.439 157.482 C 89.343 136.628,97.389 133.987,112.097 153.327 M307.692 153.846 C 311.103 156.051,310.742 156.566,305.759 156.601 C 302.389 156.624,298.853 155.385,297.902 153.846 C 295.701 150.285,302.181 150.285,307.692 153.846 M212.003 163.292 C 228.041 163.054,234.873 163.917,234.154 166.090 C 232.683 170.529,179.687 171.867,174.539 167.594 C 167.628 161.859,170.102 158.861,179.720 161.316 C 184.720 162.592,199.247 163.482,212.003 163.292 M293.136 170.953 C 293.591 174.740,292.803 180.936,291.384 184.723 C 289.163 190.649,288.658 189.563,287.759 176.921 C 286.715 162.258,291.457 156.994,293.136 170.953 M340.228 185.646 C 356.264 201.682,355.670 204.935,338.276 196.327 C 321.192 187.872,303.573 189.825,303.399 200.192 C 303.346 203.374,300.486 209.558,297.045 213.933 C 293.603 218.308,290.075 225.145,289.205 229.126 C 286.367 242.105,285.759 242.146,285.583 229.371 C 285.366 213.566,296.375 193.876,311.991 182.141 C 326.309 171.381,325.914 171.332,340.228 185.646 M252.613 231.924 C 253.857 232.058,253.999 233.586,252.928 235.319 C 250.984 238.464,209.056 236.655,199.573 233.016 C 187.621 228.429,214.920 227.867,252.613 231.924 M219.894 293.475 C 220.861 296.496,221.939 296.662,224.427 294.174 C 229.142 289.460,233.483 290.149,229.478 294.976 C 227.621 297.213,221.818 308.856,216.582 320.850 C 211.346 332.844,207.046 339.884,207.027 336.495 C 207.008 333.106,208.437 327.164,210.201 323.291 C 212.664 317.886,212.603 315.278,209.939 312.068 C 206.637 308.089,207.468 293.275,211.831 278.322 C 213.249 273.462,213.803 273.829,216.044 281.119 C 217.464 285.734,219.196 291.294,219.894 293.475 " stroke="none" fill="#000000" fill-rule="evenodd"></path></g></svg>