<svg id="svg" xmlns="http://www.w3.org/2000/svg" xmlns:xlink="http://www.w3.org/1999/xlink" width="400" height="320.63492063492066" viewBox="0, 0, 400,320.63492063492066"><g id="svgg"><path id="path0" d="M153.215 34.198 C 148.378 37.932,145.445 44.568,144.021 54.992 C 141.752 71.612,130.352 83.481,122.347 77.559 C 100.843 61.651,102.040 61.960,93.390 70.086 C 86.134 76.903,85.619 79.087,87.578 94.760 L 89.726 111.955 78.990 110.304 C 64.957 108.147,56.377 115.032,60.285 125.311 C 62.442 130.984,60.034 138.243,49.069 159.125 C 41.389 173.749,35.064 189.196,35.013 193.451 L 34.921 201.188 43.928 192.558 L 52.936 183.928 52.909 211.805 C 52.838 284.889,101.237 316.596,175.930 292.400 L 197.892 285.286 212.438 293.024 C 228.388 301.510,247.619 306.264,247.619 301.722 C 247.619 300.137,250.476 297.934,253.968 296.825 C 261.107 294.560,262.476 282.982,256.849 272.466 C 251.208 261.926,257.817 258.326,272.117 264.149 C 301.189 275.986,314.286 274.459,314.286 259.233 C 314.286 256.890,320.357 253.161,327.778 250.946 C 359.258 241.550,387.302 217.346,387.302 199.572 C 387.302 185.409,369.438 168.254,354.690 168.254 C 343.904 168.254,343.626 167.927,341.883 153.175 C 335.323 97.671,323.106 78.792,309.971 103.861 L 305.847 111.730 297.053 101.279 C 290.068 92.977,288.609 88.669,289.962 80.334 C 291.851 68.690,290.345 67.539,282.504 74.635 C 277.737 78.949,275.241 78.415,257.566 69.300 C 241.348 60.936,233.333 58.929,211.574 57.787 L 185.222 56.404 176.816 42.488 C 167.616 27.256,163.896 25.949,153.215 34.198 M171.532 46.199 C 179.598 59.249,179.263 59.960,163.885 62.456 C 147.903 65.049,148.043 38.040,164.027 35.022 C 164.321 34.966,167.698 39.996,171.532 46.199 M110.374 76.993 L 117.093 84.145 106.499 91.089 L 95.906 98.033 94.280 89.527 C 90.981 72.270,99.618 65.544,110.374 76.993 M285.714 88.702 C 285.714 92.447,279.523 96.454,277.249 94.180 C 274.975 91.906,278.981 85.714,282.727 85.714 C 284.370 85.714,285.714 87.059,285.714 88.702 M328.488 116.798 C 330.668 127.000,330.508 127.195,321.710 125.081 C 309.298 122.099,309.271 122.027,315.583 108.790 C 321.726 95.909,324.376 97.553,328.488 116.798 M207.242 109.840 C 206.321 113.627,190.476 115.527,190.476 111.851 C 190.476 110.280,191.389 108.082,192.505 106.966 C 195.459 104.012,208.061 106.470,207.242 109.840 M295.238 115.873 C 295.238 118.492,293.095 120.635,290.476 120.635 C 285.519 120.635,284.178 116.880,287.831 113.228 C 291.483 109.575,295.238 110.916,295.238 115.873 M75.463 118.056 C 73.501 123.942,66.667 124.918,66.667 119.312 C 66.667 116.548,68.929 114.286,71.693 114.286 C 74.458 114.286,76.154 115.982,75.463 118.056 M166.440 131.973 C 173.710 139.243,172.806 142.240,158.730 157.511 C 149.570 167.448,146.032 174.048,146.032 181.195 C 146.032 188.111,143.155 193.790,136.508 200.000 C 109.193 225.516,157.410 260.324,196.825 243.543 C 202.755 241.019,217.783 262.852,213.242 267.393 C 195.719 284.916,161.109 285.696,153.918 268.729 C 150.409 260.448,149.308 259.689,147.507 264.310 C 146.260 267.513,147.511 273.214,150.445 277.691 C 157.789 288.899,157.798 288.893,132.540 288.842 C 93.871 288.763,85.677 280.297,99.804 255.021 C 104.328 246.927,107.303 239.578,106.415 238.690 C 103.632 235.907,92.748 247.701,87.085 259.636 L 81.656 271.075 74.432 262.016 C 49.686 230.980,59.930 206.836,108.825 180.958 C 117.066 176.596,123.810 171.953,123.810 170.640 C 123.810 162.292,89.304 176.174,70.294 192.170 C 53.056 206.674,65.705 166.513,83.697 149.610 C 103.215 131.274,154.755 120.288,166.440 131.973 M322.211 137.886 C 335.887 143.600,338.602 153.215,332.458 174.176 C 327.385 191.480,305.336 222.706,299.571 220.750 C 297.589 220.077,291.964 223.705,287.072 228.811 C 282.180 233.917,276.411 238.095,274.253 238.095 C 272.094 238.095,266.084 241.667,260.896 246.032 C 249.586 255.548,246.235 256.138,250.682 247.828 C 259.569 231.222,249.092 203.109,228.766 189.024 C 216.067 180.223,215.381 178.980,217.383 168.401 C 218.555 162.209,219.647 155.469,219.810 153.424 C 220.868 140.129,299.151 128.251,322.211 137.886 M355.556 179.365 C 346.911 184.307,348.391 185.083,364.719 184.168 C 375.381 183.571,380.808 187.714,380.904 196.524 C 380.942 200.059,379.748 199.894,375.147 195.730 C 365.100 186.638,360.840 189.882,369.426 200.086 C 378.185 210.495,377.503 219.048,367.914 219.048 C 364.609 219.048,361.905 220.379,361.905 222.006 C 361.905 226.409,345.393 237.340,334.727 239.998 C 326.283 242.102,325.811 241.820,329.754 237.035 C 335.615 229.920,331.504 230.356,320.790 237.984 L 312.029 244.223 308.396 236.248 C 303.492 225.486,303.533 225.399,313.492 225.379 C 337.576 225.330,358.730 214.003,358.730 201.156 C 358.730 193.507,346.780 187.677,339.863 191.952 C 336.062 194.301,335.758 192.011,338.509 181.746 C 340.057 175.970,342.630 174.625,351.958 174.716 L 363.492 174.828 355.556 179.365 M202.274 189.852 C 205.266 191.754,205.136 194.230,201.696 200.861 C 198.918 206.216,198.427 210.139,200.382 211.347 C 202.101 212.410,205.174 208.862,207.211 203.465 C 211.566 191.927,215.223 191.316,226.556 200.230 C 236.785 208.277,237.041 211.234,227.778 214.397 C 221.284 216.614,221.572 216.955,230.942 218.142 C 247.640 220.258,246.554 249.703,229.537 256.233 C 223.159 258.681,205.917 238.687,208.122 231.400 C 210.893 222.243,206.119 215.873,196.486 215.873 C 191.434 215.873,187.302 217.302,187.302 219.048 C 187.302 220.794,190.159 222.222,193.651 222.222 C 201.759 222.222,201.897 230.508,193.859 234.809 C 186.654 238.665,158.730 239.259,158.730 235.556 C 158.730 234.159,160.516 231.091,162.698 228.739 C 166.653 224.477,164.629 224.791,150.409 230.646 C 148.452 231.452,144.474 229.735,141.570 226.830 C 134.639 219.899,138.906 214.732,157.393 207.672 C 171.538 202.270,175.927 196.825,166.138 196.825 C 156.656 196.825,164.863 192.529,178.630 190.285 C 197.850 187.153,198.021 187.150,202.274 189.852 M353.706 199.576 C 356.843 204.651,343.479 213.220,329.611 215.024 L 315.873 216.811 323.810 208.875 C 334.913 197.771,349.740 193.159,353.706 199.576 " stroke="none" fill="#000000" fill-rule="evenodd"></path></g></svg>