<svg id="svg" xmlns="http://www.w3.org/2000/svg" xmlns:xlink="http://www.w3.org/1999/xlink" width="400" height="347.7124183006536" viewBox="0, 0, 400,347.7124183006536"><g id="svgg"><path id="path0" d="M250.980 31.120 L 250.980 38.711 233.492 32.600 C 214.205 25.860,207.036 27.119,207.542 37.156 C 207.788 42.044,210.743 44.125,223.778 48.589 C 244.572 55.711,253.435 62.311,252.855 70.245 C 252.273 78.223,247.741 79.854,240.080 74.841 C 209.245 54.664,141.419 60.212,107.463 85.689 C 98.936 92.087,98.448 92.158,95.045 87.505 C 88.811 78.979,91.078 76.089,112.418 65.359 C 132.614 55.205,136.277 51.801,130.712 48.362 C 128.960 47.279,128.960 45.118,130.712 41.843 C 136.752 30.557,131.573 31.291,109.022 44.917 L 90.932 55.847 86.498 49.970 C 79.433 40.603,66.926 47.188,69.160 59.098 C 70.657 67.075,70.012 67.920,56.548 75.623 C 35.868 87.455,36.152 97.205,57.620 112.492 C 66.660 118.929,67.065 121.842,60.157 130.719 C 55.132 137.175,54.971 137.199,46.912 132.668 C 42.424 130.146,37.712 128.725,36.441 129.511 C 28.824 134.219,25.330 201.024,31.606 221.971 C 34.171 230.533,33.980 233.113,30.400 238.225 C 24.074 247.256,25.142 252.174,35.385 261.167 C 45.757 270.274,46.730 270.510,56.152 266.217 C 65.775 261.832,81.017 276.259,80.527 289.290 C 79.908 305.765,92.675 312.373,112.066 305.614 C 118.691 303.304,122.519 303.604,131.304 307.119 C 145.380 312.751,172.007 314.752,192.767 311.739 C 208.016 309.526,209.431 309.766,214.791 315.471 C 226.467 327.899,252.783 318.774,261.293 299.346 C 262.552 296.471,273.983 288.359,286.694 281.321 C 329.896 257.397,337.452 252.374,351.766 238.061 C 397.476 192.351,384.602 130.033,324.739 107.227 C 317.136 104.331,308.040 101.961,304.527 101.961 C 299.715 101.961,297.717 100.187,296.431 94.771 C 295.491 90.817,293.187 85.803,291.310 83.629 C 289.434 81.455,287.533 73.243,287.086 65.379 C 286.333 52.112,285.710 50.892,278.431 48.451 C 269.112 45.324,266.760 42.542,266.707 34.576 C 266.680 30.618,264.423 27.776,259.961 26.079 C 250.849 22.615,250.980 22.541,250.980 31.120 M118.000 56.311 C 113.162 58.412,108.456 60.089,107.543 60.038 C 104.142 59.848,119.108 52.473,122.876 52.483 C 125.033 52.488,122.839 54.211,118.000 56.311 M282.353 62.745 C 282.353 67.059,281.176 70.588,279.739 70.588 C 278.301 70.588,277.124 68.920,277.124 66.880 C 277.124 64.841,276.410 61.312,275.537 59.037 C 274.496 56.324,275.395 54.902,278.152 54.902 C 281.077 54.902,282.353 57.284,282.353 62.745 M227.799 78.830 C 246.171 86.734,245.647 90.133,225.284 95.154 C 215.691 97.520,203.353 101.675,197.864 104.388 C 188.718 108.909,187.775 108.959,186.560 104.987 C 182.228 90.825,174.550 83.828,155.556 76.734 C 151.602 75.258,153.515 74.334,163.399 72.947 C 183.626 70.108,213.966 72.880,227.799 78.830 M277.124 81.110 C 277.124 82.584,274.183 84.908,270.588 86.275 C 257.434 91.276,264.043 95.124,285.621 95.030 C 288.137 95.019,290.196 95.985,290.196 97.178 C 290.196 98.371,283.420 99.346,275.139 99.346 C 256.982 99.346,249.513 92.504,257.743 83.410 C 262.451 78.207,277.124 76.466,277.124 81.110 M87.746 92.057 C 91.969 96.675,93.366 98.884,90.850 96.966 C 85.706 93.044,84.565 96.591,89.412 101.438 C 91.852 103.878,91.834 104.575,89.330 104.575 C 87.559 104.575,85.473 102.516,84.694 100.000 C 83.916 97.484,82.188 93.382,80.855 90.885 C 75.572 80.990,78.004 81.404,87.746 92.057 M122.956 90.111 C 105.585 108.601,118.793 141.176,143.661 141.176 C 146.608 141.176,149.020 142.397,149.020 143.890 C 149.020 145.382,146.373 146.376,143.137 146.098 C 133.401 145.261,128.105 146.261,128.105 148.938 C 128.105 150.330,129.778 150.828,131.824 150.043 C 138.774 147.376,147.162 159.031,145.530 169.087 C 143.578 181.116,151.805 180.312,155.399 168.123 C 157.745 160.165,158.614 159.706,174.534 158.001 C 195.975 155.705,243.839 159.036,246.365 163.000 C 252.047 171.913,244.697 194.143,232.220 205.781 L 226.023 211.562 222.699 204.053 C 216.057 189.046,175.638 186.561,153.093 199.773 C 130.786 212.846,116.576 236.980,116.786 261.438 C 116.877 272.116,116.295 274.471,114.522 270.588 C 113.209 267.712,106.212 261.830,98.973 257.516 C 80.995 246.803,62.745 226.964,62.745 218.133 C 62.745 212.615,61.814 211.560,58.170 212.947 C 54.771 214.241,54.350 213.927,56.532 211.727 C 58.708 209.533,58.269 206.272,54.838 199.154 C 41.361 171.188,34.621 136.239,43.351 139.590 C 45.626 140.462,49.070 141.176,51.005 141.176 C 53.708 141.176,54.180 144.513,53.040 155.556 C 51.038 174.955,58.545 176.779,61.113 157.516 C 63.136 142.340,71.351 128.105,78.085 128.105 C 83.778 128.105,103.160 109.666,108.672 99.007 C 112.399 91.800,121.869 83.660,126.528 83.660 C 127.896 83.660,126.289 86.563,122.956 90.111 M170.588 94.411 C 186.008 110.781,174.756 130.719,150.098 130.719 C 121.731 130.719,115.862 98.724,142.165 87.480 C 152.902 82.891,161.774 85.054,170.588 94.411 M246.928 101.605 C 245.562 102.848,238.714 105.253,231.710 106.951 C 224.707 108.649,211.385 113.480,202.106 117.687 C 182.596 126.534,180.664 122.205,199.842 112.612 C 217.480 103.790,253.883 95.280,246.928 101.605 M141.830 106.694 C 130.538 112.081,130.594 117.995,141.929 117.232 C 146.657 116.914,151.879 117.490,153.533 118.512 C 155.188 119.535,157.496 118.754,158.663 116.777 C 159.830 114.799,163.464 111.774,166.740 110.054 C 181.528 102.289,157.779 99.085,141.830 106.694 M324.830 116.945 C 376.946 139.972,383.804 196.221,339.394 236.409 C 283.305 287.167,153.434 308.538,130.420 270.797 C 125.142 262.142,123.838 250.980,128.105 250.980 C 129.542 250.980,130.719 252.655,130.719 254.701 C 130.719 276.552,177.332 286.823,227.451 276.016 C 258.802 269.256,301.120 254.489,305.882 248.647 C 306.601 247.766,312.183 243.657,318.286 239.516 C 347.018 220.026,361.110 193.414,355.636 168.987 C 350.717 147.035,321.356 115.475,305.333 114.915 C 303.478 114.850,298.431 113.101,294.118 111.028 L 286.275 107.259 298.039 108.782 C 304.510 109.620,316.566 113.293,324.830 116.945 M274.371 117.621 C 331.336 128.424,344.895 204.570,294.464 230.458 C 290.765 232.356,292.095 229.912,298.416 223.196 C 319.351 200.948,323.859 179.272,312.585 155.058 C 302.305 132.977,286.719 124.188,247.059 118.109 L 231.373 115.704 246.048 115.368 C 254.120 115.184,266.865 116.197,274.371 117.621 M230.537 145.832 C 235.440 150.734,233.108 151.042,202.614 149.520 C 174.575 148.121,174.118 148.001,184.314 144.696 C 196.683 140.687,226.116 141.410,230.537 145.832 " stroke="none" fill="#000000" fill-rule="evenodd"></path></g></svg>