<svg id="svg" xmlns="http://www.w3.org/2000/svg" xmlns:xlink="http://www.w3.org/1999/xlink" width="400" height="394.074074074074" viewBox="0, 0, 400,394.074074074074"><g id="svgg"><path id="path0" d="M136.127 24.444 C 120.536 40.876,120.500 56.153,136.038 62.884 C 148.129 68.122,168.955 110.017,159.259 109.598 C 158.852 109.580,151.973 107.580,143.974 105.153 C 122.940 98.772,110.174 99.640,79.223 109.554 C 50.292 118.822,34.599 127.129,45.677 127.313 C 51.019 127.402,94.815 152.877,94.815 155.895 C 94.815 156.666,91.387 160.904,87.198 165.315 C 75.936 177.172,62.576 205.076,56.170 230.122 C 53.064 242.268,47.822 255.639,44.520 259.836 C 34.237 272.909,36.320 291.558,50.377 312.252 C 60.331 326.905,62.222 332.079,62.222 344.658 L 62.222 359.627 71.130 351.093 C 89.989 333.025,87.654 301.723,65.047 269.537 C 59.508 261.652,60.656 256.558,70.546 245.138 C 74.757 240.276,75.689 241.179,83.703 257.877 C 88.447 267.761,100.111 284.168,109.623 294.336 L 126.918 312.824 123.592 325.286 C 118.049 346.050,130.995 349.805,150.767 333.168 C 162.398 323.381,171.564 326.820,169.596 340.232 C 167.445 354.883,189.445 354.912,199.699 340.271 C 206.734 330.228,228.148 328.990,228.148 338.627 C 228.148 364.222,249.506 357.277,264.930 326.667 C 271.213 314.197,277.359 314.452,282.772 327.407 C 290.851 346.743,310.977 327.163,311.095 299.853 C 311.104 297.735,315.965 291.069,321.897 285.038 C 342.953 263.635,350.762 240.932,348.702 207.111 C 347.216 182.727,347.759 176.354,351.944 169.063 C 356.207 161.634,356.415 158.836,353.315 150.622 C 349.906 141.590,350.207 140.470,357.793 133.958 C 365.358 127.465,365.464 127.075,359.311 128.383 C 353.531 129.611,353.087 129.057,355.794 123.998 C 357.499 120.814,358.352 115.944,357.691 113.178 C 356.758 109.277,355.760 109.912,353.242 116.008 C 348.266 128.054,344.626 128.315,345.033 116.597 C 345.244 110.518,347.491 104.503,350.325 102.430 C 357.810 96.958,299.329 84.478,276.999 86.783 L 260.629 88.472 253.004 73.423 C 246.708 60.999,245.945 57.130,248.628 51.240 C 253.031 41.577,248.288 33.277,235.249 27.829 C 215.809 19.707,205.935 32.790,216.381 52.831 C 231.709 82.237,213.731 103.774,197.284 75.710 C 192.933 68.285,185.422 59.289,180.594 55.719 C 175.032 51.607,172.377 47.456,173.350 44.392 C 178.392 28.506,147.820 12.122,136.127 24.444 M237.076 54.074 C 237.097 56.111,240.964 65.778,245.669 75.556 C 253.694 92.232,253.875 93.392,248.593 94.280 C 241.459 95.480,241.514 95.909,249.969 105.033 C 255.456 110.952,259.833 112.593,270.144 112.593 C 295.176 112.593,296.753 119.689,272.639 123.824 C 243.339 128.848,216.296 142.980,216.296 153.267 C 216.296 156.373,218.386 155.823,224.317 151.158 L 232.337 144.849 234.592 150.943 C 237.977 160.093,244.031 158.371,256.325 144.763 C 271.377 128.103,303.742 123.970,314.277 137.363 C 318.909 143.251,322.678 144.976,329.717 144.428 C 340.942 143.555,344.101 151.375,336.097 160.220 C 329.530 167.477,322.698 167.423,308.148 160.000 C 293.023 152.284,293.363 152.221,279.174 165.321 C 260.207 182.831,203.107 198.438,157.778 198.501 C 150.852 198.511,145.482 199.519,145.845 200.741 C 146.207 201.963,142.207 207.194,136.956 212.365 C 125.300 223.842,125.321 241.461,137.013 259.639 C 138.380 261.765,135.873 263.640,130.126 264.790 C 119.137 266.987,121.441 272.593,133.333 272.593 C 143.987 272.593,147.198 277.309,141.119 284.026 C 137.812 287.681,136.989 292.340,138.263 300.195 C 139.788 309.588,139.334 310.954,135.212 309.372 C 132.549 308.350,130.370 305.069,130.370 302.080 C 130.370 299.091,129.037 295.822,127.407 294.815 C 125.778 293.808,124.444 289.729,124.444 285.751 C 124.444 279.694,123.003 278.519,115.574 278.519 C 108.575 278.519,104.821 275.919,97.776 266.194 C 87.137 251.507,87.460 250.835,103.433 254.424 C 116.748 257.416,126.283 249.948,123.949 238.356 C 122.084 229.090,98.322 214.531,91.756 218.631 C 83.614 223.717,82.906 223.249,84.754 214.006 C 85.944 208.057,84.730 204.281,80.355 200.321 C 74.394 194.927,74.387 194.706,79.848 184.093 C 93.712 157.143,118.929 147.392,120.933 168.206 C 122.087 180.194,132.693 188.075,144.439 185.674 C 148.923 184.757,160.593 182.445,170.370 180.535 C 199.797 174.787,203.263 166.050,183.447 147.572 C 169.723 134.775,160.314 131.371,151.582 136.044 C 143.417 140.414,139.259 140.083,139.259 135.063 C 139.259 132.755,143.259 129.096,148.148 126.932 C 161.530 121.009,159.216 119.952,134.081 120.509 C 114.835 120.936,110.261 120.096,105.815 115.324 C 98.888 107.889,128.128 107.011,148.091 114.054 C 154.988 116.487,161.585 117.889,162.750 117.169 C 163.915 116.448,167.094 118.457,169.813 121.633 C 177.846 131.016,188.602 128.860,195.069 116.571 C 199.799 107.583,191.161 97.584,176.589 95.180 C 166.386 93.496,164.789 91.893,158.510 77.037 C 143.602 41.760,172.386 48.518,193.212 85.185 C 201.301 99.427,207.407 104.921,207.407 97.957 C 207.407 96.425,212.214 94.759,218.090 94.253 L 228.772 93.333 229.019 75.436 C 229.155 65.593,228.269 55.926,227.051 53.955 C 225.592 51.594,226.919 50.370,230.936 50.370 C 234.292 50.370,237.054 52.037,237.076 54.074 M312.593 92.876 L 327.407 96.749 304.104 98.542 C 278.953 100.477,259.547 96.473,271.111 91.734 C 279.988 88.096,295.993 88.537,312.593 92.876 M212.996 108.555 C 209.518 112.746,209.877 114.008,215.639 117.833 C 222.286 122.247,222.260 122.294,207.407 132.692 C 199.211 138.429,193.115 143.733,193.860 144.477 C 194.605 145.222,199.235 142.969,204.148 139.470 C 209.062 135.972,220.138 129.903,228.763 125.984 C 239.011 121.328,242.231 118.801,238.055 118.689 C 233.317 118.563,232.039 117.093,233.109 113.001 C 234.136 109.073,232.561 106.950,227.646 105.634 C 217.956 103.039,217.498 103.130,212.996 108.555 M331.852 108.270 C 331.852 115.311,306.500 120.292,303.987 113.744 C 302.689 110.361,303.432 109.460,306.538 110.652 C 308.949 111.577,311.583 111.263,312.392 109.954 C 313.869 107.565,331.852 106.009,331.852 108.270 M340.187 120.741 C 339.643 123.593,336.212 126.352,332.562 126.873 C 324.607 128.008,324.014 125.068,331.111 119.680 C 338.266 114.249,341.355 114.610,340.187 120.741 M94.815 125.773 C 102.148 128.083,106.148 130.084,103.704 130.218 C 99.948 130.423,99.906 130.871,103.435 133.105 C 105.732 134.558,109.263 135.114,111.283 134.339 C 116.701 132.260,119.589 138.844,115.448 143.833 C 109.842 150.589,102.019 149.023,81.490 137.037 C 54.644 121.363,61.751 115.355,94.815 125.773 M134.595 141.236 C 135.638 143.953,135.114 147.553,133.430 149.236 C 131.326 151.341,130.370 151.262,130.370 148.983 C 130.370 147.161,129.561 143.561,128.572 140.983 C 127.583 138.405,128.107 136.296,129.736 136.296 C 131.366 136.296,133.552 138.519,134.595 141.236 M209.058 165.739 C 203.524 171.854,204.985 177.778,212.027 177.778 C 214.375 177.778,216.296 179.111,216.296 180.741 C 216.296 185.670,226.904 184.064,232.073 178.351 C 236.451 173.514,236.479 172.374,232.365 166.500 C 226.736 158.463,215.961 158.112,209.058 165.739 M301.518 202.219 C 303.215 234.653,300.382 243.146,288.044 242.619 C 282.723 242.392,281.812 241.806,285.353 240.888 C 296.401 238.025,299.195 215.675,292.214 186.011 C 287.933 167.819,288.956 163.242,295.780 170.066 C 298.654 172.940,300.540 183.505,301.518 202.219 M89.313 176.430 C 83.715 183.547,83.041 193.037,87.533 201.481 C 91.338 208.633,127.407 200.936,127.407 192.972 C 127.407 176.711,98.847 164.310,89.313 176.430 M335.248 178.072 C 333.985 186.580,324.522 200.439,317.356 204.274 C 312.829 206.697,311.593 204.674,307.726 188.515 L 303.291 169.976 319.794 170.493 C 335.384 170.982,336.238 171.401,335.248 178.072 M268.534 190.370 C 267.552 194.037,266.729 201.526,266.707 207.012 L 266.667 216.987 247.407 215.760 C 236.815 215.086,228.148 215.630,228.148 216.970 C 228.148 220.851,242.318 225.185,255.008 225.185 C 265.354 225.185,266.667 225.990,266.667 232.329 C 266.667 236.674,270.250 242.488,275.810 247.167 L 284.954 254.861 275.810 256.690 C 264.469 258.958,263.791 263.714,274.815 263.675 C 285.636 263.636,312.141 251.091,321.793 241.440 C 332.312 230.920,328.440 228.469,316.790 238.272 C 306.435 246.985,302.988 246.680,307.908 237.486 C 309.670 234.194,311.111 228.170,311.111 224.098 C 311.111 219.327,313.193 216.035,316.968 214.837 C 320.189 213.814,326.748 208.218,331.543 202.400 L 340.262 191.823 342.325 205.579 C 347.884 242.649,320.637 285.481,279.521 304.304 C 261.729 312.449,260.168 311.911,255.044 295.862 C 251.276 284.059,236.542 274.866,230.722 280.686 C 228.667 282.740,230.608 284.722,236.783 286.875 C 243.355 289.166,245.359 291.363,244.032 294.821 C 243.009 297.487,240.295 298.869,237.894 297.948 C 235.526 297.040,232.015 296.296,230.090 296.296 C 228.165 296.296,225.274 293.296,223.666 289.630 C 219.856 280.946,212.121 281.061,210.880 289.819 C 209.943 296.434,209.647 296.504,202.475 291.805 C 193.908 286.191,191.262 287.436,193.925 295.825 C 196.122 302.749,208.533 307.701,219.781 306.141 C 229.428 304.803,232.240 308.434,227.051 315.530 C 221.567 323.030,179.430 323.705,168.388 316.470 C 160.522 311.316,154.074 293.060,154.074 275.942 C 154.074 270.049,152.345 266.619,148.889 265.654 C 146.037 264.858,152.024 264.312,162.194 264.440 C 182.266 264.694,192.593 259.154,192.593 248.133 C 192.593 241.004,177.418 207.407,174.198 207.407 C 172.908 207.407,171.852 206.074,171.852 204.444 C 171.852 202.815,179.241 201.481,188.273 201.481 C 207.556 201.481,247.027 193.823,257.713 188.007 C 268.288 182.252,270.576 182.752,268.534 190.370 M74.074 230.595 C 74.074 231.940,70.741 236.173,66.667 240.000 C 59.057 247.148,56.714 244.155,61.058 232.835 C 62.889 228.061,74.074 226.136,74.074 230.595 M251.852 314.533 C 251.852 315.910,249.185 317.037,245.926 317.037 C 241.488 317.037,240.000 315.062,240.000 309.170 C 240.000 301.491,240.141 301.432,245.926 306.667 C 249.185 309.616,251.852 313.156,251.852 314.533 M303.089 314.041 C 302.242 317.282,300.278 319.148,298.725 318.188 C 297.172 317.229,294.033 318.910,291.749 321.926 C 287.754 327.199,287.592 327.177,287.502 321.333 C 287.387 313.970,292.718 308.148,299.574 308.148 C 303.162 308.148,304.183 309.859,303.089 314.041 M147.407 318.905 C 155.892 321.178,155.693 323.129,146.275 329.993 C 138.692 335.520,138.675 335.517,142.028 329.253 C 146.361 321.155,142.976 321.222,134.265 329.405 C 126.444 336.753,125.153 333.427,132.020 323.622 C 137.048 316.443,137.596 316.275,147.407 318.905 M257.214 328.148 C 256.664 331.000,254.491 333.333,252.383 333.333 C 250.275 333.333,246.051 336.647,242.996 340.696 C 236.649 349.111,233.500 348.020,236.045 338.289 C 238.768 327.877,259.146 318.115,257.214 328.148 M195.556 337.461 C 195.556 338.916,193.447 340.916,190.869 341.905 C 183.621 344.687,182.663 344.084,186.667 339.259 C 190.755 334.334,195.556 333.362,195.556 337.461 " stroke="none" fill="#000000" fill-rule="evenodd"></path></g></svg>