<svg id="svg" xmlns="http://www.w3.org/2000/svg" xmlns:xlink="http://www.w3.org/1999/xlink" width="400" height="291.6666666666667" viewBox="0, 0, 400,291.6666666666667"><g id="svgg"><path id="path0" d="M149.919 20.931 C 147.019 24.425,147.477 29.298,152.451 47.879 L 158.522 70.563 147.269 81.809 C 136.525 92.546,135.231 93.056,118.702 93.056 C 98.073 93.056,94.376 99.174,107.237 112.035 L 114.727 119.525 104.813 141.013 C 99.361 152.831,94.024 166.875,92.954 172.222 C 90.088 186.550,87.129 190.809,78.545 192.960 C 68.195 195.554,41.886 211.730,33.502 220.653 C 21.896 233.008,29.036 235.319,56.961 228.248 C 95.854 218.400,102.145 221.612,84.984 242.555 C 55.935 278.005,106.794 289.853,165.197 261.242 C 174.763 256.556,182.993 254.101,184.642 255.441 C 191.353 260.900,219.621 266.855,239.167 266.927 C 282.206 267.087,354.708 232.327,335.761 220.617 C 326.833 215.099,338.491 166.151,351.702 153.691 C 361.874 144.098,364.797 129.018,357.060 126.049 C 354.832 125.194,349.877 119.150,346.049 112.617 C 330.336 85.804,294.639 61.196,257.588 51.635 C 248.775 49.360,234.400 43.151,225.643 37.836 C 197.210 20.577,157.559 11.725,149.919 20.931 M181.543 26.626 C 204.132 32.453,231.470 47.047,251.461 63.950 C 268.775 78.590,273.228 79.799,265.308 67.712 C 260.589 60.510,260.600 60.325,265.627 62.364 C 268.490 63.526,275.974 66.278,282.257 68.481 C 303.503 75.927,333.208 103.946,349.202 131.624 C 355.799 143.041,328.922 141.766,294.444 129.027 C 244.818 110.690,207.971 138.829,218.116 187.317 C 226.570 227.722,246.752 247.152,280.324 247.207 C 293.213 247.228,289.867 249.608,270.416 254.254 C 245.805 260.133,197.516 259.044,201.438 252.699 C 202.179 251.499,199.971 251.118,196.532 251.851 C 191.816 252.856,193.694 250.073,204.167 240.538 C 221.853 224.434,220.786 224.595,187.374 243.058 C 121.290 279.576,60.003 280.191,90.990 244.026 C 102.371 230.742,123.700 202.137,125.888 197.222 C 126.908 194.931,129.269 190.928,131.134 188.328 C 136.902 180.287,130.920 179.171,122.888 186.789 C 118.702 190.759,110.903 195.126,105.556 196.493 C 100.208 197.860,95.665 200.771,95.459 202.962 C 95.254 205.152,94.941 208.581,94.765 210.581 C 94.589 212.580,93.287 213.501,91.872 212.627 C 90.458 211.753,83.895 212.789,77.289 214.929 C 70.683 217.069,61.528 219.498,56.944 220.327 C 52.361 221.155,46.111 222.650,43.056 223.648 C 40.000 224.646,46.250 219.766,56.944 212.802 C 67.639 205.839,79.740 199.405,83.836 198.504 C 93.504 196.376,94.870 194.256,102.562 169.444 C 106.114 157.986,111.510 143.691,114.552 137.679 L 120.084 126.746 123.674 137.191 C 128.641 151.637,131.682 153.544,129.370 140.762 C 128.072 133.590,128.630 128.691,131.085 125.697 C 134.257 121.826,133.932 121.462,128.545 122.850 C 120.136 125.017,126.191 112.944,142.256 95.516 C 156.079 80.520,163.583 79.908,188.589 91.737 C 198.354 96.357,206.885 99.596,207.547 98.935 C 209.589 96.892,175.031 77.778,169.296 77.778 C 161.498 77.778,162.640 74.158,172.222 68.497 C 181.481 63.028,183.477 56.922,175.307 59.058 C 167.354 61.138,164.327 57.976,158.539 41.541 C 150.957 20.011,152.365 19.098,181.543 26.626 M230.556 68.740 C 241.847 76.153,262.879 99.188,266.635 108.256 C 271.154 119.166,275.605 119.230,271.805 108.330 C 268.170 97.904,246.324 73.337,235.888 67.940 C 225.395 62.514,221.877 63.042,230.556 68.740 M312.806 101.389 C 315.091 111.603,316.681 113.820,316.624 106.713 C 316.601 103.785,315.313 99.514,313.762 97.222 C 311.703 94.179,311.445 95.303,312.806 101.389 M125.000 99.902 C 125.000 106.336,114.643 108.215,109.641 102.688 C 104.807 97.347,104.926 97.222,114.847 97.222 C 120.431 97.222,125.000 98.428,125.000 99.902 M186.042 123.793 C 180.626 138.039,194.270 148.838,207.080 140.444 C 220.181 131.860,214.370 116.667,197.987 116.667 C 190.629 116.667,188.201 118.115,186.042 123.793 M140.229 127.857 C 137.703 131.943,141.792 166.416,145.040 168.424 C 146.785 169.502,147.057 162.620,145.799 149.202 C 144.023 130.242,144.320 128.178,149.004 126.973 C 153.363 125.851,153.220 125.594,148.081 125.322 C 144.733 125.145,141.200 126.285,140.229 127.857 M160.837 130.830 C 154.585 137.082,154.605 138.364,161.625 180.268 C 163.837 193.476,165.255 196.868,167.149 193.484 C 168.709 190.696,168.625 182.732,166.933 172.938 C 161.592 142.034,161.942 136.224,169.497 130.419 C 175.083 126.127,175.468 125.112,171.528 125.062 C 168.854 125.028,164.043 127.623,160.837 130.830 " stroke="none" fill="#000000" fill-rule="evenodd"></path></g></svg>