<svg id="svg" xmlns="http://www.w3.org/2000/svg" xmlns:xlink="http://www.w3.org/1999/xlink" width="400" height="357.7464788732394" viewBox="0, 0, 400,357.7464788732394"><g id="svgg"><path id="path0" d="M211.268 43.584 C 204.296 45.656,195.733 48.255,192.239 49.360 C 188.444 50.560,184.177 49.951,181.644 47.849 C 169.985 38.173,113.126 73.286,113.161 90.141 C 113.169 94.014,111.079 105.354,108.517 115.341 C 105.954 125.328,104.506 135.980,105.299 139.012 C 106.092 142.044,104.750 148.375,102.316 153.081 C 97.124 163.121,94.248 160.750,85.341 139.086 C 79.165 124.066,76.103 123.784,65.034 137.213 C 56.854 147.136,56.222 147.397,52.538 142.358 C 47.125 134.956,39.515 146.519,38.449 163.764 C 38.031 170.525,36.181 178.825,34.337 182.209 C 29.311 191.436,29.955 229.441,35.211 233.803 C 37.535 235.732,39.437 240.374,39.437 244.119 C 39.437 258.964,58.471 284.507,69.534 284.507 C 76.271 284.507,90.195 276.123,102.889 264.421 L 114.993 253.264 119.498 259.696 C 123.683 265.671,123.624 266.431,118.669 270.388 C 102.308 283.455,104.571 309.859,122.053 309.859 C 127.899 309.859,128.117 306.041,122.535 301.408 C 111.063 291.887,123.803 272.014,136.889 279.017 C 152.179 287.200,158.513 295.463,156.648 304.790 C 155.594 310.058,156.301 315.176,158.440 317.780 C 162.099 322.231,152.911 321.738,140.141 316.797 C 132.805 313.959,134.164 319.894,142.319 326.309 C 158.748 339.232,205.634 337.225,205.634 323.599 C 205.634 320.690,206.764 318.310,208.145 318.310 C 209.527 318.310,211.452 315.141,212.424 311.268 C 214.920 301.325,230.986 300.837,230.986 310.704 C 230.986 314.268,232.507 318.704,234.366 320.563 C 238.187 324.385,237.332 324.593,219.718 324.139 L 207.042 323.813 213.983 329.748 C 221.319 336.020,229.359 336.099,255.910 330.157 C 271.047 326.770,273.742 323.845,280.338 303.650 C 285.116 289.022,287.281 286.423,304.474 274.676 C 323.899 261.403,349.296 236.548,349.296 230.809 C 349.296 229.030,352.661 223.588,356.774 218.716 C 373.417 199.003,377.362 181.946,371.547 154.834 C 368.692 141.522,367.911 140.511,361.688 142.073 C 356.464 143.384,354.927 142.638,354.919 138.786 C 354.913 136.045,352.303 129.528,349.117 124.304 L 343.326 114.805 349.128 108.629 C 360.510 96.513,351.948 94.353,338.244 105.884 L 329.577 113.177 329.577 104.377 C 329.577 99.537,331.625 92.452,334.127 88.633 C 336.629 84.815,337.580 81.710,336.239 81.733 C 332.060 81.807,327.741 85.656,324.113 92.539 L 320.623 99.163 313.128 91.990 C 309.006 88.045,301.197 82.879,295.775 80.510 C 286.480 76.448,286.285 76.096,292.369 74.362 C 305.500 70.619,286.450 56.351,268.310 56.342 C 258.703 56.338,256.958 54.027,262.431 48.555 C 270.820 40.166,234.608 36.648,211.268 43.584 M247.675 56.735 C 242.948 65.566,239.542 81.505,241.366 86.257 C 243.689 92.311,247.100 90.843,249.085 82.937 C 250.323 78.005,252.504 76.007,256.005 76.599 C 260.883 77.425,275.816 71.212,278.948 67.055 C 279.763 65.972,282.298 66.267,284.581 67.711 C 288.193 69.995,288.170 70.342,284.401 70.379 C 278.450 70.439,259.221 87.060,264.930 87.209 C 267.331 87.272,270.700 85.920,272.417 84.203 C 282.218 74.401,318.310 101.252,318.310 118.346 C 318.310 124.322,319.497 132.332,320.947 136.147 C 325.501 148.124,320.669 146.860,312.469 133.930 C 305.767 123.362,292.958 112.102,292.958 116.778 C 292.958 117.594,297.394 124.073,302.817 131.177 C 313.661 145.384,315.722 153.749,307.746 151.185 C 280.113 142.302,276.056 140.047,276.056 133.567 C 276.056 120.377,246.206 94.418,233.176 96.277 C 227.760 97.050,229.005 98.580,241.635 106.666 C 257.153 116.602,267.606 127.677,267.606 134.183 C 267.606 140.266,262.984 138.764,249.104 128.169 C 233.602 116.336,214.744 114.614,202.817 123.944 C 197.110 128.408,196.709 129.464,200.704 129.515 C 208.060 129.608,206.680 136.640,197.183 147.457 C 192.535 152.751,188.732 158.499,188.732 160.231 C 188.732 164.530,181.105 164.230,179.285 159.859 C 178.218 157.297,176.727 157.680,173.810 161.268 C 169.570 166.482,163.380 167.915,163.380 163.682 C 163.380 162.298,165.282 160.436,167.606 159.545 C 169.930 158.653,171.831 156.616,171.831 155.018 C 171.831 151.181,162.517 151.286,158.636 155.167 C 156.441 157.361,154.300 156.392,151.030 151.723 C 143.309 140.700,145.074 135.211,156.338 135.211 C 168.054 135.211,169.458 130.404,158.451 127.976 C 154.190 127.037,149.663 126.031,148.389 125.743 C 144.358 124.828,157.939 109.863,162.881 109.775 C 165.479 109.729,173.074 104.963,179.757 99.184 L 191.909 88.677 184.981 76.029 C 174.887 57.598,173.236 50.704,178.918 50.704 C 181.476 50.704,182.980 52.289,182.261 54.225 C 180.626 58.633,200.131 95.759,204.114 95.818 C 205.724 95.842,205.141 97.229,202.817 98.900 C 199.303 101.428,199.460 101.658,203.752 100.266 C 206.589 99.345,210.223 98.592,211.827 98.592 C 213.430 98.592,214.097 96.127,213.310 93.115 C 212.201 88.878,213.561 87.381,219.319 86.495 C 225.038 85.616,224.354 85.253,216.363 84.929 C 210.645 84.697,205.239 83.331,204.351 81.893 C 201.966 78.034,211.264 75.896,224.772 77.197 C 235.696 78.249,236.789 77.742,238.437 70.860 C 240.818 60.911,247.939 47.000,249.732 48.793 C 250.518 49.579,249.592 53.153,247.675 56.735 M171.093 89.182 C 165.302 93.303,160.563 97.740,160.563 99.041 C 160.563 100.343,159.507 101.408,158.216 101.408 C 156.925 101.408,155.869 99.563,155.869 97.307 C 155.869 95.051,156.925 93.858,158.216 94.656 C 159.507 95.454,160.563 94.325,160.563 92.146 C 160.563 88.035,170.130 82.213,177.431 81.881 C 179.737 81.776,176.885 85.062,171.093 89.182 M172.850 100.000 C 171.958 102.324,169.307 104.225,166.959 104.225 C 163.484 104.225,163.342 103.440,166.197 100.000 C 168.126 97.676,170.777 95.775,172.087 95.775 C 173.398 95.775,173.741 97.676,172.850 100.000 M72.165 149.536 C 62.699 156.982,64.417 159.965,74.403 153.422 C 78.411 150.796,81.690 149.847,81.690 151.313 C 81.690 152.778,78.496 155.687,74.591 157.777 C 64.114 163.384,61.011 158.215,68.118 146.991 C 72.177 140.580,74.922 138.584,76.927 140.589 C 78.931 142.593,77.447 145.381,72.165 149.536 M250.000 141.549 C 249.354 143.486,247.136 145.070,245.070 145.070 C 243.005 145.070,240.786 143.486,240.141 141.549 C 239.443 139.455,241.440 138.028,245.070 138.028 C 248.701 138.028,250.698 139.455,250.000 141.549 M350.935 152.113 L 363.380 152.113 363.380 168.831 C 363.380 196.824,353.472 210.527,322.535 225.320 C 297.296 237.389,288.845 238.366,310.146 226.753 C 329.051 216.445,352.113 196.773,352.113 190.954 C 352.113 189.192,348.627 190.811,344.366 194.553 C 338.873 199.376,339.352 198.385,346.013 191.142 C 352.585 183.998,355.058 178.929,354.248 174.268 L 353.090 167.606 349.770 174.648 C 346.606 181.362,346.528 181.262,348.106 172.497 C 349.722 163.516,336.092 152.312,328.933 156.736 C 327.774 157.453,327.608 155.999,328.565 153.506 C 329.534 150.979,332.116 149.667,334.397 150.542 C 336.647 151.406,344.089 152.113,350.935 152.113 M55.990 165.655 C 60.770 173.104,67.874 182.198,71.777 185.865 C 75.680 189.531,78.873 193.637,78.873 194.989 C 78.873 198.930,65.097 187.816,63.261 182.394 C 61.335 176.705,54.526 175.798,52.683 180.986 C 51.995 182.923,51.860 181.070,52.384 176.870 C 53.460 168.245,49.011 163.454,47.019 171.092 C 46.307 173.823,45.577 170.669,45.397 164.085 C 44.988 149.086,45.397 149.146,55.990 165.655 M115.996 167.295 C 120.774 164.342,115.247 178.428,110.153 182.187 C 104.146 186.620,102.196 172.291,107.516 162.806 L 111.144 156.338 112.111 162.718 C 112.646 166.244,114.384 168.291,115.996 167.295 M124.358 180.677 L 121.635 190.141 121.381 181.455 C 121.241 176.678,121.972 171.925,123.005 170.892 C 126.545 167.352,127.080 171.219,124.358 180.677 M135.211 189.368 C 135.211 196.501,131.670 193.759,130.435 185.671 C 129.934 182.385,130.766 180.684,132.386 181.685 C 133.940 182.645,135.211 186.103,135.211 189.368 M55.237 202.567 C 62.773 211.111,64.275 213.971,60.044 211.722 C 51.345 207.097,51.154 207.270,52.010 219.014 C 52.434 224.824,52.233 226.092,51.564 221.831 C 50.146 212.802,45.200 211.572,43.070 219.718 C 41.035 227.499,36.620 226.804,36.620 218.703 C 36.620 205.649,40.281 185.638,42.262 187.869 C 43.370 189.119,49.209 195.733,55.237 202.567 M173.152 210.647 C 171.563 206.505,172.212 206.342,178.511 209.305 L 185.678 212.676 178.174 214.700 C 170.600 216.744,160.563 211.048,160.563 204.706 C 160.563 203.127,163.803 204.878,167.762 208.598 C 172.725 213.260,174.399 213.897,173.152 210.647 M170.481 222.007 C 167.951 224.538,154.930 213.871,154.930 209.267 C 154.930 205.649,156.851 206.420,163.351 212.648 C 167.983 217.085,171.191 221.297,170.481 222.007 M279.787 214.789 C 277.671 218.122,277.246 219.381,276.408 224.821 C 276.215 226.078,273.572 229.773,270.536 233.032 C 260.226 244.099,259.966 253.521,269.972 253.521 C 281.088 253.521,319.850 241.179,331.758 233.847 C 344.697 225.882,346.045 226.764,336.443 236.914 C 281.892 294.572,195.979 310.383,144.305 272.273 C 134.685 265.178,150.759 261.999,166.332 267.916 C 202.302 281.583,280.907 243.519,266.121 219.594 C 263.370 215.144,267.494 211.268,274.980 211.268 C 279.929 211.268,281.358 212.315,279.787 214.789 M238.418 218.310 C 241.976 227.582,236.957 232.575,230.534 226.153 C 224.434 220.052,225.480 214.085,232.649 214.085 C 234.930 214.085,237.526 215.986,238.418 218.310 M176.469 234.145 C 183.934 240.341,180.942 244.626,170.755 242.328 C 159.463 239.782,154.375 236.980,156.067 234.241 C 158.151 230.869,172.440 230.801,176.469 234.145 M61.574 246.822 C 66.390 247.785,69.717 249.568,68.966 250.783 C 68.215 251.998,65.066 252.330,61.969 251.520 C 54.312 249.517,54.896 253.432,63.665 262.889 C 71.196 271.011,71.482 274.550,64.386 271.827 C 61.067 270.554,56.157 262.901,48.574 247.183 C 47.334 244.613,50.138 244.535,61.574 246.822 M187.324 256.338 C 188.281 257.887,186.455 259.155,183.265 259.155 C 180.075 259.155,177.465 257.887,177.465 256.338 C 177.465 254.789,179.291 253.521,181.524 253.521 C 183.756 253.521,186.366 254.789,187.324 256.338 M276.056 295.305 C 276.056 299.344,272.856 301.085,268.503 299.414 C 265.090 298.105,265.011 297.367,268.074 295.426 C 272.890 292.372,276.056 292.325,276.056 295.305 M181.995 305.847 C 184.243 314.802,181.261 321.691,178.734 313.380 C 176.677 306.613,171.974 305.209,167.235 309.948 C 165.240 311.944,164.702 310.318,165.519 304.753 C 167.032 294.445,179.339 295.262,181.995 305.847 M256.338 305.979 C 256.338 312.226,255.686 312.825,252.113 309.859 C 248.742 307.061,247.033 307.061,243.662 309.859 C 240.241 312.698,239.437 312.599,239.437 309.339 C 239.437 307.125,242.923 303.935,247.183 302.252 C 251.444 300.568,255.246 299.056,255.634 298.891 C 256.021 298.726,256.338 301.916,256.338 305.979 M205.634 308.796 C 205.634 312.058,204.627 312.570,202.113 310.582 C 200.176 309.051,196.690 307.095,194.366 306.234 C 191.958 305.343,193.472 304.574,197.887 304.448 C 203.246 304.294,205.634 305.634,205.634 308.796 " stroke="none" fill="#000000" fill-rule="evenodd"></path></g></svg>