<svg id="svg" xmlns="http://www.w3.org/2000/svg" xmlns:xlink="http://www.w3.org/1999/xlink" width="400" height="371.42857142857144" viewBox="0, 0, 400,371.42857142857144"><g id="svgg"><path id="path0" d="M256.336 39.796 C 245.165 61.296,221.427 67.059,209.760 51.103 C 206.655 46.857,202.578 45.346,199.449 47.279 C 196.602 49.039,187.452 50.076,179.115 49.584 C 157.600 48.315,117.045 55.451,100.113 63.485 C 80.831 72.635,81.615 78.860,101.020 70.691 C 120.119 62.651,185.414 58.217,189.414 64.688 C 194.007 72.119,184.312 85.338,169.832 91.388 C 104.516 118.679,78.119 225.060,127.346 262.608 C 204.011 321.083,310.562 274.355,305.505 184.475 C 304.623 168.789,305.633 159.700,308.163 160.570 C 310.408 161.341,312.245 175.730,312.245 192.544 C 312.245 320.639,100.733 356.136,47.700 236.942 C 28.740 194.329,41.213 128.091,73.958 97.503 C 91.253 81.347,87.013 78.731,68.399 94.074 C 18.415 135.275,15.120 228.369,61.837 279.485 C 127.192 350.994,273.307 329.971,316.411 242.857 C 322.354 230.847,324.695 216.986,325.265 190.425 C 325.898 160.956,327.399 153.290,333.428 148.718 C 340.784 143.141,340.023 142.519,324.490 141.403 C 310.190 140.375,312.552 125.522,328.663 115.167 C 348.308 102.540,342.816 95.732,321.681 106.514 C 294.486 120.388,281.512 105.206,304.801 86.761 C 320.803 74.087,340.654 44.056,336.064 39.465 C 334.658 38.059,321.768 47.890,307.421 61.311 C 278.422 88.438,277.946 88.635,265.636 78.571 L 256.899 71.429 265.184 55.259 C 273.705 38.631,276.191 20.408,269.939 20.408 C 267.997 20.408,261.876 29.133,256.336 39.796 M224.490 73.238 C 224.490 77.623,207.475 90.468,204.976 87.969 C 204.074 87.067,204.546 82.518,206.025 77.859 C 208.660 69.556,224.490 65.595,224.490 73.238 M253.330 85.858 C 263.170 91.124,263.598 97.980,254.082 97.897 C 243.716 97.806,235.242 91.431,238.493 86.171 C 241.950 80.578,243.406 80.547,253.330 85.858 M285.796 112.344 C 288.636 115.765,289.823 119.700,288.435 121.088 C 285.471 124.053,273.469 114.924,273.469 109.704 C 273.469 104.082,280.122 105.506,285.796 112.344 M258.747 137.069 C 263.139 148.514,255.176 163.265,244.606 163.265 C 234.997 163.265,224.283 146.789,228.621 138.682 C 233.944 128.736,255.114 127.602,258.747 137.069 M155.102 154.066 L 155.102 168.874 167.304 157.184 C 180.487 144.554,187.037 145.272,179.923 158.566 C 174.019 169.597,174.355 171.616,181.633 168.823 C 185.510 167.335,187.755 168.879,187.755 173.033 C 187.755 176.871,184.369 179.592,179.592 179.592 C 175.102 179.592,171.429 180.987,171.429 182.692 C 171.429 184.397,175.102 188.086,179.592 190.889 C 191.109 198.082,189.845 204.762,177.551 201.676 C 168.620 199.435,167.347 200.443,167.347 209.762 C 167.347 221.183,160.400 224.246,156.652 214.478 C 154.842 209.760,152.819 209.520,146.761 213.303 C 136.520 219.699,133.580 215.705,138.672 202.313 C 142.644 191.867,142.271 191.323,131.999 192.564 C 118.803 194.157,114.466 185.462,126.545 181.628 C 134.673 179.048,134.799 178.320,128.717 169.037 C 123.192 160.605,123.123 159.184,128.236 159.184 C 131.523 159.184,135.347 161.020,136.735 163.265 C 142.261 172.206,146.939 166.482,146.939 150.780 C 146.939 140.774,148.555 135.211,151.020 136.735 C 153.265 138.122,155.102 145.921,155.102 154.066 M291.400 165.640 C 312.866 221.579,229.592 301.489,183.673 269.015 C 178.231 265.166,178.231 264.884,183.673 266.476 C 189.515 268.185,212.245 259.053,212.245 254.997 C 212.245 253.932,208.112 248.929,203.061 243.878 L 193.878 234.694 208.163 233.382 C 216.020 232.661,224.194 230.365,226.327 228.280 C 232.560 222.187,236.735 223.883,236.735 232.509 C 236.735 255.743,268.318 249.490,279.822 223.979 C 290.004 201.399,284.414 199.840,273.573 222.236 C 266.540 236.764,262.403 240.816,254.606 240.816 C 240.449 240.816,234.511 224.918,245.215 215.672 C 249.531 211.945,253.061 205.976,253.061 202.407 C 253.061 198.838,255.620 195.918,258.747 195.918 C 264.376 195.918,269.446 187.445,269.325 178.238 C 269.289 175.502,267.576 176.079,265.306 179.592 C 263.130 182.959,261.321 183.827,261.287 181.520 C 261.048 165.455,286.232 152.173,291.400 165.640 M191.100 248.001 C 192.161 255.436,190.446 257.143,181.917 257.143 C 174.467 257.143,171.429 254.975,171.429 249.660 C 171.429 233.839,188.870 232.368,191.100 248.001 M155.918 257.959 C 152.109 261.769,149.932 261.769,146.122 257.959 C 142.313 254.150,143.401 253.061,151.020 253.061 C 158.639 253.061,159.728 254.150,155.918 257.959 " stroke="none" fill="#000000" fill-rule="evenodd"></path></g></svg>