<svg id="svg" xmlns="http://www.w3.org/2000/svg" xmlns:xlink="http://www.w3.org/1999/xlink" width="400" height="288.8888888888889" viewBox="0, 0, 400,288.8888888888889"><g id="svgg"><path id="path0" d="M346.902 21.807 C 343.259 24.635,338.823 26.442,337.045 25.822 C 335.267 25.203,330.267 29.161,325.934 34.618 C 312.743 51.230,283.546 73.546,279.845 69.845 C 278.097 68.097,274.332 66.667,271.479 66.667 C 267.687 66.667,266.733 65.278,267.931 61.502 C 271.894 49.016,262.164 43.791,246.229 49.849 C 241.093 51.802,238.464 51.446,235.986 48.461 C 231.684 43.276,219.234 43.307,212.336 48.518 C 208.758 51.222,203.758 52.024,197.472 50.903 C 190.367 49.637,187.133 50.400,184.532 53.957 C 181.333 58.332,179.961 58.372,166.857 54.480 C 159.043 52.160,145.150 49.413,135.985 48.376 C 126.819 47.339,118.649 45.405,117.829 44.079 C 117.010 42.752,113.600 41.622,110.253 41.568 C 106.905 41.514,101.045 39.742,97.230 37.631 C 88.146 32.603,82.624 36.663,86.103 45.812 C 87.927 50.611,87.526 52.707,84.564 53.843 C 77.691 56.481,80.069 66.065,88.889 71.275 C 93.747 74.145,97.246 78.554,97.280 81.849 C 97.312 84.957,99.039 95.621,101.117 105.546 C 104.807 123.165,104.740 123.779,98.282 131.454 C 94.643 135.778,91.667 142.191,91.667 145.706 C 91.667 159.679,84.107 159.290,82.010 145.209 C 80.924 137.913,79.083 130.694,77.919 129.167 C 76.754 127.639,74.284 120.139,72.430 112.500 C 67.275 91.266,52.952 63.889,46.998 63.889 C 40.897 63.889,33.333 74.036,33.333 82.222 C 33.333 85.515,31.458 89.765,29.167 91.667 C 24.095 95.876,23.721 113.143,28.367 128.648 C 31.004 137.450,31.004 140.128,28.367 141.007 C 23.656 142.577,24.159 149.167,30.263 165.866 C 41.124 195.581,65.118 217.608,91.450 222.036 C 100.430 223.547,101.156 224.522,104.604 239.703 C 110.804 267.001,118.752 274.545,125.563 259.596 C 128.818 252.453,158.593 250.203,168.499 256.352 C 170.271 257.451,173.582 257.637,175.857 256.764 C 181.174 254.724,184.916 260.639,180.869 264.686 C 171.511 274.044,181.662 284.109,192.979 276.694 C 197.000 274.060,205.627 272.222,213.974 272.222 C 221.767 272.222,230.248 271.145,232.822 269.829 C 244.354 263.929,252.105 263.795,253.590 269.471 C 255.732 277.665,258.222 276.648,283.199 257.376 C 299.825 244.548,307.766 240.082,312.382 240.964 C 330.072 244.346,349.511 204.575,345.768 172.660 C 342.905 148.249,342.880 148.643,349.864 106.944 C 353.191 87.083,355.578 63.333,355.169 54.167 C 354.757 44.927,355.915 34.796,357.768 31.433 C 365.388 17.603,359.286 12.198,346.902 21.807 M342.735 46.528 C 341.737 50.729,339.111 56.253,336.900 58.803 C 318.184 80.385,309.892 133.333,325.228 133.333 C 327.088 133.333,327.603 131.348,326.489 128.472 C 320.745 113.646,321.945 98.533,330.185 81.944 C 334.738 72.778,338.559 67.509,338.676 70.237 C 338.793 72.964,336.845 78.315,334.346 82.129 C 331.847 85.942,330.665 89.925,331.719 90.978 C 332.773 92.032,334.750 91.091,336.113 88.886 C 343.252 77.335,343.071 126.707,335.917 142.385 C 333.046 148.675,333.124 151.361,336.349 157.380 C 342.225 168.348,341.778 204.411,335.778 203.433 C 332.515 202.902,330.814 205.604,329.589 213.260 C 327.300 227.578,317.545 238.375,312.783 231.862 C 309.702 227.648,309.129 227.639,305.712 231.756 C 303.498 234.424,299.885 235.567,296.781 234.582 C 292.825 233.326,290.693 235.011,287.933 241.574 C 284.468 249.817,265.000 265.926,262.059 262.985 C 261.290 262.216,262.012 259.062,263.664 255.976 C 269.514 245.046,266.521 244.093,255.000 253.218 C 247.470 259.182,243.980 260.773,245.156 257.707 C 248.115 249.997,242.664 249.454,237.740 256.968 C 235.246 260.775,231.734 263.889,229.936 263.889 C 227.520 263.889,227.480 263.076,229.783 260.773 C 233.076 257.479,231.581 250.000,227.629 250.000 C 226.347 250.000,217.833 254.375,208.709 259.722 C 187.765 271.997,183.879 272.000,193.237 259.731 L 200.646 250.018 188.097 251.738 C 179.648 252.896,172.918 252.146,167.501 249.444 C 162.745 247.071,154.979 245.952,148.515 246.706 C 138.636 247.859,137.943 247.543,141.351 243.436 C 144.572 239.555,144.489 238.889,140.782 238.889 C 138.393 238.889,135.525 240.368,134.407 242.177 C 133.013 244.432,131.747 243.777,130.375 240.093 C 128.227 234.327,128.482 233.986,122.310 250.862 C 117.999 262.648,115.028 258.128,108.045 229.162 C 102.145 204.688,97.222 195.214,97.222 208.333 C 97.222 227.753,47.805 193.857,39.209 168.542 C 37.225 162.698,36.341 157.178,37.245 156.274 C 38.149 155.369,38.889 155.983,38.889 157.637 C 38.889 161.919,60.652 184.719,62.743 182.628 C 63.698 181.673,59.255 173.444,52.870 164.342 C 42.423 149.448,28.540 114.979,31.711 111.807 C 32.403 111.115,36.883 118.302,41.667 127.778 C 53.446 151.113,55.195 147.087,44.470 121.324 C 34.715 97.892,36.074 69.444,46.948 69.444 C 50.408 69.444,65.405 104.782,69.347 122.222 C 71.246 130.625,74.545 142.856,76.678 149.403 C 78.811 155.949,80.654 165.949,80.775 171.625 C 80.895 177.301,81.625 180.382,82.395 178.472 C 84.799 172.514,89.056 174.650,92.083 183.333 C 96.358 195.597,98.932 193.509,98.932 177.778 C 98.932 170.139,97.922 163.889,96.688 163.889 C 91.884 163.889,94.755 154.954,100.000 153.583 C 106.474 151.890,107.493 147.222,101.389 147.222 C 96.280 147.222,96.146 141.928,101.089 135.417 C 106.228 128.646,106.964 129.101,111.087 141.595 C 114.487 151.895,124.269 165.546,126.588 163.227 C 127.155 162.660,125.097 157.101,122.015 150.873 C 115.231 137.160,105.556 97.893,105.556 84.071 C 105.556 78.558,103.568 71.853,101.139 69.168 C 97.793 65.471,97.436 63.062,99.666 59.227 C 101.284 56.444,102.647 55.463,102.693 57.048 C 102.803 60.799,114.596 61.684,116.806 58.107 C 124.751 45.252,187.232 62.659,208.120 83.547 C 212.958 88.385,217.714 91.546,218.688 90.571 C 219.663 89.596,213.357 81.918,204.675 73.509 C 195.993 65.099,188.889 57.620,188.889 56.887 C 188.889 54.351,201.679 55.568,204.481 58.370 C 206.382 60.271,209.425 58.918,213.854 54.203 C 217.462 50.364,222.734 47.222,225.571 47.222 C 232.977 47.222,235.039 55.085,228.825 59.629 C 219.149 66.704,226.893 66.848,239.185 59.821 C 265.170 44.967,271.792 53.490,249.700 73.354 C 233.530 87.891,237.707 90.995,254.361 76.819 C 266.080 66.843,268.082 66.845,283.998 76.841 L 294.385 83.365 293.720 77.205 C 292.942 69.996,320.561 49.301,327.985 51.530 C 330.668 52.335,333.803 50.145,336.094 45.866 C 341.062 36.582,345.005 36.975,342.735 46.528 M133.572 71.680 C 124.173 74.813,132.867 124.344,145.614 140.278 C 155.997 153.258,156.874 146.696,147.075 129.334 C 140.495 117.674,137.853 108.958,136.756 95.284 L 135.280 76.906 149.435 78.582 C 167.324 80.701,178.833 86.492,193.750 100.880 C 206.160 112.851,209.565 110.656,199.818 96.967 C 188.387 80.914,149.920 66.230,133.572 71.680 M253.472 94.370 C 246.979 97.317,241.667 100.969,241.667 102.486 C 241.667 104.002,246.979 102.940,253.472 100.125 C 281.724 87.878,292.068 91.041,274.331 106.503 C 268.428 111.648,267.211 113.686,270.833 112.360 C 292.417 104.456,298.823 110.025,278.472 119.000 C 271.215 122.200,267.515 124.860,270.250 124.909 C 278.056 125.052,297.222 114.220,297.222 109.666 C 297.222 107.405,294.753 105.556,291.736 105.556 C 287.122 105.556,286.515 104.231,287.917 97.222 C 290.003 86.790,273.231 85.401,253.472 94.370 M145.560 95.545 C 144.619 97.995,144.570 101.875,145.449 104.167 C 147.335 109.082,153.094 109.836,152.083 105.035 C 151.701 103.221,154.404 101.659,158.090 101.563 C 166.205 101.352,169.582 94.444,161.570 94.444 C 158.512 94.444,154.043 93.690,151.639 92.767 C 149.022 91.763,146.584 92.877,145.560 95.545 M272.840 145.991 C 269.445 148.369,266.667 152.119,266.667 154.324 C 266.667 156.529,264.445 158.333,261.729 158.333 C 259.014 158.333,254.326 160.022,251.313 162.086 C 248.299 164.149,242.083 166.648,237.500 167.638 C 229.633 169.336,229.750 169.123,239.583 163.819 C 266.436 149.336,238.594 137.879,198.915 147.084 C 176.885 152.195,176.148 166.667,197.917 166.667 C 202.521 166.667,205.159 167.839,204.167 169.444 C 203.155 171.081,206.195 172.222,211.564 172.222 C 223.501 172.222,216.054 180.843,198.611 187.216 C 190.107 190.323,189.036 191.321,194.047 191.471 C 199.132 191.623,200.165 192.753,198.672 196.528 C 189.994 218.471,196.715 227.778,221.238 227.778 C 232.664 227.778,237.442 226.299,244.087 220.708 C 252.702 213.459,284.368 208.822,287.762 214.312 C 296.326 228.169,318.003 206.826,315.508 186.994 C 314.528 179.206,315.165 174.988,317.440 174.198 C 319.306 173.550,318.704 173.333,316.101 173.716 C 313.499 174.099,309.124 172.763,306.379 170.747 C 300.850 166.686,309.868 161.370,323.097 160.892 C 326.436 160.771,327.552 160.025,325.579 159.233 C 322.771 158.106,322.715 156.920,325.322 153.779 C 329.917 148.242,323.931 141.624,318.889 146.667 C 317.056 148.500,312.993 149.960,309.861 149.912 C 304.257 149.825,304.252 149.759,309.559 145.745 C 317.643 139.631,281.576 139.872,272.840 145.991 M260.697 172.494 C 271.305 176.192,271.405 177.609,262.173 193.364 C 246.426 220.233,212.807 232.022,205.817 213.126 C 200.305 198.226,211.244 186.111,230.209 186.111 C 236.330 186.111,242.111 184.861,243.056 183.333 C 244.082 181.672,240.520 180.522,234.192 180.471 C 225.388 180.401,224.461 179.892,228.673 177.443 C 231.458 175.824,236.770 175.260,240.479 176.191 C 245.401 177.427,247.222 176.744,247.222 173.664 C 247.222 168.637,249.152 168.470,260.697 172.494 M286.440 174.306 C 286.621 176.979,286.621 180.104,286.440 181.250 C 285.969 184.231,291.122 183.820,297.582 180.363 C 310.084 173.672,316.498 195.510,305.882 208.620 C 299.357 216.678,285.503 212.646,287.923 203.393 C 288.747 200.241,286.434 194.731,282.149 189.639 C 274.120 180.096,273.547 177.564,278.333 172.778 C 283.040 168.071,286.057 168.639,286.440 174.306 M300.000 175.000 C 300.000 176.528,298.125 177.778,295.833 177.778 C 293.542 177.778,291.667 176.528,291.667 175.000 C 291.667 173.472,293.542 172.222,295.833 172.222 C 298.125 172.222,300.000 173.472,300.000 175.000 M145.080 179.798 C 134.489 183.576,132.865 202.778,143.137 202.778 C 144.863 202.778,146.175 205.512,146.054 208.854 C 145.899 213.129,147.892 215.427,152.778 216.607 C 157.012 217.629,160.054 220.567,160.573 224.136 C 161.527 230.701,168.304 233.260,184.722 233.253 C 192.910 233.249,194.737 232.540,191.667 230.556 C 189.375 229.075,182.188 227.844,175.694 227.820 C 165.713 227.784,163.889 226.910,163.889 222.163 C 163.889 218.864,161.015 215.238,156.923 213.374 C 150.356 210.382,150.201 209.829,154.210 203.711 C 158.342 197.404,158.226 197.222,150.064 197.222 C 140.679 197.222,139.380 193.242,146.279 185.618 C 151.242 180.134,150.756 177.773,145.080 179.798 M281.152 196.032 C 285.791 206.215,274.771 212.498,264.109 205.750 C 260.748 203.623,260.861 202.184,264.867 196.070 C 270.855 186.932,276.999 186.917,281.152 196.032 " stroke="none" fill="#000000" fill-rule="evenodd"></path></g></svg>