<svg id="svg" xmlns="http://www.w3.org/2000/svg" xmlns:xlink="http://www.w3.org/1999/xlink" width="400" height="298.6666666666667" viewBox="0, 0, 400,298.6666666666667"><g id="svgg"><path id="path0" d="M194.203 25.930 C 182.803 27.134,181.063 28.932,174.614 46.172 C 171.972 53.233,166.485 63.195,162.420 68.310 C 158.355 73.425,154.304 80.915,153.416 84.955 C 152.502 89.116,148.474 94.266,144.121 96.838 C 139.895 99.334,133.290 105.117,129.443 109.690 C 125.595 114.262,122.105 117.552,121.687 117.002 C 121.268 116.451,118.134 111.200,114.721 105.333 C 90.416 63.555,45.741 96.982,31.924 167.285 C 15.176 252.510,56.097 307.078,113.951 276.667 C 130.196 268.127,130.667 268.035,130.667 273.399 C 130.667 283.498,156.091 283.546,169.416 273.473 C 172.957 270.795,181.611 269.411,196.000 269.220 C 207.733 269.065,222.733 268.070,229.333 267.009 C 240.062 265.285,242.261 265.871,250.093 272.540 C 263.499 283.957,285.333 277.598,285.333 262.277 C 285.333 257.761,287.560 257.842,296.000 262.667 C 329.957 282.078,369.500 246.037,369.143 196.000 C 368.699 133.730,346.180 90.591,315.901 94.003 C 304.801 95.255,303.500 94.769,300.041 88.079 C 297.968 84.071,293.383 78.898,289.850 76.584 C 285.381 73.656,281.136 65.481,275.892 49.704 C 270.223 32.652,266.989 26.666,262.844 25.553 C 256.937 23.966,210.388 24.222,194.203 25.930 M259.875 35.095 C 269.561 39.508,268.272 44.637,256.667 47.860 C 237.421 53.204,207.735 49.568,212.160 42.408 C 217.686 33.466,246.580 29.037,259.875 35.095 M233.333 54.550 C 240.667 54.614,250.234 53.677,254.594 52.467 L 262.522 50.267 257.367 55.963 C 252.960 60.833,252.777 62.029,256.106 64.213 C 259.413 66.383,259.220 67.363,254.824 70.717 C 249.814 74.540,249.857 74.665,256.157 74.626 C 266.971 74.558,270.097 71.021,268.200 61.000 L 266.497 52.000 271.972 62.594 C 279.206 76.590,278.099 78.334,258.494 83.835 C 239.842 89.069,215.984 87.740,210.527 81.165 C 208.778 79.057,205.794 77.333,203.896 77.333 C 196.527 77.333,197.474 59.771,204.951 57.784 C 207.908 56.998,207.382 56.518,203.333 56.309 C 200.033 56.139,197.333 54.647,197.333 52.993 C 197.333 50.883,200.718 50.649,208.667 52.210 C 214.900 53.433,226.000 54.486,233.333 54.550 M292.057 88.063 C 298.251 94.907,296.169 96.853,275.449 103.588 C 228.911 118.716,176.034 119.947,172.383 105.987 C 170.301 98.024,171.777 97.356,183.626 100.906 C 201.443 106.244,256.601 101.906,262.667 94.689 C 271.663 83.984,285.535 80.856,292.057 88.063 M100.776 100.176 C 108.860 105.839,116.050 120.742,119.987 140.000 C 121.787 148.800,123.852 156.990,124.577 158.199 C 125.301 159.409,126.277 169.976,126.745 181.682 C 127.212 193.388,129.022 204.685,130.767 206.787 C 135.976 213.064,132.931 246.352,126.334 255.248 C 110.822 276.164,73.043 281.662,56.137 265.464 C 11.697 222.889,53.736 67.229,100.776 100.176 M337.471 108.401 C 352.034 124.114,366.113 189.038,360.362 213.954 C 354.505 239.327,334.970 256.000,311.099 256.000 C 295.280 256.000,289.859 249.934,300.678 244.339 C 341.962 222.990,352.672 143.884,319.227 107.333 L 313.737 101.333 322.329 101.333 C 328.199 101.333,332.997 103.573,337.471 108.401 M313.632 114.292 C 323.374 123.943,327.620 135.053,326.047 146.779 C 325.272 152.555,325.955 157.403,327.695 158.478 C 336.367 163.838,325.342 200.000,315.036 200.000 C 313.018 200.000,306.501 177.361,306.399 170.000 C 306.359 167.094,304.134 165.217,300.501 165.024 C 295.099 164.738,295.062 164.620,300.000 163.432 C 308.043 161.497,311.271 157.512,306.956 154.845 C 304.301 153.204,305.593 152.074,311.645 150.745 C 320.176 148.871,323.280 144.000,315.943 144.000 C 313.711 144.000,291.537 147.600,266.667 152.000 C 241.796 156.400,220.582 160.000,219.524 160.000 C 218.466 160.000,218.819 161.219,220.308 162.708 C 222.141 164.541,229.723 164.484,243.774 162.529 C 264.796 159.605,274.844 160.539,257.458 163.801 C 240.995 166.889,246.327 171.384,264.018 169.331 C 278.031 167.705,279.831 168.004,278.404 171.724 C 277.009 175.359,278.494 175.739,288.661 174.345 C 301.613 172.570,303.877 175.267,303.964 192.573 C 304.069 213.531,225.273 217.693,204.341 197.835 C 192.708 186.799,185.543 185.123,178.803 191.864 C 168.683 201.984,175.451 227.147,192.645 243.331 L 201.333 251.509 193.333 249.619 C 142.686 237.652,130.740 179.685,169.443 133.689 C 176.394 125.428,176.756 125.333,201.286 125.333 C 225.093 125.333,279.078 114.591,292.214 107.240 C 298.464 103.743,305.232 105.971,313.632 114.292 M71.107 123.333 C 47.117 155.330,35.978 207.684,47.679 233.444 C 57.690 255.482,82.796 266.450,94.253 253.790 C 101.383 245.911,99.629 240.833,92.191 247.821 C 79.663 259.590,57.066 241.926,53.353 217.464 C 49.760 193.785,62.939 142.906,77.442 124.468 C 83.242 117.094,83.909 114.667,80.136 114.667 C 78.744 114.667,74.681 118.567,71.107 123.333 M187.260 158.818 C 172.934 168.852,185.730 186.001,201.698 178.169 C 210.346 173.926,211.220 163.816,203.439 158.000 C 197.601 153.635,194.431 153.795,187.260 158.818 M70.531 177.248 C 64.195 192.410,67.615 213.333,76.428 213.333 C 80.715 213.333,81.056 210.122,77.181 206.247 C 75.630 204.697,74.730 196.957,75.181 189.047 C 76.689 162.573,86.252 173.614,97.371 214.667 C 100.387 225.801,101.011 226.651,101.158 219.817 C 101.554 201.349,85.981 168.000,76.960 168.000 C 75.549 168.000,72.656 172.161,70.531 177.248 M195.007 199.079 C 197.387 201.948,198.354 208.369,197.773 217.448 C 197.253 225.570,198.089 232.152,199.773 233.193 C 201.692 234.379,202.667 230.886,202.667 222.824 C 202.667 209.033,202.472 209.133,217.911 215.029 C 228.984 219.258,229.333 219.752,229.333 231.186 C 229.333 238.371,230.376 242.337,232.000 241.333 C 233.467 240.427,234.667 234.956,234.667 229.176 L 234.667 218.667 252.212 218.667 L 269.757 218.667 268.872 232.667 L 267.988 246.667 246.660 247.504 C 212.517 248.846,197.354 242.119,186.407 220.773 C 176.691 201.828,183.351 185.028,195.007 199.079 M312.835 220.679 C 301.002 235.309,294.943 235.783,300.497 221.644 C 303.705 213.476,306.344 210.749,311.681 210.085 C 321.720 208.836,321.802 209.591,312.835 220.679 M298.667 211.665 C 298.667 212.214,296.920 217.614,294.785 223.665 C 292.650 229.716,291.597 234.667,292.445 234.667 C 297.653 234.667,286.367 242.301,279.716 243.277 C 272.555 244.328,271.780 243.815,273.099 238.901 C 273.921 235.839,274.610 229.553,274.630 224.932 C 274.663 217.484,275.802 216.228,284.667 213.874 C 296.713 210.674,298.667 210.366,298.667 211.665 " stroke="none" fill="#000000" fill-rule="evenodd"></path></g></svg>