<svg id="svg" xmlns="http://www.w3.org/2000/svg" xmlns:xlink="http://www.w3.org/1999/xlink" width="400" height="380.327868852459" viewBox="0, 0, 400,380.327868852459"><g id="svgg"><path id="path0" d="M129.090 22.193 C 72.786 59.449,46.833 91.488,50.701 118.963 C 53.527 139.032,53.495 141.325,50.111 160.375 C 47.816 173.299,46.555 174.891,38.333 175.246 C 11.374 176.409,24.892 232.787,52.129 232.787 C 62.286 232.787,64.451 241.766,56.159 249.492 C 36.063 268.213,71.853 297.017,94.114 280.038 C 111.182 267.020,123.441 274.316,121.965 296.615 C 120.670 316.189,151.046 328.763,160.184 312.436 C 162.763 307.827,163.943 309.167,166.867 320.026 C 175.738 352.969,214.185 363.512,261.079 345.861 C 313.411 326.163,327.242 306.044,310.920 273.362 C 304.255 260.016,304.152 258.740,309.281 253.073 C 315.721 245.956,316.500 233.950,310.656 231.885 C 303.608 229.396,316.998 209.036,331.626 200.000 C 353.788 186.311,362.536 155.988,349.890 136.689 C 344.019 127.728,347.151 108.149,356.064 98.102 C 368.598 83.974,356.340 63.516,339.265 70.068 C 335.759 71.414,332.588 68.318,328.710 59.766 C 313.554 26.344,306.195 23.440,275.791 38.890 C 259.569 47.134,252.836 48.458,220.317 49.797 L 183.307 51.322 171.515 32.219 C 157.649 9.754,150.458 8.054,129.090 22.193 M250.968 111.715 C 256.543 120.736,242.594 112.226,232.787 100.622 L 221.311 87.045 235.200 97.860 C 242.839 103.809,249.935 110.043,250.968 111.715 M331.148 141.151 C 331.148 145.045,312.974 153.307,297.677 156.366 C 283.547 159.192,288.449 152.027,306.142 143.993 C 321.309 137.106,331.148 135.987,331.148 141.151 M189.633 159.016 C 193.849 162.623,199.751 165.628,202.748 165.695 C 217.010 166.012,242.623 171.437,242.623 174.141 C 242.623 175.809,246.466 176.210,251.162 175.031 C 261.936 172.327,297.082 180.315,291.103 184.109 C 270.346 197.278,206.993 183.278,182.618 160.135 C 166.635 144.959,172.169 144.077,189.633 159.016 M154.098 151.381 C 154.098 155.958,144.413 167.213,140.475 167.213 C 136.075 167.213,137.264 151.544,141.803 149.712 C 149.094 146.770,154.098 147.450,154.098 151.381 M168.852 162.340 C 168.852 171.565,159.104 170.592,158.637 161.320 C 158.371 156.039,159.841 154.092,163.555 154.807 C 166.469 155.368,168.852 158.758,168.852 162.340 M342.856 175.515 C 339.940 179.965,336.055 183.607,334.223 183.607 C 332.391 183.607,333.900 180.378,337.577 176.431 C 341.254 172.484,344.379 166.952,344.521 164.136 C 344.700 160.602,345.303 160.318,346.469 163.220 C 347.398 165.532,345.772 171.064,342.856 175.515 M203.279 168.612 C 203.279 169.928,222.643 180.328,225.094 180.328 C 230.517 180.328,224.080 173.663,215.904 170.813 C 204.397 166.801,203.279 166.606,203.279 168.612 M310.256 206.093 C 307.458 209.186,302.879 217.194,300.081 223.890 C 295.222 235.520,288.525 240.350,288.525 232.225 C 288.525 230.113,286.025 225.624,282.971 222.248 C 278.277 217.062,278.212 216.416,282.548 218.080 C 285.651 219.271,288.508 217.887,289.778 214.577 C 291.385 210.390,290.550 209.615,286.221 211.277 C 282.450 212.724,283.258 210.873,288.643 205.726 C 293.086 201.480,297.266 198.384,297.931 198.847 C 298.597 199.309,301.415 197.414,304.195 194.634 C 311.759 187.070,317.555 198.028,310.256 206.093 M328.209 197.692 C 324.001 201.901,319.734 198.648,322.849 193.607 C 324.056 191.655,326.545 190.985,328.381 192.120 C 330.620 193.504,330.564 195.338,328.209 197.692 M168.922 202.855 C 184.332 209.855,208.402 235.457,219.834 257.006 C 228.756 273.824,234.677 276.978,231.303 263.115 C 228.727 252.529,215.777 231.608,203.927 218.887 C 193.171 207.340,195.456 205.458,213.394 211.091 C 259.994 225.724,304.417 262.248,310.085 290.591 C 314.471 312.521,264.318 344.343,233.292 339.316 C 224.899 337.956,214.723 336.881,210.677 336.926 C 206.632 336.971,204.034 335.857,204.904 334.450 C 208.164 329.173,196.513 322.950,192.978 328.080 C 190.616 331.508,190.334 330.671,191.940 324.999 C 193.163 320.680,192.841 318.017,191.218 319.021 C 187.877 321.085,186.953 314.709,186.565 286.911 C 186.415 276.106,185.409 265.838,184.331 264.094 C 183.253 262.350,182.761 254.592,183.237 246.855 C 183.753 238.467,182.678 232.787,180.576 232.787 C 178.636 232.787,177.341 231.680,177.699 230.328 C 179.164 224.781,173.057 213.169,169.749 215.213 C 167.681 216.491,167.142 215.883,168.456 213.756 C 169.793 211.592,165.661 207.440,158.307 203.558 C 142.740 195.343,151.157 194.785,168.922 202.855 M137.705 254.098 C 137.705 256.831,134.791 259.016,131.148 259.016 C 123.891 259.016,122.264 253.944,128.689 251.352 C 135.823 248.473,137.705 249.046,137.705 254.098 " stroke="none" fill="#000000" fill-rule="evenodd"></path></g></svg>