<svg id="svg" xmlns="http://www.w3.org/2000/svg" xmlns:xlink="http://www.w3.org/1999/xlink" width="400" height="312.67605633802816" viewBox="0, 0, 400,312.67605633802816"><g id="svgg"><path id="path0" d="M222.960 15.593 C 219.755 19.667,216.386 25.355,215.473 28.233 C 213.787 33.544,199.807 34.798,192.630 30.281 C 190.900 29.192,187.337 30.676,184.711 33.578 C 181.029 37.646,177.395 38.513,168.841 37.366 C 161.921 36.438,157.746 37.010,157.746 38.887 C 157.746 40.542,153.636 42.294,148.611 42.779 C 141.884 43.429,138.502 45.704,135.781 51.408 C 133.749 55.669,130.151 59.155,127.784 59.155 C 121.269 59.155,98.691 82.275,98.638 89.000 C 98.612 92.246,96.056 97.196,92.958 100.000 C 89.859 102.804,87.284 107.754,87.234 111.000 C 87.185 114.246,85.284 119.362,83.009 122.369 C 80.734 125.377,78.873 130.348,78.873 133.416 C 78.873 137.404,76.509 135.425,70.581 126.475 C 53.244 100.301,42.254 95.558,42.254 114.251 C 42.254 122.035,41.155 123.944,36.673 123.944 C 28.837 123.944,26.523 135.555,32.122 146.780 C 37.867 158.295,38.069 157.746,28.081 157.746 C 11.789 157.746,14.713 175.245,33.072 187.618 C 41.775 193.482,41.891 193.821,36.779 198.448 C 26.246 207.980,30.847 236.620,42.912 236.620 C 47.745 236.620,48.270 237.920,46.738 246.089 C 41.461 274.218,88.477 253.659,104.333 220.905 L 110.363 208.449 115.541 214.788 C 120.633 221.021,120.594 221.229,113.177 227.212 C 103.852 234.735,106.664 238.843,116.657 232.295 C 126.670 225.734,126.731 233.019,116.741 242.404 C 112.469 246.417,110.069 251.203,110.843 254.163 C 111.561 256.909,111.000 259.155,109.595 259.155 C 108.191 259.155,107.042 260.564,107.042 262.285 C 107.042 264.320,110.396 264.787,116.625 263.618 C 123.165 262.391,127.478 263.092,130.212 265.826 C 136.439 272.053,148.641 268.088,157.006 257.121 C 163.294 248.877,164.950 248.004,167.552 251.563 C 169.541 254.283,173.357 255.265,178.277 254.324 C 187.061 252.645,189.231 259.836,181.284 264.284 C 172.577 269.157,185.032 281.454,196.761 279.565 C 203.046 278.552,206.987 279.322,208.562 281.871 C 211.605 286.794,224.503 273.630,225.850 264.226 C 226.605 258.960,230.026 257.021,245.871 252.880 C 287.090 242.106,311.945 223.162,328.307 190.048 C 337.743 170.949,338.881 163.380,332.317 163.380 C 330.907 163.380,330.484 165.282,331.376 167.606 C 332.460 170.431,331.256 171.831,327.740 171.831 C 324.848 171.831,320.750 174.605,318.633 177.995 C 314.904 183.965,314.662 183.992,310.913 178.865 C 305.831 171.914,305.991 166.197,311.268 166.197 C 313.592 166.197,315.493 165.153,315.493 163.877 C 315.493 162.601,320.246 160.383,326.056 158.948 C 334.298 156.912,337.754 154.017,341.781 145.775 C 345.627 137.904,348.679 135.211,353.753 135.211 C 360.858 135.211,363.122 130.900,357.075 128.884 C 354.303 127.960,354.303 126.152,357.075 120.066 C 361.838 109.613,361.463 94.394,356.338 90.141 C 353.711 87.960,352.096 81.705,352.070 73.599 C 351.989 49.377,342.669 47.140,330.986 68.539 C 324.524 80.374,322.406 81.252,320.245 72.987 C 319.066 68.479,317.307 67.544,312.736 68.995 C 303.677 71.870,294.712 64.284,286.385 46.698 C 277.457 27.842,271.982 26.769,265.275 42.563 C 259.397 56.403,257.189 54.849,243.662 27.344 C 233.783 7.256,230.834 5.582,222.960 15.593 M238.811 26.881 C 246.480 46.828,267.205 69.198,272.623 63.376 C 273.737 62.180,273.063 60.635,271.127 59.943 C 266.377 58.246,266.669 47.414,271.647 40.679 C 275.486 35.485,275.923 35.776,280.354 46.479 C 282.920 52.676,288.921 61.831,293.690 66.823 C 303.488 77.079,301.153 96.528,289.766 99.506 C 285.178 100.705,284.507 103.792,284.507 123.680 C 284.507 152.027,289.557 153.928,290.819 126.056 C 291.743 105.668,291.751 105.649,295.785 114.789 C 300.017 124.374,305.588 127.527,303.253 119.014 C 298.107 100.257,298.755 94.362,307.047 84.507 L 315.341 74.648 315.417 88.194 C 315.464 96.491,316.585 101.066,318.310 100.000 C 319.859 99.042,321.127 95.934,321.127 93.093 C 321.127 90.251,322.997 87.209,325.284 86.331 C 327.570 85.454,332.146 78.980,335.453 71.946 C 338.760 64.911,342.458 59.155,343.671 59.155 C 349.611 59.155,351.357 84.354,346.332 97.569 C 343.394 105.298,343.418 105.319,349.149 100.133 C 354.864 94.961,354.930 95.004,354.930 103.929 C 354.930 121.068,348.519 128.551,332.177 130.487 C 313.972 132.643,305.253 138.204,302.838 149.200 C 300.843 158.284,293.016 161.124,292.872 152.817 C 292.791 148.122,292.650 148.122,289.915 152.817 C 288.336 155.528,285.622 157.746,283.885 157.746 C 282.147 157.746,278.575 159.693,275.946 162.072 C 271.563 166.038,271.019 165.659,269.387 157.500 C 267.935 150.240,266.877 149.210,263.635 151.901 C 260.518 154.488,258.843 154.107,255.860 150.134 C 244.670 135.232,241.006 134.082,199.579 132.472 L 160.087 130.938 150.466 120.440 C 140.527 109.595,138.018 101.408,144.634 101.408 C 146.718 101.408,150.717 103.944,153.521 107.042 C 159.197 113.315,165.948 114.939,160.860 108.808 C 159.094 106.680,158.434 102.895,159.393 100.396 C 160.592 97.270,158.999 95.040,154.286 93.249 C 145.825 90.032,135.548 66.142,140.497 61.194 C 145.829 55.861,175.012 77.990,181.468 92.262 C 187.153 104.830,192.145 108.520,189.433 98.151 C 188.345 93.989,188.872 92.711,191.106 94.092 C 195.592 96.865,195.042 92.679,190.051 86.081 C 184.168 78.303,184.791 70.423,191.288 70.423 C 197.836 70.423,222.535 97.201,222.535 104.300 C 222.535 107.104,223.345 111.510,224.336 114.090 C 226.653 120.128,230.879 114.268,230.943 104.930 C 231.034 91.480,247.546 102.831,259.956 124.874 C 264.143 132.312,264.677 132.627,263.156 126.761 C 258.289 107.994,243.124 91.596,232.511 93.625 C 228.220 94.445,224.013 93.329,221.929 90.819 C 218.425 86.597,216.414 67.620,219.468 67.588 C 220.380 67.579,221.376 58.114,221.681 46.556 C 222.543 13.897,230.365 4.913,238.811 26.881 M203.719 52.440 C 209.056 58.699,211.367 64.202,210.761 69.208 L 209.859 76.660 196.479 64.851 C 181.795 51.892,181.733 51.743,186.203 40.324 C 189.115 32.886,189.508 32.727,192.541 37.759 C 194.320 40.709,199.349 47.316,203.719 52.440 M211.268 43.662 C 211.268 51.947,209.084 52.575,203.921 45.775 C 198.689 38.882,199.112 36.620,205.634 36.620 C 209.765 36.620,211.268 38.498,211.268 43.662 M176.820 47.361 C 177.506 49.420,176.218 50.049,173.475 48.996 C 171.021 48.055,169.014 46.047,169.014 44.534 C 169.014 40.832,175.416 43.150,176.820 47.361 M169.348 53.819 C 171.855 55.095,174.708 55.339,175.686 54.361 C 176.664 53.383,177.465 54.830,177.465 57.578 C 177.465 60.862,178.913 62.019,181.690 60.953 C 187.684 58.653,186.924 63.003,180.282 69.014 C 177.183 71.818,174.648 72.773,174.648 71.135 C 174.648 69.497,170.585 66.740,165.618 65.009 C 152.991 60.607,143.183 53.758,145.090 50.673 C 146.778 47.941,161.570 49.859,169.348 53.819 M136.958 80.204 C 141.334 86.459,142.154 95.775,138.330 95.775 C 130.062 95.775,134.659 121.942,143.785 126.827 C 148.985 129.610,151.728 135.896,147.183 134.616 C 143.079 133.460,125.886 138.093,127.668 139.874 C 128.662 140.868,139.639 141.413,152.061 141.084 C 172.618 140.541,174.648 140.970,174.648 145.863 C 174.648 166.204,231.984 172.089,240.041 152.576 C 242.761 145.990,243.296 145.739,244.413 150.526 C 245.253 154.125,242.803 158.437,237.212 163.202 C 222.647 175.612,219.899 185.915,231.154 185.915 C 233.829 185.915,236.747 187.817,237.638 190.141 C 238.530 192.465,241.201 194.366,243.574 194.366 C 245.946 194.366,247.887 195.634,247.887 197.183 C 247.887 198.732,249.789 200.000,252.113 200.000 C 259.024 200.000,256.915 194.446,248.837 191.375 C 243.136 189.207,242.122 187.737,244.612 185.247 C 250.300 179.559,248.184 176.952,239.437 178.873 C 228.659 181.240,228.790 179.153,240.064 168.855 C 250.873 158.983,252.385 158.733,254.411 166.481 C 255.263 169.735,257.218 171.619,258.758 170.668 C 260.404 169.651,262.313 175.046,263.391 183.765 C 265.209 198.453,262.303 211.806,256.512 215.386 C 250.926 218.838,253.491 222.535,261.470 222.535 C 282.997 222.535,309.859 206.373,309.859 193.421 C 309.859 188.728,311.815 186.061,316.074 184.947 C 325.386 182.512,325.530 184.628,316.953 197.830 C 274.700 262.865,157.955 265.512,114.949 202.411 C 104.080 186.463,100.481 185.117,102.856 197.887 C 107.128 220.849,89.408 236.865,74.196 223.793 C 67.864 218.353,66.140 217.965,62.860 221.245 C 60.733 223.372,57.127 224.397,54.848 223.523 C 52.260 222.530,50.704 223.632,50.704 226.459 C 50.704 231.414,40.870 232.768,38.048 228.201 C 37.044 226.577,38.237 226.149,40.910 227.175 C 44.287 228.471,45.252 227.536,44.578 223.622 C 43.937 219.904,45.564 218.040,50.000 217.410 C 57.561 216.336,57.640 215.873,51.779 206.929 C 47.998 201.158,47.847 199.217,50.894 195.546 C 53.918 191.902,53.904 190.710,50.817 188.802 C 48.754 187.527,47.845 184.455,48.797 181.974 C 51.012 176.203,46.135 176.063,42.921 181.806 C 40.801 185.594,39.527 185.389,32.922 180.193 C 23.856 173.062,22.741 163.380,30.986 163.380 C 34.116 163.380,36.620 165.258,36.620 167.606 C 36.620 169.930,38.521 171.831,40.845 171.831 C 43.169 171.831,45.070 170.682,45.070 169.278 C 45.070 167.874,47.671 167.405,50.850 168.236 C 55.893 169.555,56.392 168.803,54.770 162.338 C 53.577 157.584,54.061 154.930,56.121 154.930 C 61.925 154.930,62.904 163.858,58.009 172.145 C 55.366 176.620,54.345 180.282,55.742 180.282 C 58.989 180.282,66.230 171.886,68.498 165.493 C 71.513 156.990,75.772 160.127,74.235 169.718 C 72.698 179.317,89.676 204.068,94.537 199.313 C 95.715 198.161,94.311 194.600,91.416 191.402 C 87.387 186.950,86.855 184.471,89.149 180.835 C 91.395 177.274,91.117 175.331,88.037 173.079 C 84.439 170.449,84.458 167.991,88.186 153.355 C 91.368 140.861,91.619 136.112,89.180 134.568 C 86.802 133.063,87.254 130.130,90.845 123.769 C 93.556 118.966,95.775 112.642,95.775 109.715 C 95.775 106.789,99.585 101.577,104.243 98.133 C 109.791 94.031,112.190 90.230,111.200 87.110 C 110.147 83.792,112.705 80.568,119.633 76.480 C 125.102 73.253,129.725 68.985,129.904 66.996 C 130.084 65.008,130.870 65.915,131.651 69.014 C 132.432 72.113,134.821 77.148,136.958 80.204 M108.941 98.049 C 106.384 100.875,103.653 107.540,102.872 112.861 L 101.451 122.535 106.123 111.746 C 110.503 101.631,111.382 101.067,120.186 102.719 C 126.224 103.852,129.577 103.370,129.577 101.370 C 129.577 99.659,128.230 99.092,126.583 100.110 C 124.936 101.128,121.339 99.924,118.590 97.436 C 113.986 93.270,113.222 93.319,108.941 98.049 M111.469 125.553 C 109.034 127.988,107.042 132.476,107.042 135.527 C 107.042 138.577,104.296 144.788,100.938 149.329 C 94.209 158.431,96.564 175.035,105.910 184.381 C 114.081 192.552,115.710 188.752,108.552 178.219 C 101.463 167.786,99.102 153.870,103.917 150.895 C 105.297 150.042,108.495 152.502,111.024 156.362 C 113.554 160.222,116.890 163.380,118.440 163.380 C 119.989 163.380,119.244 160.308,116.783 156.553 C 109.225 145.018,112.238 128.143,121.831 128.280 C 126.334 128.345,129.577 126.870,129.577 124.759 C 129.577 119.663,116.799 120.223,111.469 125.553 M60.490 132.776 C 58.912 140.970,56.338 143.062,56.338 136.150 C 56.338 131.227,58.494 126.761,60.871 126.761 C 61.299 126.761,61.127 129.467,60.490 132.776 M337.383 143.134 C 338.005 145.002,335.907 146.479,332.629 146.479 C 326.777 146.479,325.024 143.521,328.697 139.847 C 331.307 137.238,336.010 139.017,337.383 143.134 M73.239 149.462 C 73.239 152.469,71.338 154.930,69.014 154.930 C 64.471 154.930,63.794 152.349,66.492 145.317 C 68.692 139.584,73.239 142.377,73.239 149.462 M236.620 146.313 C 236.620 147.770,235.291 149.784,233.668 150.788 C 229.534 153.343,221.805 149.939,223.931 146.499 C 226.147 142.914,236.620 142.760,236.620 146.313 M296.985 168.795 C 310.569 183.806,305.038 200.874,283.700 209.790 C 270.158 215.448,270.465 213.852,284.735 204.409 C 291.886 199.676,295.659 195.311,294.717 192.857 C 293.885 190.688,294.416 188.164,295.898 187.248 C 300.093 184.655,299.102 180.663,292.958 175.403 C 287.260 170.524,285.327 163.380,289.704 163.380 C 291.013 163.380,294.290 165.817,296.985 168.795 M147.183 174.736 C 140.288 177.507,138.742 186.360,144.366 190.860 C 149.826 195.228,160.563 197.880,160.563 194.861 C 160.563 193.376,157.310 191.344,153.334 190.346 C 143.245 187.813,145.553 180.214,157.746 175.816 C 166.220 172.760,166.616 172.255,160.563 172.224 C 156.690 172.204,150.669 173.335,147.183 174.736 M189.543 192.992 C 178.149 204.386,180.285 212.788,193.718 209.417 C 198.478 208.222,201.910 209.021,203.959 211.802 C 208.424 217.859,239.874 221.319,237.644 215.508 C 236.581 212.737,232.217 211.268,225.051 211.268 C 212.942 211.268,211.637 209.632,219.014 203.699 C 223.402 200.170,222.861 199.956,214.085 201.755 C 188.778 206.941,182.198 201.352,199.712 189.549 C 206.193 185.181,207.694 183.099,204.360 183.099 C 201.652 183.099,194.984 187.551,189.543 192.992 M62.535 189.296 C 55.513 196.318,68.726 216.901,80.256 216.901 C 86.941 216.901,85.218 211.761,78.198 210.759 C 74.547 210.238,71.442 207.485,70.830 204.225 C 70.247 201.127,68.414 197.737,66.757 196.694 C 64.685 195.389,64.894 193.408,67.427 190.356 C 71.712 185.193,67.542 184.289,62.535 189.296 M138.117 214.250 C 137.891 225.388,160.010 236.900,180.282 236.195 C 187.730 235.936,188.418 235.562,183.099 234.664 C 179.225 234.011,172.062 231.648,167.180 229.414 C 162.298 227.180,156.382 225.352,154.035 225.352 C 151.687 225.352,147.165 221.866,143.986 217.606 C 140.120 212.424,138.177 211.313,138.117 214.250 M76.056 230.986 C 76.056 232.535,77.958 233.803,80.282 233.803 C 82.606 233.803,84.507 235.026,84.507 236.521 C 84.507 240.802,72.511 246.276,65.094 245.378 C 59.929 244.753,58.758 245.608,60.076 249.042 C 61.188 251.940,60.265 253.521,57.462 253.521 C 50.296 253.521,53.804 241.005,61.268 239.945 C 67.528 239.056,70.397 233.803,64.622 233.803 C 62.982 233.803,62.423 232.535,63.380 230.986 C 64.338 229.437,67.582 228.169,70.589 228.169 C 73.596 228.169,76.056 229.437,76.056 230.986 M142.095 238.123 C 149.602 243.801,139.757 258.218,129.232 256.961 C 118.405 255.669,117.049 251.739,124.275 242.600 C 131.914 232.941,134.413 232.313,142.095 238.123 M154.930 248.732 C 154.930 253.469,149.209 259.155,144.442 259.155 C 141.587 259.155,141.795 257.507,145.329 252.113 C 150.324 244.489,154.930 242.868,154.930 248.732 M205.125 262.676 C 204.435 267.537,202.087 269.220,195.049 269.898 C 186.138 270.757,185.967 270.574,189.163 263.560 C 193.577 253.872,206.477 253.157,205.125 262.676 M219.930 259.930 C 219.813 261.053,219.718 263.873,219.718 266.197 C 219.718 268.521,217.817 270.423,215.493 270.423 C 211.232 270.423,209.614 261.748,213.204 258.157 C 215.534 255.827,220.226 257.064,219.930 259.930 " stroke="none" fill="#000000" fill-rule="evenodd"></path></g></svg>