<svg id="svg" xmlns="http://www.w3.org/2000/svg" xmlns:xlink="http://www.w3.org/1999/xlink" width="400" height="326.7175572519084" viewBox="0, 0, 400,326.7175572519084"><g id="svgg"><path id="path0" d="M293.101 25.191 C 269.103 41.529,258.508 64.008,279.531 53.982 C 293.353 47.391,302.057 47.468,304.120 54.198 C 305.020 57.137,308.412 65.418,311.657 72.601 C 318.752 88.303,318.802 88.836,312.977 86.600 C 310.458 85.634,308.397 82.960,308.397 80.660 C 308.397 74.056,296.051 67.724,278.752 65.455 C 270.004 64.307,263.062 62.508,263.326 61.455 C 267.639 44.242,242.987 37.377,235.541 53.718 C 232.006 61.478,230.682 61.372,216.990 52.243 C 213.374 49.832,213.300 48.485,216.568 44.546 C 236.863 20.093,163.216 31.159,122.151 58.734 C 111.485 65.896,100.249 73.112,97.181 74.770 C 88.661 79.374,90.411 85.308,104.140 98.368 C 111.036 104.928,116.188 110.723,115.591 111.247 C 114.993 111.772,110.038 114.472,104.580 117.247 C 97.925 120.632,94.634 124.531,94.589 129.086 C 94.551 132.822,91.929 139.250,88.762 143.371 L 83.004 150.864 80.868 136.619 C 79.693 128.784,77.849 106.176,76.770 86.378 C 74.581 46.199,69.643 39.727,56.552 59.880 C 53.158 65.104,47.673 70.600,44.363 72.094 C 38.586 74.700,35.644 81.079,27.395 108.896 C 18.760 138.009,47.303 180.480,79.389 186.263 L 90.076 188.189 77.863 194.153 C 62.613 201.598,58.616 231.883,72.846 232.158 C 75.605 232.212,80.530 234.273,83.790 236.738 C 87.050 239.204,92.202 241.221,95.240 241.221 C 98.278 241.221,100.763 243.316,100.763 245.877 C 100.763 248.438,103.911 251.730,107.759 253.193 C 111.607 254.655,116.584 258.057,118.820 260.751 C 121.056 263.445,125.307 265.649,128.267 265.649 C 131.227 265.649,135.900 269.084,138.651 273.282 C 141.401 277.481,145.824 280.916,148.478 280.916 C 151.946 280.916,150.472 277.694,143.240 269.466 C 137.704 263.168,131.292 258.004,128.990 257.991 C 126.688 257.977,122.332 254.688,119.310 250.682 C 116.288 246.675,112.396 244.273,110.663 245.345 C 105.022 248.831,103.494 237.478,108.814 231.601 C 116.050 223.604,112.718 222.045,99.869 227.414 C 92.926 230.314,88.187 230.892,87.006 228.980 C 85.977 227.316,82.469 225.954,79.209 225.954 C 72.029 225.954,71.358 220.394,78.221 217.761 C 82.371 216.168,82.045 215.269,76.182 212.131 L 69.204 208.397 76.587 204.579 C 94.426 195.352,104.236 185.863,100.539 181.410 C 97.929 178.264,97.869 176.007,100.317 173.057 C 102.759 170.114,102.734 168.078,100.226 165.570 C 97.668 163.012,98.866 161.174,104.879 158.435 C 115.050 153.801,115.411 148.862,105.484 150.163 C 94.701 151.576,95.055 146.027,106.202 138.931 C 117.635 131.653,118.355 129.004,109.257 127.693 C 102.751 126.756,102.828 126.493,111.211 121.023 C 119.696 115.488,120.397 115.485,136.393 120.922 L 152.847 126.515 150.842 140.357 C 149.738 147.970,148.373 154.723,147.808 155.363 C 145.668 157.787,153.064 167.939,156.969 167.939 C 159.368 167.939,161.854 172.954,162.996 180.100 C 164.282 188.143,167.405 193.876,172.217 197.029 C 181.100 202.850,183.971 215.562,178.737 225.899 C 174.741 233.793,174.148 254.555,177.814 258.221 C 181.839 262.246,194.385 256.506,205.199 245.691 C 211.838 239.053,216.979 235.996,218.195 237.965 C 224.850 248.732,238.799 228.441,243.059 201.795 L 244.883 190.388 262.136 191.596 C 286.350 193.293,286.021 193.033,288.438 212.381 C 290.333 227.547,289.749 231.003,283.972 238.818 C 275.180 250.710,279.330 254.355,288.944 243.185 C 294.830 236.345,298.402 234.747,305.478 235.786 C 316.373 237.385,317.585 232.951,306.980 230.289 C 299.190 228.334,297.837 225.834,294.573 207.369 C 292.826 197.483,299.583 181.842,310.178 171.247 C 310.966 170.459,311.231 177.981,310.767 187.961 C 309.952 205.506,310.176 206.107,317.557 206.107 C 324.340 206.107,325.361 207.635,326.718 219.821 C 329.399 243.911,357.252 231.941,357.252 206.698 C 357.252 198.533,358.709 195.751,363.662 194.456 C 372.355 192.182,369.180 172.529,356.893 152.559 C 351.714 144.143,348.092 133.974,348.092 127.852 C 348.092 121.746,344.892 112.740,340.348 106.052 L 332.604 94.656 344.572 94.656 C 366.990 94.656,361.311 72.748,329.683 37.226 C 311.136 16.395,307.688 15.261,293.101 25.191 M207.650 44.255 C 203.527 49.223,173.388 67.176,169.171 67.176 C 166.925 67.176,207.210 40.458,210.298 39.900 C 210.923 39.787,209.731 41.747,207.650 44.255 M65.773 107.619 C 63.186 111.313,61.162 117.122,61.275 120.527 C 61.470 126.368,61.669 126.330,64.795 119.847 C 67.998 113.206,73.019 110.575,73.534 115.267 C 73.672 116.527,74.243 120.992,74.803 125.191 C 75.363 129.389,76.582 140.227,77.511 149.274 C 78.440 158.321,81.445 168.203,84.189 171.234 C 92.219 180.108,88.324 183.139,74.809 178.534 C 53.558 171.293,21.891 123.656,31.765 113.782 C 35.341 110.207,42.748 122.292,42.748 131.701 C 42.748 136.319,44.337 141.079,46.278 142.279 C 51.048 145.227,47.775 125.197,41.398 112.414 C 35.208 100.006,35.369 88.671,41.868 79.393 L 47.094 71.931 49.197 79.477 C 50.353 83.627,51.649 93.206,52.077 100.763 C 52.631 110.566,53.403 107.345,54.771 89.523 C 56.203 70.867,58.210 62.857,62.695 57.887 L 68.702 51.232 69.590 76.067 C 70.254 94.620,69.288 102.601,65.773 107.619 M204.015 63.359 C 203.365 66.782,199.718 69.002,193.867 69.535 L 184.733 70.368 191.941 64.192 C 200.802 56.599,205.356 56.285,204.015 63.359 M349.930 75.084 C 354.854 86.868,355.088 88.550,351.804 88.550 C 350.487 88.550,347.098 82.314,344.273 74.693 C 338.465 59.022,343.360 59.361,349.930 75.084 M301.529 147.328 C 299.843 152.396,275.651 161.517,264.122 161.432 C 256.041 161.372,257.119 160.341,273.282 152.672 C 293.175 143.233,303.544 141.272,301.529 147.328 M319.385 243.065 C 318.351 245.758,315.542 247.208,313.142 246.287 C 310.306 245.199,308.443 246.949,307.824 251.283 C 307.299 254.951,304.257 258.451,301.063 259.061 C 297.869 259.670,292.400 262.829,288.910 266.080 C 285.420 269.332,279.102 272.738,274.870 273.649 C 270.638 274.560,263.053 276.895,258.015 278.837 C 252.977 280.779,247.749 282.016,246.397 281.586 C 245.046 281.156,240.961 282.891,237.321 285.440 C 226.932 292.717,209.757 291.711,212.214 283.969 C 214.974 275.272,208.753 276.369,202.670 285.652 C 198.140 292.567,183.958 302.290,178.404 302.290 C 177.275 302.290,178.237 300.001,180.542 297.203 C 184.836 291.991,178.570 292.295,163.642 298.024 C 157.326 300.448,157.289 293.561,163.572 284.592 C 166.208 280.828,167.889 275.370,167.308 272.462 C 166.514 268.491,164.183 270.200,157.935 279.335 C 147.186 295.050,146.844 305.344,157.072 305.344 C 161.171 305.344,165.358 306.691,166.376 308.338 C 170.505 315.019,192.906 309.973,200.303 300.696 C 207.753 291.353,212.147 292.333,214.284 303.817 C 216.870 317.721,242.507 308.899,278.339 281.775 C 287.837 274.585,296.769 268.702,298.187 268.702 C 302.203 268.702,326.718 245.393,326.718 241.574 C 326.718 236.434,321.524 237.490,319.385 243.065 M245.776 297.070 C 238.413 301.287,219.847 302.950,219.847 299.394 C 219.847 296.729,247.740 290.338,250.356 292.403 C 251.182 293.055,249.121 295.155,245.776 297.070 " stroke="none" fill="#000000" fill-rule="evenodd"></path></g></svg>