<svg id="svg" xmlns="http://www.w3.org/2000/svg" xmlns:xlink="http://www.w3.org/1999/xlink" width="400" height="334.48275862068965" viewBox="0, 0, 400,334.48275862068965"><g id="svgg"><path id="path0" d="M162.485 17.550 C 42.472 38.327,-16.642 189.721,74.420 243.087 C 90.696 252.625,98.556 267.503,94.888 281.830 L 92.442 291.379 87.550 279.246 C 82.029 265.555,67.318 253.328,69.739 264.442 C 70.487 267.878,72.919 270.311,75.144 269.848 C 78.882 269.070,85.198 284.917,82.304 287.811 C 75.762 294.353,61.825 293.105,58.864 285.712 C 55.632 277.642,55.608 277.651,55.391 287.069 C 55.271 292.284,56.336 296.755,57.759 297.004 C 105.909 305.425,130.130 292.328,134.387 255.569 L 136.207 239.852 149.023 252.684 C 162.403 266.081,171.180 268.291,183.847 261.450 C 192.646 256.698,255.124 257.419,260.172 262.330 C 269.908 271.802,293.754 263.689,301.777 248.174 C 304.690 242.540,309.613 237.931,312.717 237.931 C 328.747 237.931,348.032 221.021,344.280 210.255 C 342.292 204.553,341.637 193.318,342.824 185.289 C 350.117 135.961,349.453 121.806,338.787 99.238 C 311.020 40.485,234.583 5.068,162.485 17.550 M252.179 35.900 C 313.871 57.355,349.417 109.143,338.553 161.743 C 333.536 186.034,333.350 205.233,338.046 214.009 C 343.692 224.557,315.396 237.412,300.299 231.158 C 290.184 226.969,285.815 220.690,293.015 220.690 C 299.328 220.690,307.425 199.909,305.149 189.548 C 297.386 154.205,242.495 147.145,225.842 179.348 C 214.845 200.615,220.810 217.947,242.520 227.804 L 256.897 234.331 241.379 234.804 C 208.338 235.811,196.552 232.989,196.552 224.072 C 196.552 220.315,195.000 217.241,193.103 217.241 C 191.207 217.241,189.632 221.509,189.604 226.724 C 189.392 266.420,159.253 263.075,148.583 222.171 L 144.922 208.136 120.593 204.370 C 107.212 202.299,92.375 198.057,87.623 194.943 L 78.982 189.281 89.422 179.528 C 101.147 168.576,107.026 155.759,106.629 142.017 C 106.410 134.415,105.330 135.635,100.595 148.837 C 94.294 166.404,84.322 179.310,77.052 179.310 C 66.031 179.310,74.706 195.925,89.912 203.941 C 119.637 219.610,133.115 251.200,119.852 274.109 C 108.724 293.327,101.114 294.139,102.852 275.923 C 104.536 258.258,97.845 247.713,76.556 234.481 C 49.007 217.357,43.099 204.907,43.128 164.034 C 43.197 64.013,148.110 -0.291,252.179 35.900 M292.423 127.444 C 285.756 132.842,285.122 135.193,288.063 143.605 C 294.932 163.254,326.940 154.565,321.687 134.477 C 318.936 123.956,301.812 119.841,292.423 127.444 M186.897 138.621 C 176.888 148.629,185.660 172.383,199.384 172.437 C 203.349 172.452,201.914 174.707,194.828 179.595 C 185.172 186.255,185.057 186.577,193.103 184.427 C 222.753 176.502,230.006 134.483,201.724 134.483 C 195.845 134.483,189.172 136.345,186.897 138.621 M312.931 164.207 C 302.726 169.565,300.864 172.480,307.759 172.304 C 312.917 172.173,325.984 162.758,323.886 160.684 C 323.076 159.883,318.147 161.468,312.931 164.207 M256.851 178.448 C 268.558 190.987,266.840 200.049,251.724 205.482 C 239.819 209.761,240.365 211.798,253.054 210.446 C 263.548 209.327,282.759 213.823,282.759 217.398 C 282.759 223.234,247.675 221.215,240.789 214.983 C 232.944 207.884,232.439 187.212,239.851 176.629 C 246.547 167.069,246.191 167.031,256.851 178.448 M294.539 183.393 C 299.657 190.700,298.885 205.063,293.027 211.528 C 289.011 215.959,272.414 203.544,272.414 196.108 C 272.414 178.555,285.773 170.877,294.539 183.393 M291.593 237.585 C 287.487 244.228,229.351 253.921,226.012 248.519 C 224.553 246.157,228.462 244.732,236.865 244.563 C 244.089 244.417,256.207 242.252,263.793 239.752 C 280.198 234.345,294.274 233.248,291.593 237.585 " stroke="none" fill="#000000" fill-rule="evenodd"></path></g></svg>