<svg id="svg" xmlns="http://www.w3.org/2000/svg" xmlns:xlink="http://www.w3.org/1999/xlink" width="400" height="326.7175572519084" viewBox="0, 0, 400,326.7175572519084"><g id="svgg"><path id="path0" d="M184.733 50.932 C 181.374 51.684,171.884 54.455,163.643 57.089 C 154.358 60.056,139.261 61.696,123.948 61.399 C 107.051 61.072,92.544 62.857,78.073 67.044 C 58.305 72.764,45.574 79.389,54.351 79.389 C 56.366 79.389,58.015 82.592,58.015 86.505 C 58.015 90.419,61.322 100.153,65.363 108.135 C 72.163 121.567,72.488 124.257,69.723 144.210 C 68.080 156.068,67.489 168.772,68.410 172.441 C 69.648 177.375,67.790 180.807,61.270 185.628 C 31.560 207.593,52.192 250.382,92.493 250.382 C 103.955 250.382,104.244 250.644,102.343 259.303 C 98.571 276.474,127.007 289.615,143.115 278.145 C 153.841 270.508,182.672 275.711,186.467 285.968 C 190.989 298.191,219.378 300.677,230.680 289.839 C 241.636 279.333,245.937 278.718,250.382 287.023 C 253.711 293.243,263.636 294.814,276.991 291.233 C 280.711 290.236,288.105 282.640,293.423 274.352 C 298.741 266.065,307.152 257.185,312.114 254.619 C 322.211 249.397,333.896 226.336,339.365 200.836 C 343.069 183.566,340.068 127.181,335.593 129.947 C 330.440 133.132,332.786 121.299,340.410 105.648 C 358.616 68.271,351.971 60.404,302.680 60.986 C 284.834 61.196,269.441 59.347,254.962 55.252 C 235.126 49.642,200.104 47.488,184.733 50.932 M226.950 58.096 C 277.436 65.395,314.764 99.882,328.259 151.693 C 338.620 191.474,332.129 192.194,319.441 152.672 C 303.255 102.252,290.425 89.732,270.511 104.922 C 227.984 137.358,232.828 234.781,277.896 253.449 C 294.501 260.327,287.538 263.658,256.489 263.689 C 253.969 263.691,244.351 262.748,235.115 261.592 L 218.321 259.492 225.529 265.624 L 232.738 271.756 218.809 271.756 C 201.785 271.756,178.990 267.299,152.690 258.828 L 132.860 252.441 142.668 249.121 C 159.441 243.443,165.961 234.439,152.672 235.305 C 131.605 236.679,122.137 235.244,122.137 230.678 C 122.137 216.950,103.722 199.411,93.448 203.354 C 86.618 205.975,82.164 192.743,80.239 164.122 C 78.448 137.480,78.805 137.099,94.217 149.177 C 108.049 160.015,117.196 164.885,123.718 164.885 C 131.255 164.885,128.343 160.728,111.450 147.375 C 92.162 132.126,72.833 104.323,72.217 90.941 L 71.756 80.916 95.343 80.026 C 116.812 79.215,154.147 85.576,171.756 93.044 C 179.689 96.408,178.357 89.442,170.229 85.062 C 166.450 83.025,154.427 78.937,143.511 75.978 C 132.595 73.018,127.104 70.514,131.307 70.413 C 135.511 70.312,148.560 72.977,160.305 76.336 C 190.769 85.048,199.142 81.761,172.451 71.567 C 164.856 68.667,159.186 65.751,159.849 65.087 C 160.764 64.173,194.415 56.817,204.580 55.309 C 205.420 55.185,215.486 56.439,226.950 58.096 M337.873 72.566 C 339.811 73.800,330.651 74.809,317.519 74.809 C 304.386 74.809,292.610 73.779,291.350 72.519 C 288.388 69.559,333.223 69.604,337.873 72.566 M338.931 81.899 C 338.931 87.689,328.996 112.977,326.721 112.977 C 324.440 112.977,308.397 87.933,308.397 84.373 C 308.397 83.514,313.550 82.272,319.847 81.614 C 326.145 80.955,333.015 80.185,335.115 79.903 C 337.214 79.620,338.931 80.519,338.931 81.899 M294.067 109.272 C 308.336 125.039,324.846 184.067,323.047 212.878 C 320.246 257.707,280.674 258.795,258.372 214.655 C 239.609 177.518,271.260 84.071,294.067 109.272 M192.520 132.640 C 187.529 138.654,189.670 152.850,196.183 156.928 C 208.668 164.746,220.502 141.664,208.625 132.661 C 201.422 127.202,197.038 127.196,192.520 132.640 M294.166 139.109 C 291.766 145.362,300.327 179.631,308.833 197.821 C 318.238 217.934,320.205 205.439,312.006 177.667 C 308.692 166.439,305.087 152.099,303.996 145.802 C 301.944 133.949,297.347 130.819,294.166 139.109 M266.918 144.976 C 264.670 153.935,273.268 207.314,277.668 211.714 C 283.282 217.328,284.893 204.756,281.327 183.161 C 279.422 171.623,277.863 156.607,277.863 149.794 C 277.863 135.583,270.130 132.179,266.918 144.976 M187.023 174.349 C 183.244 175.753,180.153 178.278,180.153 179.958 C 180.153 181.639,182.214 182.224,184.733 181.257 C 187.633 180.144,189.313 181.299,189.313 184.406 C 189.313 189.924,200.251 191.031,207.634 186.260 C 211.348 183.859,210.933 183.291,205.439 183.253 C 200.966 183.222,199.211 181.784,200.271 179.020 C 202.382 173.519,195.646 171.143,187.023 174.349 M65.268 203.205 C 62.196 207.894,59.290 209.930,58.604 207.874 C 57.361 204.143,67.120 191.293,69.436 193.609 C 70.141 194.314,68.265 198.632,65.268 203.205 M85.232 224.100 L 95.201 242.094 85.205 240.095 C 70.792 237.212,63.332 229.518,65.721 219.998 C 67.500 212.910,73.382 203.270,74.708 205.270 C 75.013 205.730,79.749 214.204,85.232 224.100 " stroke="none" fill="#000000" fill-rule="evenodd"></path></g></svg>