<svg id="svg" xmlns="http://www.w3.org/2000/svg" xmlns:xlink="http://www.w3.org/1999/xlink" width="400" height="320.5882352941176" viewBox="0, 0, 400,320.5882352941176"><g id="svgg"><path id="path0" d="M137.959 39.444 C 103.152 52.773,81.134 70.049,76.207 87.898 C 74.147 95.363,68.791 106.103,64.306 111.765 C 32.730 151.622,24.021 252.734,51.101 265.073 C 63.084 270.533,73.909 265.481,93.235 245.409 C 115.253 222.542,114.706 222.618,114.706 242.407 C 114.706 262.080,116.705 267.647,123.769 267.647 C 126.927 267.647,131.250 271.494,133.942 276.700 C 138.383 285.287,138.955 285.519,145.047 281.197 C 181.397 255.410,195.588 253.918,203.989 275.000 C 207.212 283.088,210.151 290.128,210.520 290.645 C 210.890 291.161,213.946 289.864,217.313 287.761 C 222.465 284.544,224.172 284.676,228.095 288.599 C 232.347 292.852,233.958 291.998,246.524 278.834 C 264.833 259.654,280.401 255.341,286.782 267.680 C 297.991 289.357,318.352 294.240,332.630 278.676 C 344.525 265.711,358.824 236.439,358.824 225.054 C 358.824 219.939,360.993 209.386,363.645 201.603 C 371.095 179.739,367.687 139.808,356.376 116.414 C 351.619 106.578,346.874 93.235,345.830 86.765 C 340.439 53.345,336.050 49.947,294.118 46.726 C 277.132 45.421,252.431 43.475,239.225 42.402 C 220.746 40.900,211.983 41.551,201.185 45.231 C 187.586 49.864,186.952 49.820,180.526 43.782 C 172.242 36.001,152.268 33.965,137.959 39.444 M162.633 53.001 C 164.395 59.742,159.467 60.981,156.952 54.429 C 156.025 52.011,154.017 50.806,152.490 51.749 C 150.839 52.770,151.152 55.197,153.262 57.739 C 156.729 61.917,153.478 68.652,147.647 69.372 C 141.675 70.108,135.547 74.500,137.064 76.955 C 138.019 78.500,140.766 77.368,143.170 74.441 C 147.327 69.376,147.436 69.404,145.428 75.000 C 143.495 80.387,140.304 91.945,131.474 125.546 C 129.695 132.318,127.271 137.259,126.087 136.528 C 124.904 135.797,123.084 136.576,122.043 138.260 C 121.003 139.944,121.904 140.959,124.046 140.514 C 128.323 139.627,130.236 155.026,126.162 157.544 C 124.855 158.351,124.173 160.624,124.646 162.594 C 125.119 164.564,124.951 165.184,124.273 163.971 C 121.033 158.176,115.237 162.732,114.164 171.915 C 113.215 180.051,113.748 181.427,116.850 178.853 C 119.014 177.057,119.981 172.905,119.044 169.438 C 117.625 164.191,117.842 163.989,120.452 168.129 C 124.071 173.868,113.709 201.549,109.025 198.654 C 107.493 197.707,106.411 199.276,106.622 202.142 C 106.998 207.236,97.281 224.732,95.221 222.672 C 93.521 220.972,101.262 205.930,103.850 205.905 C 105.159 205.893,105.528 204.747,104.671 203.360 C 103.813 201.973,104.427 196.348,106.034 190.860 C 114.043 163.523,123.696 114.937,123.039 105.272 C 122.632 99.275,123.237 93.429,124.385 92.282 C 125.532 91.135,126.603 92.733,126.764 95.833 C 126.997 100.322,127.588 99.972,129.663 94.118 C 131.754 88.221,132.012 89.095,130.968 98.529 C 129.663 110.328,133.840 107.644,135.547 95.588 C 136.958 85.613,132.109 69.181,129.137 73.873 C 127.113 77.069,126.551 76.795,126.516 72.596 C 126.481 68.478,127.906 67.706,132.721 69.235 C 136.928 70.570,138.314 70.153,136.959 67.962 C 134.992 64.779,140.788 63.307,149.987 64.652 C 153.380 65.149,153.099 63.873,148.759 59.077 C 145.173 55.115,140.908 53.396,137.007 54.341 C 133.226 55.257,133.915 54.398,138.807 52.096 C 151.703 46.030,160.901 46.379,162.633 53.001 M174.993 55.399 C 172.890 57.502,164.706 53.261,164.706 50.067 C 164.706 48.132,166.816 48.327,170.454 50.599 C 173.616 52.574,175.659 54.734,174.993 55.399 M264.907 54.692 C 287.778 61.410,312.103 75.027,325.210 88.450 L 336.535 100.048 330.032 104.602 C 318.156 112.921,325.099 124.703,341.992 124.897 C 349.183 124.979,351.527 126.651,353.735 133.272 C 357.459 144.433,356.938 144.567,336.737 137.646 C 298.299 124.477,237.386 127.476,172.976 145.708 C 158.922 149.686,146.257 152.941,144.833 152.941 C 142.122 152.941,151.323 95.816,156.027 83.442 C 157.719 78.992,163.778 74.138,172.082 70.578 C 179.417 67.434,186.237 62.730,187.236 60.126 C 191.383 49.319,235.990 46.198,264.907 54.692 M175.495 107.278 C 169.559 113.214,172.170 120.135,181.200 122.401 C 192.235 125.171,197.579 121.722,196.521 112.517 C 195.407 102.834,183.024 99.749,175.495 107.278 M311.747 144.320 C 355.265 151.380,367.366 166.715,353.681 197.463 C 341.049 225.842,273.694 267.484,264.495 252.600 C 262.673 249.652,260.561 249.604,254.484 252.373 C 242.749 257.720,220.588 256.992,220.588 251.259 C 220.588 247.216,200.130 247.111,185.294 251.077 C 175.578 253.675,185.783 244.722,196.151 241.552 C 215.405 235.665,205.662 233.955,175.781 237.977 C 129.849 244.158,113.923 240.587,137.589 229.412 C 150.830 223.159,149.304 220.588,132.353 220.588 C 115.034 220.588,115.430 221.872,126.179 200.577 C 130.872 191.281,136.149 178.337,137.906 171.812 L 141.100 159.949 175.697 153.290 C 194.725 149.627,216.912 145.559,225.000 144.249 C 246.660 140.742,289.913 140.777,311.747 144.320 M247.199 174.850 C 240.492 181.990,240.568 191.176,247.334 191.176 C 249.506 191.176,250.128 194.211,249.056 199.571 C 245.761 216.046,261.658 219.846,280.451 207.076 C 287.113 202.549,294.041 200.063,297.483 200.963 C 305.964 203.181,341.282 184.419,336.891 180.028 C 336.328 179.465,333.422 180.258,330.433 181.790 C 311.098 191.704,302.941 194.038,302.941 189.658 C 302.941 183.773,302.762 183.833,285.294 195.588 C 257.818 214.078,248.784 205.670,272.110 183.319 C 285.953 170.056,284.349 166.384,269.118 176.471 C 257.129 184.410,246.919 184.749,253.956 176.974 C 263.956 165.925,257.493 163.893,247.199 174.850 M169.481 257.467 C 167.458 262.738,159.963 262.062,142.647 255.046 C 133.906 251.504,133.974 251.456,150.000 249.953 C 167.797 248.284,172.333 250.034,169.481 257.467 M215.433 258.346 C 216.653 263.012,219.340 263.605,235.113 262.684 C 245.160 262.097,252.737 262.656,251.952 263.927 C 248.795 269.036,214.346 268.233,208.467 262.913 C 204.117 258.976,203.672 257.234,206.548 255.409 C 212.172 251.839,213.879 252.403,215.433 258.346 " stroke="none" fill="#000000" fill-rule="evenodd"></path></g></svg>