<svg id="svg" xmlns="http://www.w3.org/2000/svg" xmlns:xlink="http://www.w3.org/1999/xlink" width="400" height="265.75342465753425" viewBox="0, 0, 400,265.75342465753425"><g id="svgg"><path id="path0" d="M35.000 26.188 C 20.019 34.318,16.621 52.055,30.044 52.055 C 55.414 52.055,63.468 64.538,51.118 84.722 C 35.065 110.957,34.725 124.715,49.757 139.747 C 57.041 147.031,57.987 149.575,56.595 158.150 C 54.604 170.418,57.492 200.349,60.488 198.498 C 61.692 197.754,63.779 199.114,65.126 201.522 C 67.266 205.346,68.670 204.977,76.253 198.596 C 81.026 194.580,84.932 192.593,84.932 194.181 C 84.932 199.982,96.189 203.615,100.576 199.228 C 104.145 195.660,106.475 196.138,120.318 203.277 L 136.013 211.371 126.996 228.973 C 118.859 244.858,118.483 246.575,123.145 246.575 C 125.986 246.575,128.723 247.814,129.228 249.328 C 130.431 252.938,156.584 243.359,170.295 234.286 C 177.870 229.273,180.822 228.401,180.822 231.175 C 180.822 237.247,188.653 238.697,197.298 234.227 C 207.148 229.133,208.219 229.135,208.219 234.247 C 208.219 253.344,292.361 221.141,306.108 196.783 C 310.738 188.578,318.963 177.970,324.386 173.208 C 336.354 162.700,336.971 160.094,326.169 165.680 C 317.116 170.362,307.503 182.157,299.103 198.892 C 292.854 211.343,255.196 228.725,227.320 232.027 L 214.435 233.553 212.641 223.988 C 210.328 211.657,195.384 196.305,180.277 190.739 C 173.796 188.351,162.329 184.144,154.795 181.389 C 143.854 177.389,141.217 175.229,141.699 170.660 C 142.156 166.334,141.079 165.259,137.283 166.252 C 130.704 167.972,126.855 158.822,132.766 155.514 C 135.087 154.215,136.986 151.830,136.986 150.213 C 136.986 148.331,135.509 148.500,132.877 150.685 C 125.512 156.797,128.536 150.389,139.539 136.571 C 145.463 129.131,150.842 121.557,151.492 119.741 C 152.142 117.924,153.387 117.085,154.257 117.874 C 155.128 118.664,153.541 124.447,150.730 130.725 C 146.340 140.531,146.169 142.595,149.522 145.377 C 152.228 147.623,153.425 147.691,153.425 145.600 C 153.425 143.433,155.358 143.464,160.286 145.709 C 168.475 149.441,172.039 147.019,167.106 141.075 C 163.972 137.299,164.438 137.143,171.187 139.709 C 175.377 141.302,181.109 141.874,183.924 140.981 C 186.739 140.088,189.041 140.672,189.041 142.281 C 189.041 143.890,191.591 145.205,194.707 145.205 L 200.373 145.205 194.840 152.976 C 189.689 160.210,188.281 160.662,174.459 159.515 C 166.292 158.838,158.871 159.481,157.967 160.943 C 156.995 162.517,164.383 164.278,176.072 165.258 C 186.934 166.168,196.164 167.944,196.584 169.203 C 197.003 170.462,201.534 171.004,206.651 170.406 C 211.768 169.809,217.880 170.398,220.234 171.715 C 222.587 173.032,232.440 173.444,242.130 172.631 L 259.748 171.153 256.293 178.042 C 246.776 197.017,249.310 209.132,262.795 209.132 C 277.444 209.132,293.445 187.239,289.584 172.476 C 288.251 167.377,300.104 161.706,312.192 161.659 C 314.703 161.649,315.206 160.686,313.559 159.039 C 312.003 157.483,306.857 157.358,300.781 158.728 C 285.834 162.099,279.276 156.914,285.832 146.907 C 290.519 139.753,292.949 138.656,302.055 139.583 C 311.726 140.566,306.824 107.992,294.041 86.324 C 288.290 76.577,287.458 83.751,292.901 96.152 C 295.814 102.789,299.034 112.765,300.056 118.320 L 301.915 128.422 292.639 125.575 C 285.570 123.405,280.001 123.726,269.240 126.922 C 256.370 130.744,255.265 130.729,256.791 126.752 C 257.902 123.858,257.387 123.056,255.260 124.370 C 253.216 125.633,252.055 124.342,252.055 120.806 C 252.055 117.756,249.555 113.923,246.499 112.288 C 243.443 110.652,241.578 108.286,242.355 107.029 C 243.957 104.437,220.800 82.192,216.500 82.192 C 211.096 82.192,213.779 89.463,222.124 97.433 C 226.758 101.858,236.159 114.321,243.014 125.128 C 254.652 143.473,255.905 144.582,261.905 141.848 C 266.687 139.669,269.403 139.810,272.522 142.398 C 286.143 153.704,267.965 165.823,237.736 165.590 C 218.183 165.439,207.588 162.587,215.753 159.671 C 217.637 158.998,219.178 157.274,219.178 155.840 C 219.178 154.246,217.167 154.308,214.005 156.000 C 209.669 158.321,208.622 157.672,207.536 151.987 C 206.445 146.282,207.292 145.205,212.870 145.205 C 216.593 145.205,218.759 144.004,217.808 142.466 C 216.877 140.959,212.489 139.726,208.057 139.726 C 198.936 139.726,198.294 137.963,204.565 130.137 C 207.451 126.536,208.450 126.145,207.479 128.995 C 206.580 131.635,207.554 133.333,209.968 133.333 C 212.150 133.333,213.304 131.689,212.533 129.680 C 211.762 127.671,212.325 126.027,213.785 126.027 C 215.244 126.027,216.438 127.877,216.438 130.137 C 216.438 135.497,219.090 135.246,227.038 129.134 C 234.433 123.446,232.115 115.047,221.597 109.417 C 217.689 107.326,216.381 104.624,217.397 100.741 C 218.433 96.779,218.010 95.963,215.977 97.996 C 214.384 99.588,212.739 105.006,212.321 110.035 C 211.236 123.070,211.179 123.288,208.869 123.288 C 207.719 123.288,205.562 120.514,204.074 117.123 C 199.553 106.818,178.102 108.213,172.859 119.152 C 170.700 123.658,168.423 125.816,167.800 123.947 C 167.176 122.077,164.920 120.548,162.785 120.548 C 159.954 120.548,158.904 116.841,158.904 106.849 C 158.904 89.341,156.624 89.764,147.039 109.051 C 137.545 128.156,119.844 143.748,112.258 139.688 C 104.872 135.735,104.814 135.778,97.260 150.685 C 93.442 158.219,89.107 164.384,87.625 164.384 C 83.158 164.384,84.585 159.147,90.411 154.159 C 93.425 151.578,95.890 148.357,95.890 147.001 C 95.890 145.644,94.144 145.984,92.010 147.755 C 89.008 150.247,87.856 150.168,86.923 147.406 C 86.260 145.442,86.021 145.914,86.392 148.453 C 87.226 154.166,79.316 157.637,76.360 152.855 C 75.173 150.933,74.695 146.885,75.300 143.858 C 75.904 140.832,77.628 132.192,79.130 124.658 C 80.632 117.123,82.615 106.301,83.535 100.609 C 84.455 94.916,86.379 90.982,87.810 91.866 C 91.254 93.995,91.096 111.123,87.513 124.025 C 85.197 132.365,85.443 135.150,88.795 138.501 C 99.609 149.316,108.914 104.474,100.189 83.591 C 96.318 74.328,96.395 74.098,106.163 65.521 L 116.058 56.833 118.563 63.348 C 122.830 74.448,119.158 113.698,112.852 124.386 C 108.398 131.935,108.034 134.115,111.036 135.267 C 113.482 136.206,114.255 135.314,113.254 132.706 C 112.299 130.218,113.129 129.065,115.448 129.657 C 117.500 130.180,118.253 130.092,117.123 129.460 C 113.382 127.367,114.994 123.431,118.968 124.956 C 123.858 126.832,128.794 118.012,132.933 100.000 C 135.682 88.041,136.870 86.416,142.291 87.205 C 145.965 87.741,150.666 85.784,153.808 82.411 C 156.728 79.277,161.459 76.712,164.321 76.712 C 167.183 76.712,173.608 72.896,178.598 68.231 C 213.633 35.482,235.123 27.919,255.567 41.144 C 276.408 54.627,310.909 96.028,308.614 104.802 C 306.490 112.925,316.526 121.265,325.939 119.197 C 336.927 116.784,342.396 125.249,341.201 142.820 C 340.171 157.966,341.312 159.506,345.508 148.630 C 349.139 139.217,343.518 112.329,337.919 112.329 C 335.899 112.329,334.247 110.110,334.247 107.397 C 334.247 100.281,328.811 95.890,320.000 95.890 C 315.080 95.890,312.329 94.447,312.329 91.867 C 312.329 89.654,313.948 88.464,315.926 89.224 C 317.905 89.983,321.795 88.095,324.570 85.028 C 330.596 78.369,316.609 76.311,309.953 82.877 C 303.586 89.156,298.294 78.227,303.068 68.658 C 311.185 52.388,296.388 36.821,279.468 43.829 C 271.926 46.953,270.368 46.720,264.961 41.657 C 244.694 22.679,154.129 17.008,141.096 33.900 C 139.589 35.853,132.192 40.858,124.658 45.022 C 89.066 64.691,76.606 78.868,75.032 101.483 C 73.599 122.077,68.524 129.973,61.339 122.787 C 53.352 114.800,53.328 95.870,61.292 84.932 C 82.745 55.465,82.665 47.639,60.746 30.947 C 47.444 20.817,45.545 20.466,35.000 26.188 M202.740 35.021 C 198.973 37.549,191.935 43.474,187.100 48.188 L 178.309 56.759 172.716 50.806 C 160.398 37.694,167.414 30.087,191.644 30.281 C 209.352 30.422,209.499 30.485,202.740 35.021 M156.164 39.726 C 156.164 42.129,153.671 43.836,150.161 43.836 C 144.295 43.836,144.279 43.744,149.476 39.813 C 156.146 34.769,156.164 34.768,156.164 39.726 M70.025 51.792 C 66.853 56.925,64.235 55.113,63.592 47.339 C 63.022 40.455,63.317 40.225,67.428 44.336 C 69.877 46.785,71.046 50.140,70.025 51.792 M234.247 54.073 C 207.211 60.895,213.065 66.466,244.711 64.033 C 260.779 62.798,268.493 61.107,268.493 58.819 C 268.493 53.031,249.053 50.337,234.247 54.073 M162.861 62.766 C 165.225 66.592,161.524 73.973,157.241 73.973 C 153.098 73.973,152.497 71.359,155.088 64.608 C 156.935 59.794,160.502 58.949,162.861 62.766 M179.345 90.584 C 176.358 95.417,186.020 103.477,196.228 104.669 C 208.913 106.150,210.727 102.242,201.034 94.316 C 192.698 87.498,182.353 85.718,179.345 90.584 M219.024 118.096 C 215.266 125.117,214.612 124.675,214.612 115.112 C 214.612 108.675,215.376 107.571,218.207 109.920 C 220.811 112.081,221.036 114.337,219.024 118.096 M358.904 116.438 C 355.137 118.592,353.288 120.354,354.795 120.354 C 356.301 120.354,360.616 118.592,364.384 116.438 C 368.151 114.285,370.000 112.523,368.493 112.523 C 366.986 112.523,362.671 114.285,358.904 116.438 M226.372 124.748 C 225.524 126.958,223.674 128.767,222.262 128.767 C 220.826 128.767,221.090 125.786,222.861 122.007 C 226.100 115.093,229.160 117.481,226.372 124.748 M294.521 131.507 C 295.452 133.014,293.603 134.247,290.411 134.247 C 287.219 134.247,285.370 133.014,286.301 131.507 C 287.233 130.000,289.082 128.767,290.411 128.767 C 291.740 128.767,293.589 130.000,294.521 131.507 M117.592 149.266 C 121.167 147.906,121.291 148.243,118.309 151.208 C 115.333 154.165,114.078 153.954,111.157 150.000 C 109.209 147.363,106.865 145.205,105.948 145.205 C 105.032 145.205,105.041 147.363,105.969 150.000 C 107.319 153.836,106.941 154.133,104.081 151.486 C 101.144 148.768,101.176 147.371,104.259 143.656 C 107.700 139.509,108.230 139.623,110.639 145.022 C 112.339 148.832,114.794 150.330,117.592 149.266 M205.479 156.164 C 205.479 159.817,203.653 161.644,200.000 161.644 C 193.790 161.644,192.978 158.803,197.808 153.973 C 202.638 149.142,205.479 149.954,205.479 156.164 M117.451 177.479 C 124.884 184.681,133.691 190.779,137.022 191.030 C 153.342 192.260,156.152 201.898,144.941 218.192 C 134.418 233.488,130.650 231.731,140.867 216.293 C 147.276 206.609,147.611 205.176,143.323 205.803 C 122.987 208.778,88.485 180.854,98.313 169.376 C 103.699 163.086,101.741 162.257,117.451 177.479 M280.190 189.829 C 277.241 194.893,272.377 199.019,268.735 199.545 C 264.664 200.134,263.070 199.385,264.269 197.446 C 265.294 195.788,267.261 195.129,268.640 195.981 C 272.002 198.059,282.064 181.198,282.592 172.603 C 282.990 166.131,283.076 166.174,284.164 173.391 C 284.828 177.796,283.146 184.754,280.190 189.829 " stroke="none" fill="#000000" fill-rule="evenodd"></path></g></svg>