<svg id="svg" xmlns="http://www.w3.org/2000/svg" xmlns:xlink="http://www.w3.org/1999/xlink" width="400" height="374.54545454545456" viewBox="0, 0, 400,374.54545454545456"><g id="svgg"><path id="path0" d="M172.727 40.456 C 144.496 50.141,141.636 52.725,144.316 66.125 C 148.595 87.523,124.197 99.980,103.303 87.067 C 89.308 78.417,84.656 79.945,66.033 99.307 L 53.884 111.937 74.215 131.629 C 99.326 155.951,99.449 154.709,69.975 174.545 C 43.800 192.161,26.326 213.235,32.651 219.560 C 34.693 221.602,36.365 225.809,36.367 228.909 C 36.393 281.569,116.420 338.201,190.764 338.172 C 303.771 338.126,370.186 300.976,357.372 244.978 C 354.543 232.616,354.833 228.234,358.691 225.032 C 366.319 218.701,364.621 206.247,353.160 184.459 C 344.897 168.750,343.937 164.867,348.615 166.074 C 360.882 169.239,372.085 129.954,367.332 100.441 C 361.754 65.800,322.651 32.770,287.273 32.817 C 264.453 32.847,260.308 36.266,263.361 52.537 L 265.862 65.870 248.472 64.753 C 234.713 63.869,230.238 61.933,227.037 55.480 C 215.015 31.244,206.470 28.880,172.727 40.456 M325.867 56.320 C 353.908 77.425,356.949 83.135,357.566 115.835 C 358.165 147.632,357.036 148.548,317.272 148.522 C 279.111 148.498,238.784 158.562,209.374 175.447 C 187.463 188.027,189.082 193.939,211.698 183.937 C 253.886 165.280,285.894 158.352,323.788 159.677 C 334.578 160.054,352.727 192.213,352.727 210.956 C 352.727 223.872,299.391 253.212,253.179 265.718 L 227.273 272.728 249.091 271.033 C 272.506 269.213,317.314 255.358,336.618 243.968 L 348.458 236.982 350.716 245.982 C 359.757 282.003,326.507 304.315,258.179 308.075 C 224.975 309.902,217.072 308.794,170.909 295.836 C 162.882 293.583,162.378 293.967,166.604 299.123 C 171.627 305.251,226.673 319.701,247.723 320.418 L 260.000 320.836 245.455 323.845 C 163.196 340.860,84.251 310.894,58.097 252.727 C 39.483 211.331,42.437 200.755,78.519 179.610 L 94.453 170.272 115.408 177.256 C 139.195 185.183,140.482 187.769,134.637 215.921 C 131.108 232.922,129.264 235.786,120.739 237.507 C 115.332 238.598,107.879 240.662,104.177 242.094 C 98.921 244.127,97.729 243.220,98.741 237.963 C 99.455 234.259,104.121 230.274,109.110 229.107 C 116.105 227.472,118.443 224.314,119.321 215.312 C 120.779 200.372,115.964 200.401,95.757 215.455 C 72.031 233.129,77.377 260.664,103.793 256.846 C 109.879 255.967,121.688 256.496,130.034 258.022 C 157.159 262.982,191.358 233.249,179.497 215.018 C 161.754 187.747,144.236 171.853,125.362 165.904 C 110.292 161.153,105.715 157.896,103.889 150.622 C 102.613 145.538,94.324 134.132,85.468 125.277 L 69.367 109.176 78.099 99.133 C 85.554 90.561,87.796 89.750,93.416 93.590 C 118.001 110.390,118.986 110.455,138.002 96.496 C 154.882 84.105,155.574 82.909,153.750 69.312 L 151.843 55.090 171.127 49.363 C 200.646 40.597,209.202 41.644,214.603 54.684 C 220.384 68.641,225.485 71.179,254.008 74.290 L 277.107 76.809 274.613 58.675 C 272.159 40.834,272.285 40.517,282.423 38.998 C 288.090 38.148,294.218 37.208,296.040 36.908 C 297.862 36.609,311.284 45.344,325.867 56.320 M189.984 102.379 C 175.909 116.455,193.980 136.476,212.956 127.830 C 228.441 120.775,224.419 100.373,207.257 98.925 C 200.249 98.333,192.476 99.888,189.984 102.379 M146.309 123.435 C 121.937 141.090,128.289 170.909,156.421 170.909 C 160.389 170.909,163.636 172.545,163.636 174.545 C 163.636 179.865,194.799 178.994,199.319 173.548 C 203.577 168.417,200.820 138.182,196.094 138.182 C 194.472 138.182,192.642 145.136,192.027 153.636 C 191.111 166.294,189.593 169.091,183.636 169.091 C 177.406 169.091,176.509 167.006,177.381 154.545 L 178.398 140.000 169.487 150.607 C 160.793 160.957,160.349 161.065,151.197 155.069 C 139.117 147.154,139.324 145.662,154.545 130.909 C 175.482 110.617,170.386 105.994,146.309 123.435 M161.972 213.252 L 172.080 226.504 159.676 236.791 C 142.391 251.126,138.260 250.388,141.999 233.636 C 143.673 226.136,145.985 215.500,147.136 210.000 C 149.783 197.355,149.860 197.372,161.972 213.252 " stroke="none" fill="#000000" fill-rule="evenodd"></path></g></svg>