<svg id="svg" xmlns="http://www.w3.org/2000/svg" xmlns:xlink="http://www.w3.org/1999/xlink" width="400" height="233.52601156069363" viewBox="0, 0, 400,233.52601156069363"><g id="svgg"><path id="path0" d="M195.135 19.791 C 194.318 23.046,194.179 30.407,194.826 36.150 C 195.683 43.754,195.133 46.925,192.799 47.820 C 185.956 50.446,190.049 52.587,198.266 50.679 C 229.350 43.460,272.832 55.882,272.832 71.980 C 272.832 75.754,274.352 81.780,276.208 85.371 C 279.799 92.315,278.962 95.230,273.931 93.300 C 271.812 92.487,271.227 93.532,272.046 96.666 C 272.700 99.167,272.104 101.911,270.722 102.766 C 264.514 106.603,269.037 108.201,276.301 104.737 C 280.751 102.614,284.393 99.510,284.393 97.838 C 284.393 89.623,293.766 95.533,299.180 107.161 C 308.420 127.012,293.703 155.160,281.268 141.419 C 277.673 137.448,277.751 136.580,282.472 127.961 C 289.649 114.859,287.288 110.126,274.561 112.105 C 253.715 115.347,251.735 119.100,263.688 132.714 L 270.730 140.733 263.756 148.401 L 256.783 156.069 256.553 150.289 C 256.362 145.492,256.040 145.226,254.661 148.726 C 253.746 151.046,251.999 152.955,250.777 152.969 C 249.555 152.983,247.206 154.114,245.558 155.482 C 241.785 158.613,232.307 152.013,224.855 141.064 C 218.058 131.077,218.110 130.878,228.786 126.064 C 252.521 115.361,255.722 93.124,236.084 75.364 C 229.527 69.434,229.955 73.631,237.470 88.953 C 244.342 102.966,242.629 110.746,234.040 104.526 C 216.153 91.573,178.035 81.804,178.035 90.173 C 178.035 91.445,180.017 92.486,182.439 92.486 C 186.215 92.486,186.673 93.757,185.647 101.401 C 183.781 115.318,195.637 129.425,209.249 129.482 C 217.730 129.518,236.996 190.720,230.855 198.120 C 227.820 201.777,197.751 202.483,200.000 198.844 C 201.970 195.656,200.656 195.848,182.258 201.437 C 162.756 207.360,158.195 205.363,164.827 193.806 C 169.916 184.939,168.164 182.589,161.263 189.026 C 156.462 193.504,155.482 193.621,148.296 190.579 L 140.522 187.288 145.983 182.738 C 152.734 177.114,150.640 176.959,134.913 181.916 C 120.620 186.422,118.534 185.401,122.495 175.838 C 126.736 165.602,123.536 158.695,118.753 167.760 C 109.116 186.024,111.513 193.624,126.051 190.897 C 131.465 189.881,136.066 190.978,143.063 194.952 L 152.654 200.400 128.416 204.554 C 94.658 210.341,73.696 197.449,60.410 162.732 C 53.409 144.437,53.910 142.020,66.474 133.478 C 94.627 114.338,101.617 102.339,93.586 86.939 C 88.137 76.490,91.389 77.140,99.317 88.084 C 112.569 106.377,111.795 109.737,90.754 125.280 C 76.018 136.166,74.522 144.242,85.253 154.973 C 95.725 165.445,118.530 166.998,115.884 157.059 C 112.470 144.229,116.800 116.555,125.356 96.532 C 130.768 83.867,132.097 83.449,141.575 91.425 C 151.557 99.824,152.603 96.287,143.153 86.085 C 138.757 81.339,132.582 74.411,129.430 70.688 L 123.699 63.919 131.009 68.965 C 142.227 76.710,162.345 85.506,168.786 85.483 C 172.793 85.468,168.537 82.456,154.913 75.664 C 134.203 65.340,106.441 45.830,110.525 44.469 C 111.848 44.028,128.696 47.426,147.966 52.021 C 167.236 56.615,186.826 60.037,191.501 59.625 C 199.484 58.921,199.158 58.696,186.127 55.919 C 178.497 54.293,159.217 49.890,143.283 46.135 C 116.416 39.802,99.422 37.622,99.422 40.508 C 99.422 43.098,111.557 60.739,119.026 69.006 L 126.905 77.727 120.678 90.763 L 114.451 103.800 106.778 89.929 C 98.683 75.293,89.909 68.703,85.024 73.589 C 80.368 78.245,69.865 76.896,68.126 71.418 C 66.034 64.828,72.610 57.803,76.862 62.086 C 79.201 64.442,78.979 64.713,75.723 63.473 C 72.983 62.430,71.676 63.053,71.676 65.401 C 71.676 69.271,75.938 71.525,80.347 69.987 C 84.913 68.394,83.824 58.302,78.918 56.744 C 62.539 51.546,47.828 80.048,62.765 88.042 C 65.322 89.410,68.893 89.962,70.701 89.268 C 72.509 88.574,73.988 89.014,73.988 90.246 C 73.988 91.478,73.028 92.486,71.854 92.486 C 70.680 92.486,66.477 95.213,62.515 98.547 C 56.477 103.628,53.859 104.376,46.329 103.172 C 31.171 100.748,14.652 120.431,23.200 130.731 C 31.907 141.222,73.988 116.333,73.988 100.692 C 73.988 96.940,86.659 85.118,88.600 87.058 C 89.465 87.924,90.173 92.979,90.173 98.293 C 90.173 109.289,88.839 110.836,65.390 127.028 C 42.816 142.617,46.456 165.111,76.327 194.613 C 95.482 213.532,101.061 215.588,121.466 211.247 C 130.849 209.251,142.398 208.378,149.133 209.155 C 164.765 210.959,169.228 210.955,190.987 209.119 C 209.074 207.593,209.767 207.717,211.076 212.723 C 212.736 219.070,223.378 217.858,240.335 209.392 C 246.128 206.500,258.174 201.944,267.105 199.269 C 294.914 190.940,309.421 174.480,306.645 154.409 C 304.780 140.928,304.781 141.709,306.577 125.345 C 308.675 106.231,303.650 94.973,290.233 88.727 C 282.417 85.088,280.611 82.910,278.965 75.145 C 275.493 58.754,267.259 50.838,248.784 46.130 C 231.581 41.745,226.314 38.708,214.265 26.226 C 200.916 12.397,197.296 11.179,195.135 19.791 M219.653 42.455 C 219.653 45.865,201.615 43.836,200.247 40.273 C 198.475 35.656,198.419 24.317,200.160 22.576 C 201.498 21.238,219.653 39.753,219.653 42.455 M69.508 84.018 C 66.849 86.677,62.428 83.925,62.428 79.613 C 62.428 76.854,63.236 76.766,66.994 79.113 C 69.654 80.774,70.704 82.822,69.508 84.018 M345.237 90.124 C 337.974 100.389,335.260 101.661,335.260 94.798 C 335.260 86.728,329.428 89.798,324.160 100.640 C 318.647 111.989,317.922 115.607,321.161 115.607 C 322.308 115.607,324.391 112.326,325.789 108.315 C 328.158 101.518,328.608 101.275,332.426 104.730 C 334.679 106.769,337.607 107.709,338.934 106.819 C 341.629 105.012,356.069 84.301,356.069 82.242 C 356.069 78.320,350.955 82.041,345.237 90.124 M219.075 104.671 C 232.988 113.025,234.042 116.187,224.264 120.237 C 210.446 125.960,191.908 116.673,191.908 104.029 C 191.908 92.320,198.777 92.483,219.075 104.671 M173.410 112.317 C 173.410 123.789,183.726 134.104,195.198 134.104 C 199.747 134.104,203.468 133.064,203.468 131.792 C 203.468 130.520,200.300 129.480,196.427 129.480 C 192.033 129.480,187.251 127.345,183.710 123.805 C 180.169 120.264,178.035 115.481,178.035 111.088 C 178.035 107.215,176.994 104.046,175.723 104.046 C 174.451 104.046,173.410 107.768,173.410 112.317 M60.098 111.321 C 60.133 114.245,43.753 127.124,38.239 128.508 C 27.252 131.266,24.099 123.254,32.608 114.197 C 37.252 109.254,60.044 106.870,60.098 111.321 M362.333 113.533 C 360.056 114.858,355.647 116.214,352.536 116.546 C 349.425 116.877,344.869 118.969,342.410 121.194 C 338.133 125.065,337.825 125.024,335.260 120.231 C 332.702 115.451,332.378 115.406,328.140 119.242 C 322.812 124.063,322.296 128.201,327.259 126.296 C 329.217 125.545,332.800 126.168,335.222 127.681 C 338.759 129.889,340.448 129.712,343.801 126.779 C 346.098 124.771,351.795 121.903,356.462 120.405 C 361.130 118.908,366.199 116.175,367.728 114.333 C 370.952 110.448,368.307 110.056,362.333 113.533 M282.072 117.341 C 282.068 118.295,279.866 122.681,277.179 127.088 L 272.294 135.100 266.629 128.514 C 263.513 124.891,261.813 121.126,262.852 120.147 C 266.565 116.648,282.087 114.382,282.072 117.341 M109.516 138.846 C 109.151 160.669,109.078 160.794,98.610 157.339 C 79.925 151.172,79.278 138.397,97.127 128.033 C 104.112 123.977,109.827 120.563,109.827 120.445 C 109.827 120.327,109.687 128.608,109.516 138.846 M327.439 136.616 C 319.723 142.685,319.504 147.005,327.168 141.984 C 332.687 138.367,332.948 138.411,332.948 142.950 C 332.948 149.614,336.683 151.174,342.643 146.999 C 346.151 144.542,350.443 143.877,356.520 144.849 C 361.782 145.690,365.318 145.326,365.318 143.944 C 365.318 141.010,349.650 138.421,342.775 140.219 C 339.024 141.200,337.572 140.575,337.572 137.978 C 337.572 132.061,333.863 131.562,327.439 136.616 M147.698 141.046 C 151.995 142.061,156.349 144.247,157.374 145.905 C 158.901 148.375,160.286 148.357,165.051 145.807 C 169.785 143.274,172.169 143.235,177.874 145.598 C 185.311 148.679,196.532 147.208,196.532 143.153 C 196.532 141.727,194.491 141.377,191.577 142.302 C 188.851 143.167,182.521 142.521,177.509 140.867 C 170.493 138.552,167.402 138.481,164.074 140.559 C 161.334 142.270,159.239 142.429,158.352 140.993 C 157.582 139.747,153.112 138.835,148.418 138.965 L 139.884 139.202 147.698 141.046 M284.393 158.547 C 284.393 161.423,285.583 164.173,287.037 164.658 C 288.997 165.311,288.960 166.885,286.896 170.742 C 285.032 174.225,282.750 175.513,279.991 174.637 C 277.654 173.895,273.304 175.348,269.941 177.994 C 261.944 184.284,260.634 183.888,262.428 175.723 C 263.386 171.358,263.026 168.786,261.455 168.786 C 260.083 168.786,258.960 169.850,258.960 171.150 C 258.960 172.450,254.570 178.276,249.205 184.096 L 239.450 194.679 236.551 178.972 C 233.493 162.403,234.172 155.931,237.587 169.107 C 240.182 179.122,246.107 180.303,250.560 171.692 C 252.446 168.046,256.596 163.874,259.783 162.422 C 262.969 160.970,267.918 156.615,270.780 152.745 C 276.716 144.715,284.393 147.987,284.393 158.547 M300.585 162.986 C 297.652 171.873,293.642 173.841,293.642 166.393 C 293.642 160.715,301.163 148.574,302.393 152.265 C 302.871 153.700,302.057 158.524,300.585 162.986 M166.216 163.584 C 162.211 166.950,156.880 168.818,151.111 168.877 L 142.197 168.967 149.913 172.318 C 158.010 175.835,162.979 174.627,168.681 167.756 C 170.740 165.276,175.741 164.162,184.812 164.162 C 192.044 164.162,199.746 162.856,201.930 161.259 C 205.248 158.833,203.153 158.359,189.153 158.369 C 175.172 158.379,171.384 159.241,166.216 163.584 M197.274 172.545 C 192.415 177.156,184.798 182.285,180.347 183.943 C 174.473 186.131,173.601 187.002,177.168 187.120 C 185.715 187.404,196.532 184.489,196.532 181.902 C 196.532 180.532,199.857 175.980,203.922 171.786 C 213.965 161.425,208.314 162.070,197.274 172.545 M247.232 169.098 C 245.121 173.043,244.182 173.391,242.561 170.833 C 239.406 165.850,240.066 164.162,245.168 164.162 C 249.256 164.162,249.527 164.809,247.232 169.098 M286.671 182.791 C 279.196 188.566,258.157 196.532,250.377 196.532 L 244.281 196.532 249.684 190.780 C 253.804 186.395,255.819 185.636,258.168 187.586 C 260.462 189.490,262.706 189.187,266.959 186.401 C 270.100 184.343,275.180 182.659,278.248 182.659 C 281.316 182.659,285.143 181.073,286.752 179.135 C 288.360 177.197,290.293 176.227,291.046 176.981 C 291.800 177.734,289.831 180.349,286.671 182.791 M227.746 208.092 C 226.960 209.364,223.517 210.389,220.095 210.369 C 215.228 210.342,214.628 209.846,217.341 208.092 C 221.909 205.140,229.570 205.140,227.746 208.092 " stroke="none" fill="#000000" fill-rule="evenodd"></path></g></svg>