<svg id="svg" xmlns="http://www.w3.org/2000/svg" xmlns:xlink="http://www.w3.org/1999/xlink" width="400" height="400" viewBox="0, 0, 400,400"><g id="svgg"><path id="path0" d="M195.312 31.507 C 186.745 41.828,199.483 52.809,212.920 46.687 C 229.623 39.076,262.185 55.126,262.185 70.970 C 262.185 77.417,260.864 77.880,247.899 75.968 C 240.042 74.809,228.676 75.294,222.642 77.046 C 212.305 80.046,211.408 79.610,207.139 69.527 C 196.762 45.012,194.027 44.356,113.391 47.054 C 95.407 47.656,87.395 52.177,87.395 61.724 C 87.395 73.509,109.880 77.134,114.102 66.029 C 121.103 47.614,185.658 50.263,192.949 69.264 C 195.966 77.126,195.046 77.385,178.060 73.452 C 150.141 66.988,90.756 79.147,90.756 91.328 C 90.756 93.084,85.452 101.467,78.970 109.957 C 64.737 128.597,57.585 151.002,54.861 185.477 L 52.822 211.291 45.277 206.347 C 31.593 197.381,25.799 207.896,27.590 238.450 C 31.785 310.063,86.658 355.808,144.272 335.723 C 153.946 332.351,155.651 332.747,160.348 339.452 C 166.830 348.707,182.795 347.188,198.798 335.793 C 214.275 324.773,249.929 324.227,247.210 335.051 C 241.339 358.430,271.263 356.374,289.721 332.131 C 311.492 303.537,318.000 280.033,320.721 220.168 C 321.729 197.983,324.836 171.513,327.624 161.345 C 334.665 135.667,334.423 134.797,319.574 132.423 C 309.066 130.742,305.535 128.286,302.259 120.375 C 299.995 114.910,291.565 103.860,283.525 95.821 C 272.474 84.769,268.908 78.624,268.908 70.633 C 268.908 50.404,254.060 37.088,231.259 36.868 C 225.159 36.809,217.232 34.540,213.643 31.826 C 205.499 25.666,200.235 25.574,195.312 31.507 M178.440 81.156 L 191.273 85.001 191.281 107.206 C 191.286 119.419,192.871 137.559,194.804 147.518 C 200.036 174.468,199.519 178.151,190.502 178.151 C 176.766 178.151,156.329 209.983,149.506 242.003 C 146.222 257.412,137.756 274.934,132.646 276.895 C 130.410 277.753,133.793 266.097,140.163 250.992 C 165.961 189.827,167.738 119.865,144.223 91.120 C 134.826 79.633,132.902 84.380,141.232 98.499 C 150.562 114.313,157.353 165.827,152.224 181.886 C 148.871 192.382,148.558 191.348,148.242 168.731 C 147.739 132.761,139.308 99.142,128.698 90.795 C 120.658 84.471,120.553 84.034,127.079 84.034 C 130.917 84.034,134.992 82.521,136.134 80.672 C 138.933 76.144,162.616 76.415,178.440 81.156 M261.764 88.858 C 286.459 101.628,303.517 131.092,286.216 131.092 C 276.001 131.092,255.712 136.993,250.844 141.379 C 249.229 142.835,265.489 143.160,286.979 142.102 C 308.468 141.043,326.034 140.780,326.014 141.517 C 325.994 142.254,323.569 150.420,320.625 159.664 C 317.681 168.908,314.061 197.136,312.582 222.394 C 308.701 288.667,291.078 333.073,265.428 341.214 C 249.461 346.282,255.248 327.465,275.841 307.358 C 295.511 288.150,293.805 277.618,273.867 295.169 C 247.550 318.334,215.233 329.188,227.269 310.819 C 235.634 298.052,231.094 297.673,217.927 310.040 C 205.597 321.620,175.628 338.093,172.528 334.993 C 171.522 333.987,177.026 325.660,184.760 316.488 C 212.510 283.579,219.220 225.539,205.206 139.641 C 198.251 97.012,198.858 93.098,213.329 87.232 C 224.419 82.737,251.698 83.653,261.764 88.858 M120.424 138.901 C 126.566 151.716,129.669 208.091,124.974 221.560 C 122.671 228.168,122.544 231.380,124.639 230.086 C 131.986 225.545,121.353 255.265,111.652 266.387 C 93.491 287.207,70.588 250.823,70.588 201.150 C 70.588 142.071,92.057 132.233,101.250 187.099 C 107.660 225.354,93.198 258.413,84.210 226.050 C 79.211 208.048,79.831 199.161,86.555 192.437 C 92.818 186.173,92.201 165.100,85.714 163.733 C 77.205 161.941,70.949 206.007,76.074 231.633 C 78.647 244.495,94.380 262.185,103.247 262.185 C 110.137 262.185,124.191 238.036,118.421 236.112 C 116.568 235.495,115.892 222.096,116.805 204.080 C 118.119 178.144,117.222 170.104,111.289 154.622 C 100.801 127.252,108.495 114.012,120.424 138.901 M90.993 209.442 C 90.847 219.416,92.044 224.811,94.118 223.529 C 98.132 221.048,98.132 209.342,94.118 200.000 C 91.951 194.957,91.170 197.317,90.993 209.442 M199.293 201.681 C 200.476 206.204,199.396 208.403,195.992 208.403 C 193.209 208.403,186.544 213.101,181.181 218.843 L 171.429 229.282 171.429 220.977 C 171.429 202.732,195.254 186.234,199.293 201.681 M48.054 227.731 C 51.011 234.664,54.447 247.143,55.690 255.462 C 65.195 319.116,134.649 330.255,167.752 273.434 C 197.180 222.919,201.681 218.958,201.681 243.571 C 201.681 289.182,168.250 324.233,120.629 328.551 C 78.612 332.361,42.223 291.977,37.778 236.602 C 35.812 212.106,39.887 208.588,48.054 227.731 " stroke="none" fill="#000000" fill-rule="evenodd"></path></g></svg>