<svg id="svg" xmlns="http://www.w3.org/2000/svg" xmlns:xlink="http://www.w3.org/1999/xlink" width="400" height="329.03225806451616" viewBox="0, 0, 400,329.03225806451616"><g id="svgg"><path id="path0" d="M207.749 44.959 C 174.358 50.246,141.188 65.043,113.292 87.094 C 96.823 100.112,96.068 100.361,89.939 94.814 C 74.391 80.744,32.055 91.979,23.503 112.444 C 17.539 126.720,20.768 228.545,27.476 237.720 C 31.664 243.448,31.966 243.390,52.034 233.028 C 53.153 232.450,55.012 235.736,56.166 240.331 L 58.262 248.686 68.174 241.628 C 79.997 233.209,83.744 236.565,83.822 255.645 C 83.881 270.185,91.219 278.493,111.790 287.311 C 137.841 298.478,140.124 298.394,154.115 285.754 C 169.796 271.587,181.862 272.372,191.980 288.216 C 208.092 313.446,270.968 297.602,270.968 268.311 C 270.968 266.499,275.873 263.398,281.868 261.419 C 287.863 259.440,295.346 254.973,298.497 251.491 C 301.667 247.988,308.382 245.161,313.532 245.161 C 345.999 245.161,376.919 205.846,356.861 190.068 C 345.306 180.979,338.696 164.004,338.086 141.849 C 337.726 128.804,336.075 121.367,333.303 120.303 C 330.975 119.410,329.806 117.486,330.707 116.029 C 333.968 110.752,319.123 78.460,308.879 68.548 C 287.622 47.978,247.613 38.646,207.749 44.959 M280.487 63.225 L 294.844 69.639 271.083 68.296 C 233.264 66.159,161.290 90.350,161.290 105.198 C 161.290 111.205,161.917 111.069,183.157 100.449 C 213.106 85.474,235.225 79.390,259.677 79.403 C 304.165 79.426,313.613 84.667,317.930 111.715 L 320.057 125.042 301.158 118.628 C 279.080 111.135,246.113 111.942,230.563 120.356 C 218.963 126.633,219.517 126.744,258.088 125.902 C 301.507 124.953,320.629 132.907,314.339 149.298 C 312.779 153.364,310.813 153.359,299.017 149.265 C 284.908 144.368,263.075 145.479,251.483 151.683 C 239.457 158.118,245.272 160.128,271.880 158.731 C 306.699 156.904,311.463 160.985,297.875 181.002 C 281.450 205.198,277.242 205.864,264.345 186.311 C 243.731 155.059,190.877 137.372,177.754 157.335 C 176.683 158.964,171.889 161.255,167.102 162.426 C 162.254 163.612,156.538 168.331,154.199 173.079 C 148.788 184.064,122.349 198.726,101.158 202.494 L 84.574 205.443 86.180 187.399 C 90.843 134.987,61.770 91.720,36.111 112.885 C 33.972 114.650,35.047 112.962,38.500 109.134 C 53.970 91.987,86.449 98.372,99.249 121.077 C 102.047 126.041,103.679 126.573,106.759 123.524 C 109.854 120.460,109.738 118.476,106.215 114.231 C 97.904 104.216,139.511 75.565,183.871 60.757 C 208.136 52.657,259.782 53.976,280.487 63.225 M121.686 148.719 C 111.469 160.362,110.610 167.893,118.667 175.184 C 124.468 180.433,138.710 179.462,138.710 173.817 C 138.710 172.250,140.783 170.968,143.318 170.968 C 149.816 170.968,158.065 161.946,158.065 154.839 C 158.065 137.214,135.163 133.361,121.686 148.719 M336.949 177.135 C 339.621 182.300,345.727 189.611,350.518 193.379 C 367.267 206.554,340.516 236.950,312.171 236.950 C 299.584 236.950,287.947 229.035,291.671 223.008 C 293.014 220.835,296.091 221.898,300.118 225.924 C 324.449 250.255,349.945 210.015,328.913 180.478 C 323.174 172.419,323.385 167.742,329.487 167.742 C 330.920 167.742,334.278 171.969,336.949 177.135 M181.038 177.629 C 187.087 180.867,186.701 181.728,174.374 192.534 C 159.466 205.601,157.456 216.303,168.460 224.011 C 183.741 234.714,210.154 226.799,217.033 209.454 C 219.151 204.115,226.536 211.875,224.742 217.553 C 215.844 245.706,132.570 253.739,127.540 226.929 C 126.358 220.627,125.847 215.195,126.405 214.859 C 144.009 204.256,155.378 195.287,163.044 185.953 C 174.021 172.588,172.732 173.184,181.038 177.629 M143.145 279.993 C 145.940 284.515,139.754 290.997,133.752 289.834 C 125.797 288.292,124.146 281.525,131.273 279.677 C 140.603 277.259,141.470 277.282,143.145 279.993 " stroke="none" fill="#000000" fill-rule="evenodd"></path></g></svg>