<svg id="svg" xmlns="http://www.w3.org/2000/svg" xmlns:xlink="http://www.w3.org/1999/xlink" width="400" height="314.5299145299145" viewBox="0, 0, 400,314.5299145299145"><g id="svgg"><path id="path0" d="M235.666 29.136 C 228.102 36.700,226.036 37.165,214.341 33.935 C 191.156 27.534,179.487 30.671,179.487 43.305 C 179.487 57.391,176.334 60.117,165.666 55.256 C 146.556 46.549,126.405 49.976,128.718 61.538 L 130.769 71.795 108.281 71.795 C 75.378 71.795,59.776 80.914,73.372 92.198 C 83.898 100.934,82.392 107.823,66.279 124.639 C 44.401 147.473,32.977 173.421,31.594 203.419 C 30.670 223.464,34.440 241.734,38.276 235.798 C 38.848 234.913,43.162 226.587,47.863 217.298 C 58.453 196.370,64.957 193.347,64.957 209.351 C 64.957 232.275,88.344 287.912,88.775 266.014 C 88.927 258.303,94.965 254.941,100.464 259.505 C 102.905 261.531,105.926 262.165,107.177 260.914 C 111.934 256.157,129.001 257.408,150.041 264.055 C 167.863 269.686,178.075 270.656,205.596 269.331 C 242.584 267.550,242.202 267.369,232.479 282.051 C 223.686 295.328,223.756 300.201,232.626 292.175 C 238.748 286.634,239.336 286.569,237.388 291.645 C 234.656 298.764,240.378 299.267,246.071 292.407 C 248.366 289.642,253.437 287.719,257.339 288.134 C 264.395 288.885,271.160 281.065,284.456 256.787 C 294.743 238.005,304.218 242.260,304.552 265.812 L 304.831 285.470 310.116 273.504 C 314.766 262.977,315.696 262.351,317.848 268.300 C 320.212 274.836,320.431 274.804,324.421 267.349 C 326.711 263.071,330.236 260.680,332.339 261.980 C 335.036 263.647,335.522 258.498,334.023 244.127 C 332.112 225.805,332.812 222.599,341.571 209.566 C 349.345 197.998,351.700 189.756,353.664 167.247 C 355.005 151.872,357.815 135.534,359.908 130.940 C 362.909 124.353,362.692 121.956,358.879 119.599 C 356.220 117.956,355.140 115.515,356.480 114.176 C 357.819 112.836,357.606 110.060,356.007 108.007 C 354.408 105.954,352.099 99.010,350.877 92.576 C 348.332 79.181,323.486 44.444,316.449 44.444 C 313.412 44.444,310.930 50.424,309.425 61.366 C 306.317 83.969,300.943 88.095,290.299 76.050 C 284.241 69.194,283.938 68.298,289.158 72.674 C 296.781 79.065,300.855 80.226,300.855 76.009 C 300.855 68.703,269.202 40.845,263.101 42.782 C 258.207 44.335,256.114 42.744,254.479 36.232 C 250.886 21.913,245.079 19.723,235.666 29.136 M211.856 44.304 C 216.231 47.071,216.120 49.582,210.984 63.910 C 200.351 93.575,205.113 108.210,216.437 80.670 C 219.836 72.403,227.626 59.845,233.748 52.763 L 244.878 39.888 252.890 51.568 C 285.776 99.511,313.570 107.154,325.447 71.521 C 330.235 57.158,344.457 87.757,348.757 121.673 C 353.015 155.261,350.298 159.761,331.632 150.031 C 317.135 142.475,299.014 143.561,284.196 152.874 C 278.210 156.636,274.179 157.065,268.812 154.510 C 249.060 145.108,226.017 146.541,223.191 157.348 C 220.950 165.917,193.856 179.351,164.795 186.302 C 136.245 193.131,132.998 191.893,141.538 177.436 C 149.280 164.331,146.621 161.633,131.391 167.140 C 120.070 171.234,118.957 170.971,112.426 162.668 C 108.095 157.162,102.092 153.846,96.455 153.846 C 87.893 153.846,87.731 153.539,93.340 147.930 C 98.237 143.033,100.416 142.739,105.992 146.221 C 115.069 151.889,119.658 151.515,119.658 145.107 C 119.658 137.549,100.026 98.874,91.642 89.917 L 84.605 82.399 93.577 80.147 C 105.577 77.135,115.428 80.811,109.973 86.266 C 103.686 92.553,105.132 98.074,117.949 116.705 C 124.530 126.273,129.915 135.302,129.915 136.770 C 129.915 138.238,132.400 140.393,135.437 141.559 C 142.268 144.180,140.762 131.784,131.755 111.267 C 126.549 99.409,126.493 98.306,131.300 102.295 C 134.314 104.796,138.093 111.649,139.698 117.524 L 142.616 128.205 147.019 118.918 C 150.354 111.881,150.626 103.756,148.140 85.394 C 144.552 58.892,146.560 54.253,157.069 64.761 C 164.076 71.769,163.959 85.710,156.774 99.793 C 151.585 109.964,160.737 110.630,170.970 100.826 C 182.972 89.327,196.018 59.944,193.942 49.084 C 192.274 40.361,201.661 37.856,211.856 44.304 M202.846 114.924 C 191.728 131.893,210.578 150.062,229.047 140.178 C 238.658 135.034,243.770 121.142,239.196 112.597 C 233.505 101.962,210.369 103.443,202.846 114.924 M93.852 122.810 C 94.923 124.543,88.819 130.673,80.287 136.431 C 63.170 147.983,63.562 140.305,80.781 126.761 C 91.132 118.619,91.242 118.586,93.852 122.810 M258.120 177.683 C 258.120 180.975,252.837 183.619,242.853 185.323 C 225.586 188.271,218.630 184.516,225.661 176.044 C 231.588 168.902,258.120 170.242,258.120 177.683 M95.726 200.474 C 102.308 207.276,119.802 218.774,134.604 226.025 L 161.515 239.209 185.886 233.705 C 213.323 227.508,234.347 219.843,266.367 204.361 C 318.006 179.393,358.470 196.193,314.123 224.189 C 294.003 236.890,290.770 237.689,292.931 229.427 C 295.807 218.426,280.586 212.827,268.799 220.550 C 263.866 223.783,259.829 227.789,259.829 229.453 C 259.829 231.117,257.714 232.479,255.128 232.479 C 252.543 232.479,249.499 237.119,248.365 242.791 C 240.930 279.965,119.833 259.496,89.394 215.921 C 73.027 192.491,77.484 181.619,95.726 200.474 M194.240 221.368 C 193.463 225.467,189.349 227.649,181.169 228.300 L 169.231 229.249 177.778 222.393 C 188.362 213.902,195.741 213.443,194.240 221.368 M280.270 241.651 C 274.207 260.611,269.031 264.487,271.975 247.863 C 274.358 234.402,279.817 223.977,282.879 227.039 C 283.739 227.898,282.565 234.474,280.270 241.651 " stroke="none" fill="#000000" fill-rule="evenodd"></path></g></svg>