<svg id="svg" xmlns="http://www.w3.org/2000/svg" xmlns:xlink="http://www.w3.org/1999/xlink" width="400" height="392.7272727272727" viewBox="0, 0, 400,392.7272727272727"><g id="svgg"><path id="path0" d="M280.230 20.757 C 275.357 21.717,257.500 27.397,240.549 33.380 C 213.204 43.032,209.364 43.608,206.502 38.493 C 192.742 13.905,90.909 82.833,90.909 116.735 C 90.909 124.619,87.414 129.343,75.455 137.621 C 43.270 159.899,32.757 181.511,51.251 187.381 C 58.745 189.760,58.716 189.954,49.433 199.643 C 35.947 213.719,36.716 225.455,51.124 225.455 C 57.242 225.455,61.306 226.978,60.155 228.840 C 59.005 230.701,59.582 233.164,61.439 234.311 C 63.362 235.499,61.665 244.610,57.499 255.472 C 46.084 285.231,45.368 290.909,53.031 290.909 C 58.168 290.909,58.667 291.879,55.273 295.273 C 44.855 305.691,50.035 313.802,65.760 311.693 C 83.679 309.289,93.226 316.751,92.926 332.926 C 92.782 340.657,95.003 344.635,100.909 347.226 C 105.409 349.200,109.091 352.882,109.091 355.408 C 109.091 359.687,118.133 361.691,130.909 360.244 C 137.993 359.442,152.727 343.003,152.727 335.901 C 152.727 322.699,175.508 312.208,207.273 310.782 C 230.605 309.735,247.165 305.528,266.016 295.859 C 279.292 289.050,283.636 289.645,283.636 298.273 C 283.636 303.545,286.734 306.256,294.545 307.818 C 302.012 309.312,305.455 312.152,305.455 316.818 C 305.455 331.681,339.746 316.794,343.933 300.113 C 345.325 294.567,348.822 290.909,352.732 290.909 C 360.651 290.909,363.481 284.461,361.077 271.889 C 359.598 264.153,360.780 262.199,367.531 261.210 C 379.362 259.478,380.349 251.741,369.377 246.741 C 357.819 241.475,356.738 227.456,367.447 221.725 C 376.259 217.009,374.364 206.502,362.332 193.368 C 355.113 185.487,355.019 184.678,360.932 181.369 C 369.806 176.403,368.830 168.579,358.182 159.320 C 353.182 154.973,349.091 149.333,349.091 146.788 C 349.091 137.547,340.813 124.327,332.109 119.669 L 323.204 114.903 331.260 108.826 C 340.051 102.195,338.757 90.909,329.205 90.909 C 321.464 90.909,322.253 86.250,330.909 80.844 C 347.509 70.477,333.022 53.559,312.990 59.917 C 301.954 63.419,303.797 57.138,316.579 47.688 C 342.101 28.819,320.516 12.826,280.230 20.757 M312.727 32.309 C 312.727 35.562,296.827 47.273,292.410 47.273 C 291.095 47.273,291.880 45.030,294.155 42.289 C 298.946 36.516,285.986 37.129,260.999 43.857 C 253.046 45.999,245.693 46.905,244.658 45.871 C 242.632 43.845,247.281 42.516,283.636 34.731 C 313.202 28.399,312.727 28.439,312.727 32.309 M56.430 39.893 C 53.348 44.880,62.882 61.809,75.558 73.855 L 86.310 84.075 88.560 75.674 C 92.160 62.232,91.442 59.373,81.495 47.552 C 72.214 36.522,60.689 33.001,56.430 39.893 M312.424 74.199 C 311.591 75.008,304.364 76.652,296.364 77.850 C 286.137 79.383,283.438 78.962,287.273 76.434 C 292.378 73.069,315.724 70.994,312.424 74.199 M28.182 83.840 C 19.641 88.933,20.049 104.252,28.852 108.963 C 43.864 116.997,76.364 112.103,76.364 101.808 C 76.364 90.618,39.727 76.956,28.182 83.840 M284.364 120.727 C 278.836 126.255,278.725 136.964,284.160 140.324 C 290.284 144.109,309.488 142.875,313.953 138.411 C 319.912 132.451,322.645 133.736,325.137 143.668 C 330.906 166.653,305.685 186.307,280.213 178.675 C 253.561 170.690,245.848 142.511,265.734 125.778 C 277.095 116.217,293.254 111.837,284.364 120.727 M300.505 126.364 C 300.189 130.341,302.371 132.540,306.325 132.229 C 309.803 131.955,311.752 133.182,310.655 134.956 C 307.879 139.449,288.211 139.006,285.356 134.386 C 282.509 129.779,290.019 120.000,296.405 120.000 C 298.938 120.000,300.783 122.864,300.505 126.364 M187.607 143.521 C 219.290 164.280,206.914 192.727,166.199 192.727 C 149.631 192.727,134.948 182.720,139.858 174.775 C 141.172 172.649,140.202 170.909,137.701 170.909 C 135.179 170.909,136.298 168.477,140.214 165.446 C 146.789 160.356,146.808 160.145,140.489 162.359 C 133.196 164.915,135.179 148.783,142.502 145.993 C 144.349 145.289,147.814 142.389,150.203 139.548 C 155.488 133.262,175.134 135.349,187.607 143.521 M323.432 251.291 C 318.356 260.775,312.727 259.937,312.727 249.697 C 312.727 238.794,316.253 235.381,322.316 240.413 C 325.800 243.304,326.106 246.294,323.432 251.291 M279.308 250.000 C 277.832 257.665,271.378 257.182,269.733 249.283 C 269.047 245.988,271.052 243.636,274.545 243.636 C 278.291 243.636,280.074 246.020,279.308 250.000 M223.133 256.364 C 220.920 262.131,214.545 263.930,214.545 258.788 C 214.545 254.942,218.520 250.909,222.310 250.909 C 223.914 250.909,224.284 253.364,223.133 256.364 M266.905 266.050 C 263.663 271.296,258.174 265.562,258.297 257.058 C 258.409 249.353,258.585 249.318,263.636 255.990 C 266.508 259.785,267.979 264.312,266.905 266.050 " stroke="none" fill="#000000" fill-rule="evenodd"></path></g></svg>