<svg id="svg" xmlns="http://www.w3.org/2000/svg" xmlns:xlink="http://www.w3.org/1999/xlink" width="400" height="311.1111111111111" viewBox="0, 0, 400,311.1111111111111"><g id="svgg"><path id="path0" d="M271.111 15.202 C 267.852 16.988,256.010 23.795,244.797 30.328 L 224.408 42.208 235.167 52.064 C 250.198 65.834,249.743 74.969,233.616 83.197 C 222.554 88.840,221.037 88.996,218.654 84.739 C 212.726 74.147,174.071 83.781,150.568 101.708 L 140.125 109.673 141.527 95.079 C 146.012 48.403,113.764 12.776,80.838 28.031 C 42.675 45.712,16.876 85.926,43.695 85.926 C 75.162 85.926,108.534 143.043,97.869 178.644 C 91.197 200.915,80.286 213.197,67.111 213.270 C 40.599 213.417,19.226 256.532,36.902 274.209 C 49.084 286.391,93.937 280.069,118.778 262.670 C 125.224 258.156,126.048 258.251,132.432 264.249 C 139.411 270.805,174.231 272.597,200.741 267.763 C 208.826 266.289,210.370 266.905,210.370 271.604 C 210.370 298.979,244.433 293.083,281.917 259.218 C 288.205 253.537,294.944 248.889,296.893 248.889 C 306.188 248.889,350.575 233.128,355.693 228.011 C 359.682 224.022,361.481 218.169,361.481 209.182 C 361.481 197.402,362.491 195.545,371.922 189.981 C 384.930 182.306,387.168 176.801,381.067 167.489 C 378.443 163.485,376.296 156.828,376.296 152.697 C 376.296 137.442,353.744 123.502,329.954 124.050 C 308.478 124.545,307.389 119.556,328.074 115.444 C 382.823 104.561,378.502 82.963,321.577 82.963 C 293.514 82.963,292.647 82.262,305.326 69.818 C 331.438 44.191,302.504 -1.995,271.111 15.202 M299.819 30.028 C 319.593 44.108,303.368 70.460,274.241 71.572 C 257.232 72.221,256.554 71.961,254.412 63.952 C 253.192 59.391,249.882 53.105,247.056 49.982 C 241.159 43.466,241.699 42.752,262.222 29.947 C 278.457 19.818,285.502 19.834,299.819 30.028 M108.103 37.280 C 126.545 49.363,139.846 103.730,128.896 122.267 C 120.758 136.043,126.237 135.239,142.192 120.315 C 158.927 104.662,189.553 88.860,202.963 88.960 L 211.852 89.026 197.778 102.454 C 190.037 109.839,183.704 116.475,183.704 117.200 C 183.704 120.972,193.065 117.532,203.632 109.878 C 218.858 98.848,234.474 91.024,254.034 84.626 C 278.910 76.488,282.707 80.215,261.517 91.969 C 233.329 107.606,238.153 112.650,268.471 99.242 C 287.150 90.981,317.912 87.014,338.893 90.161 C 366.394 94.285,365.681 94.498,225.185 124.227 C 186.889 132.330,149.889 139.865,142.963 140.970 C 128.575 143.266,125.207 151.111,138.610 151.111 C 145.013 151.111,147.584 153.059,150.149 159.853 C 156.547 176.804,180.943 185.286,200.548 177.375 C 205.135 175.524,212.320 174.194,216.514 174.419 C 227.891 175.031,237.845 162.939,237.845 148.508 C 237.845 132.405,258.092 125.982,263.556 140.352 C 265.023 144.212,269.861 150.230,274.305 153.726 C 278.750 157.223,281.513 160.956,280.446 162.023 C 279.379 163.090,280.842 166.582,283.697 169.783 C 288.712 175.404,288.659 175.531,282.148 173.504 C 277.395 172.024,275.647 172.532,276.222 175.225 C 277.899 183.085,172.029 208.558,158.794 203.479 C 155.874 202.358,154.074 198.148,154.074 192.439 C 154.074 180.827,147.087 182.062,145.695 193.920 C 144.226 206.422,147.482 215.686,154.081 217.780 C 157.336 218.813,160.000 222.139,160.000 225.170 C 160.000 228.201,163.405 233.359,167.566 236.633 L 175.133 242.584 168.613 246.073 C 163.243 248.948,161.616 248.709,159.383 244.719 C 157.893 242.055,155.389 240.669,153.820 241.639 C 142.684 248.521,134.179 239.838,132.484 219.856 C 129.112 180.124,121.481 178.225,121.481 217.119 C 121.481 251.895,119.512 254.860,90.740 263.402 C 60.186 272.472,43.310 271.184,41.995 259.682 C 40.672 248.113,46.426 235.426,57.053 226.485 C 68.813 216.589,71.466 219.916,60.741 231.111 C 50.645 241.648,52.783 245.945,64.352 238.369 C 89.114 222.153,109.660 190.504,109.583 168.694 C 109.429 124.776,86.008 85.272,55.059 76.726 L 44.468 73.802 51.123 64.723 C 68.107 41.553,94.917 28.640,108.103 37.280 M309.498 129.613 C 312.317 136.960,307.050 139.912,296.160 137.090 C 283.499 133.809,281.923 128.757,292.444 125.177 C 302.188 121.862,307.004 123.115,309.498 129.613 M349.594 137.037 C 356.784 140.704,363.019 145.037,363.449 146.667 C 364.616 151.087,295.923 172.664,292.280 169.021 C 288.654 165.394,298.037 154.074,304.670 154.074 C 310.895 154.074,320.000 145.296,320.000 139.294 C 320.000 128.200,330.671 127.386,349.594 137.037 M225.185 142.107 C 225.185 154.408,191.259 168.478,175.792 162.591 C 158.038 155.834,160.525 152.163,187.250 145.680 C 215.088 138.928,225.185 137.977,225.185 142.107 M370.494 166.157 C 375.363 175.255,372.072 180.222,356.854 186.745 C 335.695 195.815,323.364 191.368,326.479 175.789 C 328.731 164.532,365.337 156.521,370.494 166.157 M318.026 188.889 C 319.908 198.020,311.730 207.407,301.894 207.407 C 295.890 207.407,294.366 203.024,299.308 199.970 C 300.964 198.947,301.498 196.781,300.495 195.158 C 297.896 190.953,287.407 201.173,287.407 207.910 C 287.407 217.507,263.782 229.509,263.610 220.000 C 263.537 215.985,262.144 216.653,257.437 222.963 C 251.101 231.455,241.475 233.793,239.138 227.407 C 238.207 224.864,235.774 225.791,231.369 230.370 C 227.841 234.037,222.911 237.037,220.414 237.037 C 217.532 237.037,219.738 233.393,226.456 227.058 C 232.275 221.569,237.037 214.529,237.037 211.413 C 237.037 206.810,243.841 203.452,273.333 193.499 C 317.262 178.674,315.948 178.809,318.026 188.889 M225.185 211.511 C 225.185 221.957,185.232 235.564,176.307 228.157 C 167.414 220.777,172.437 215.159,191.136 211.572 C 216.573 206.693,225.185 206.678,225.185 211.511 M198.787 242.734 C 196.491 244.188,192.824 244.692,190.639 243.853 C 184.373 241.449,185.967 239.996,194.815 240.045 C 200.745 240.078,201.826 240.810,198.787 242.734 M249.760 268.074 C 246.564 270.256,239.719 271.051,232.593 270.068 L 220.741 268.433 231.111 266.645 C 250.041 263.382,255.967 263.836,249.760 268.074 " stroke="none" fill="#000000" fill-rule="evenodd"></path></g></svg>