<svg id="svg" xmlns="http://www.w3.org/2000/svg" xmlns:xlink="http://www.w3.org/1999/xlink" width="400" height="410.4347826086957" viewBox="0, 0, 400,410.4347826086957"><g id="svgg"><path id="path0" d="M165.217 57.305 C 153.739 65.536,128.696 80.538,109.565 90.643 C 90.435 100.747,70.482 111.981,65.225 115.608 L 55.668 122.202 66.095 130.975 C 79.382 142.155,79.898 155.638,67.482 167.220 C 40.381 192.499,28.098 249.722,39.953 295.472 C 54.244 350.622,77.228 376.626,93.913 356.522 C 101.623 347.231,110.748 350.490,118.261 365.217 C 125.635 379.672,128.109 380.589,149.972 376.973 C 159.898 375.331,163.739 372.404,168.176 363.098 C 172.891 353.213,175.657 351.304,185.273 351.304 C 191.582 351.304,204.887 349.192,214.838 346.611 C 234.317 341.558,236.522 342.094,236.522 351.884 C 236.522 368.814,267.623 359.112,276.981 339.262 C 281.921 328.784,288.481 322.727,304.348 313.995 C 376.804 274.118,382.942 170.376,315.010 133.792 C 306.368 129.138,303.170 125.423,304.675 121.787 C 318.221 89.074,305.786 78.884,272.763 95.638 C 262.714 100.736,249.693 104.325,241.214 104.333 L 226.775 104.348 227.301 87.244 C 227.899 67.781,219.063 54.954,199.242 46.508 C 185.793 40.778,190.225 39.371,165.217 57.305 M206.709 63.889 C 219.059 75.537,220.948 81.561,216.938 96.522 C 215.427 102.162,212.245 104.348,205.547 104.348 C 200.436 104.348,190.583 107.239,183.653 110.772 C 165.149 120.206,122.202 95.537,134.945 82.795 C 140.635 77.105,162.630 87.766,166.847 98.257 L 169.994 106.087 170.214 97.615 C 170.336 92.956,167.012 85.501,162.829 81.048 C 144.835 61.894,167.959 63.474,188.696 82.815 C 196.655 90.238,198.261 90.724,198.261 85.710 C 198.261 79.308,185.415 64.704,177.447 62.048 C 174.777 61.157,173.807 58.638,175.242 56.316 C 179.983 48.645,194.165 52.058,206.709 63.889 M130.640 99.020 C 137.246 104.017,137.229 104.129,129.850 104.237 C 120.089 104.380,111.304 100.961,111.304 97.019 C 111.304 92.151,123.183 93.380,130.640 99.020 M302.609 98.611 C 302.609 101.195,300.879 108.272,298.765 114.336 C 295.856 122.680,295.956 126.610,299.174 130.488 C 302.640 134.664,301.903 136.864,295.192 142.371 C 288.482 147.878,287.671 150.297,290.814 155.434 C 296.259 164.334,310.232 163.477,314.981 153.953 L 318.862 146.167 326.388 154.177 C 337.366 165.863,337.266 165.909,296.522 167.784 C 253.845 169.749,212.177 181.515,158.261 206.824 C 118.157 225.649,116.406 227.875,109.411 268.914 C 102.603 308.851,101.245 305.949,139.228 332.618 C 152.503 341.939,163.391 350.584,163.422 351.830 C 163.513 355.494,117.683 344.070,103.478 336.888 L 90.435 330.293 90.435 305.008 C 90.435 291.101,92.783 270.709,95.652 259.692 C 108.980 208.523,79.256 216.996,62.615 269.108 C 56.916 286.958,59.843 309.825,69.578 323.496 L 77.473 334.584 66.696 329.011 C 35.958 313.115,50.286 244.845,93.083 203.281 C 101.470 195.135,105.505 187.612,106.846 177.618 C 109.145 160.476,106.057 159.821,83.784 172.720 C 65.731 183.176,68.480 178.151,93.618 154.745 C 105.141 144.015,105.323 143.438,99.705 135.416 C 92.986 125.824,91.957 107.826,98.127 107.826 C 100.445 107.826,118.556 111.886,138.374 116.848 C 173.176 125.562,174.568 125.652,179.097 119.457 C 183.115 113.961,189.330 112.956,222.534 112.429 C 246.462 112.049,263.186 110.234,266.260 107.682 C 270.926 103.810,294.235 94.403,300.000 94.066 C 301.435 93.982,302.609 96.027,302.609 98.611 M83.478 122.165 C 83.478 128.309,82.609 128.826,78.299 125.249 C 73.064 120.905,74.179 114.783,80.205 114.783 C 82.005 114.783,83.478 118.105,83.478 122.165 M236.522 149.565 C 228.067 152.273,228.115 152.350,238.261 152.350 C 244.000 152.350,252.609 151.097,257.391 149.565 C 265.846 146.857,265.798 146.780,255.652 146.780 C 249.913 146.780,241.304 148.034,236.522 149.565 M158.509 155.031 C 147.535 166.005,154.658 177.391,172.497 177.391 C 184.369 177.391,189.179 171.214,185.362 160.870 C 180.870 148.695,167.707 145.833,158.509 155.031 M343.747 180.425 C 350.697 184.831,350.366 249.387,343.323 262.843 C 325.700 296.518,254.055 332.011,189.427 339.084 C 163.871 341.881,154.740 334.908,138.311 300.053 L 128.089 278.367 134.177 250.193 L 140.264 222.020 159.697 213.425 C 226.508 183.876,322.143 166.728,343.747 180.425 " stroke="none" fill="#000000" fill-rule="evenodd"></path></g></svg>